<?xml version="1.0" encoding="UTF-8" standalone="no"?>
<!-- Created with Inkscape (http://www.inkscape.org/) -->

<svg
   xmlns:dc="http://purl.org/dc/elements/1.1/"
   xmlns:cc="http://creativecommons.org/ns#"
   xmlns:rdf="http://www.w3.org/1999/02/22-rdf-syntax-ns#"
   xmlns:svg="http://www.w3.org/2000/svg"
   xmlns="http://www.w3.org/2000/svg"
   xmlns:xlink="http://www.w3.org/1999/xlink"
   xmlns:sodipodi="http://sodipodi.sourceforge.net/DTD/sodipodi-0.dtd"
   xmlns:inkscape="http://www.inkscape.org/namespaces/inkscape"
   width="319.99991"
   height="319.99991"
   id="svg7110"
   version="1.1"
   inkscape:version="0.91 r13725"
   sodipodi:docname="action-colors-down.svg">
  <defs
     id="defs7112">
    <linearGradient
       inkscape:collect="always"
       id="white-0">
      <stop
         style="stop-color:#ffffff;stop-opacity:1;"
         offset="0"
         id="stop4290" />
      <stop
         style="stop-color:#ffffff;stop-opacity:0;"
         offset="1"
         id="stop4292" />
    </linearGradient>
    <linearGradient
       id="gradient4-8-4"
       y2="0"
       x2="1"
       y1="0"
       x1="0"
       gradientUnits="objectBoundingBox">
      <stop
         id="stop4284"
         stop-opacity="1"
         stop-color="#000000"
         offset="0" />
      <stop
         id="stop4286"
         stop-opacity="1"
         stop-color="#0000ff"
         offset="1" />
    </linearGradient>
    <linearGradient
       inkscape:collect="always"
       xlink:href="#gradient2-1"
       id="linearGradient7104"
       gradientUnits="userSpaceOnUse"
       gradientTransform="matrix(2.0514223,0,0,0.48746668,1980.1973,75.1436)"
       x1="0"
       y1="0"
       x2="98.468269"
       y2="0" />
    <linearGradient
       gradientUnits="objectBoundingBox"
       x1="0"
       y1="0"
       x2="1"
       y2="0"
       id="gradient2-1">
      <stop
         offset="0"
         stop-color="#000000"
         stop-opacity="1"
         id="stop115-7" />
      <stop
         offset="1"
         stop-color="#ff0000"
         stop-opacity="1"
         id="stop117-4" />
    </linearGradient>
    <linearGradient
       inkscape:collect="always"
       xlink:href="#gradient3-0"
       id="linearGradient7106"
       gradientUnits="userSpaceOnUse"
       gradientTransform="matrix(2.0514223,0,0,0.48746668,1980.1973,139.1436)"
       x1="0"
       y1="0"
       x2="98.468269"
       y2="0" />
    <linearGradient
       gradientUnits="objectBoundingBox"
       x1="0"
       y1="0"
       x2="1"
       y2="0"
       id="gradient3-0">
      <stop
         offset="0"
         stop-color="#000000"
         stop-opacity="1"
         id="stop120-9" />
      <stop
         offset="1"
         stop-color="#00ff00"
         stop-opacity="1"
         id="stop122-4" />
    </linearGradient>
    <linearGradient
       inkscape:collect="always"
       xlink:href="#gradient4-8"
       id="linearGradient7108"
       gradientUnits="userSpaceOnUse"
       gradientTransform="matrix(2.0514223,0,0,0.48746668,1980.1973,203.1436)"
       x1="0"
       y1="0"
       x2="98.468269"
       y2="0" />
    <linearGradient
       gradientUnits="objectBoundingBox"
       x1="0"
       y1="0"
       x2="1"
       y2="0"
       id="gradient4-8">
      <stop
         offset="0"
         stop-color="#000000"
         stop-opacity="1"
         id="stop125-8" />
      <stop
         offset="1"
         stop-color="#0000ff"
         stop-opacity="1"
         id="stop127-2" />
    </linearGradient>
    <radialGradient
       inkscape:collect="always"
       xlink:href="#white-0"
       id="radialGradient4294"
       cx="2081.1973"
       cy="55.1436"
       fx="2081.1973"
       fy="55.1436"
       r="15"
       gradientUnits="userSpaceOnUse" />
  </defs>
  <sodipodi:namedview
     id="base"
     pagecolor="#ffffff"
     bordercolor="#666666"
     borderopacity="1.0"
     inkscape:pageopacity="0.0"
     inkscape:pageshadow="2"
     inkscape:zoom="1.979899"
     inkscape:cx="44.660762"
     inkscape:cy="295.77892"
     inkscape:document-units="px"
     inkscape:current-layer="g7075"
     showgrid="false"
     fit-margin-top="0"
     fit-margin-left="0"
     fit-margin-right="0"
     fit-margin-bottom="0"
     inkscape:window-width="3840"
     inkscape:window-height="2081"
     inkscape:window-x="0"
     inkscape:window-y="30"
     inkscape:window-maximized="1" />
  <metadata
     id="metadata7115">
    <rdf:RDF>
      <cc:Work
         rdf:about="">
        <dc:format>image/svg+xml</dc:format>
        <dc:type
           rdf:resource="http://purl.org/dc/dcmitype/StillImage" />
        <dc:title />
      </cc:Work>
    </rdf:RDF>
  </metadata>
  <g
     inkscape:label="Layer 1"
     inkscape:groupmode="layer"
     id="layer1"
     transform="translate(208.21396,-569.14767)">
    <g
       id="g7075"
       transform="matrix(1.2499996,0,0,1.2499996,-2649.7098,550.21818)">
      <path
         id="path658-2"
         d="m 1953.1973,20.1436 c 0,-2.76142 2.2386,-5 5,-5 l 246,0 c 2.761,0 5,2.23858 5,5 l 0,246 c 0,2.761 -2.239,5 -5,5 l -246,0 c -2.7614,0 -5,-2.239 -5,-5 l 0,-246"
         vector-effect="non-scaling-stroke"
         inkscape:connector-curvature="0"
         style="font-size:8.25px;font-style:normal;font-weight:400;fill:#0096db;fill-opacity:1;fill-rule:evenodd;stroke:none;font-family:MS Shell Dlg 2" />
      <path
         id="path662-0"
         d="m 2205.1973,97.1436 c 0,-39.7645 -55.517,-72 -124,-72 -68.4833,0 -124,32.2355 -124,72 l 248,0"
         vector-effect="non-scaling-stroke"
         inkscape:connector-curvature="0"
         style="font-size:8.25px;font-style:normal;font-weight:400;fill:#505050;fill-opacity:1;fill-rule:evenodd;stroke:none;font-family:MS Shell Dlg 2" />
      <path
         id="path664-3"
         d="m 1957.1973,96.1436 c 0,-2.7614 2.2386,-5 5,-5 l 238,0 c 2.761,0 5,2.2386 5,5 l 0,166 c 0,2.761 -2.239,5 -5,5 l -238,0 c -2.7614,0 -5,-2.239 -5,-5 l 0,-166"
         vector-effect="non-scaling-stroke"
         inkscape:connector-curvature="0"
         style="font-size:8.25px;font-style:normal;font-weight:400;fill:#505050;fill-opacity:1;fill-rule:evenodd;stroke:none;font-family:MS Shell Dlg 2" />
      <path
         id="path668-1"
         d="m 1953.1973,173.1436 18,0 0,80 -18,0 0,-80"
         vector-effect="non-scaling-stroke"
         inkscape:connector-curvature="0"
         style="font-size:8.25px;font-style:normal;font-weight:400;fill:#000000;fill-opacity:1;fill-rule:evenodd;stroke:none;font-family:MS Shell Dlg 2" />
      <path
         id="path670-8"
         d="m 2191.1973,173.1436 18,0 0,80 -18,0 0,-80"
         vector-effect="non-scaling-stroke"
         inkscape:connector-curvature="0"
         style="font-size:8.25px;font-style:normal;font-weight:400;fill:#000000;fill-opacity:1;fill-rule:evenodd;stroke:none;font-family:MS Shell Dlg 2" />
      <path
         id="path674-9"
         d="m 2066.1973,40.1436 30,0 0,30 -30,0 0,-30"
         vector-effect="non-scaling-stroke"
         inkscape:connector-curvature="0"
         style="font-size:8.25px;font-style:normal;font-weight:400;fill-rule:evenodd;stroke:none;font-family:MS Shell Dlg 2;fill-opacity:1;fill:url(#radialGradient4294)" />
      <path
         id="path684-2"
         d="m 1980.1973,75.1436 202,0 0,48 -202,0 0,-48"
         vector-effect="non-scaling-stroke"
         inkscape:connector-curvature="0"
         style="font-size:8.25px;font-style:normal;font-weight:400;fill:#f0f0f0;fill-opacity:1;fill-rule:evenodd;stroke:none;font-family:MS Shell Dlg 2" />
      <path
         id="path690-6"
         d="m 1980.1973,75.1436 202,0 0,48 -202,0 0,-48"
         vector-effect="non-scaling-stroke"
         inkscape:connector-curvature="0"
         style="font-size:8.25px;font-style:normal;font-weight:400;fill:url(#linearGradient7104);fill-rule:evenodd;stroke:none;font-family:MS Shell Dlg 2" />
      <path
         id="path694-7"
         d="m 1980.1973,75.1436 48,0 0,48 -48,0 0,-48"
         vector-effect="non-scaling-stroke"
         inkscape:connector-curvature="0"
         style="font-size:8.25px;font-style:normal;font-weight:400;fill:#ffffff;fill-opacity:1;fill-rule:evenodd;stroke:none;font-family:MS Shell Dlg 2" />
      <path
         id="path700-9"
         d="m 1980.1973,119.1436 48,0 0,4 -48,0 0,-4"
         vector-effect="non-scaling-stroke"
         inkscape:connector-curvature="0"
         style="font-size:8.25px;font-style:normal;font-weight:400;fill:#000000;fill-opacity:1;fill-rule:evenodd;stroke:none;font-family:MS Shell Dlg 2" />
      <path
         id="path706-9"
         d="m 2024.1973,75.1436 4,0 0,48 -4,0 0,-48"
         vector-effect="non-scaling-stroke"
         inkscape:connector-curvature="0"
         style="font-size:8.25px;font-style:normal;font-weight:400;fill:#000000;fill-opacity:1;fill-rule:evenodd;stroke:none;font-family:MS Shell Dlg 2" />
      <path
         id="path712-8"
         d="m 1980.1973,75.1436 4,0 0,48 -4,0 0,-48"
         vector-effect="non-scaling-stroke"
         inkscape:connector-curvature="0"
         style="font-size:8.25px;font-style:normal;font-weight:400;fill:#000000;fill-opacity:1;fill-rule:evenodd;stroke:none;font-family:MS Shell Dlg 2" />
      <path
         id="path718-5"
         d="m 1980.1973,75.1436 48,0 0,4 -48,0 0,-4"
         vector-effect="non-scaling-stroke"
         inkscape:connector-curvature="0"
         style="font-size:8.25px;font-style:normal;font-weight:400;fill:#000000;fill-opacity:1;fill-rule:evenodd;stroke:none;font-family:MS Shell Dlg 2" />
      <path
         id="path732-8"
         d="m 1980.1973,139.1436 202,0 0,48 -202,0 0,-48"
         vector-effect="non-scaling-stroke"
         inkscape:connector-curvature="0"
         style="font-size:8.25px;font-style:normal;font-weight:400;fill:#f0f0f0;fill-opacity:1;fill-rule:evenodd;stroke:none;font-family:MS Shell Dlg 2" />
      <path
         id="path738-3"
         d="m 1980.1973,139.1436 202,0 0,48 -202,0 0,-48"
         vector-effect="non-scaling-stroke"
         inkscape:connector-curvature="0"
         style="font-size:8.25px;font-style:normal;font-weight:400;fill:url(#linearGradient7106);fill-rule:evenodd;stroke:none;font-family:MS Shell Dlg 2" />
      <path
         id="path742-6"
         d="m 1980.1973,139.1436 48,0 0,48 -48,0 0,-48"
         vector-effect="non-scaling-stroke"
         inkscape:connector-curvature="0"
         style="font-size:8.25px;font-style:normal;font-weight:400;fill:#ffffff;fill-opacity:1;fill-rule:evenodd;stroke:none;font-family:MS Shell Dlg 2" />
      <path
         id="path748-9"
         d="m 1980.1973,183.1436 48,0 0,4 -48,0 0,-4"
         vector-effect="non-scaling-stroke"
         inkscape:connector-curvature="0"
         style="font-size:8.25px;font-style:normal;font-weight:400;fill:#000000;fill-opacity:1;fill-rule:evenodd;stroke:none;font-family:MS Shell Dlg 2" />
      <path
         id="path754-9"
         d="m 2024.1973,139.1436 4,0 0,48 -4,0 0,-48"
         vector-effect="non-scaling-stroke"
         inkscape:connector-curvature="0"
         style="font-size:8.25px;font-style:normal;font-weight:400;fill:#000000;fill-opacity:1;fill-rule:evenodd;stroke:none;font-family:MS Shell Dlg 2" />
      <path
         id="path760-7"
         d="m 1980.1973,139.1436 4,0 0,48 -4,0 0,-48"
         vector-effect="non-scaling-stroke"
         inkscape:connector-curvature="0"
         style="font-size:8.25px;font-style:normal;font-weight:400;fill:#000000;fill-opacity:1;fill-rule:evenodd;stroke:none;font-family:MS Shell Dlg 2" />
      <path
         id="path766-5"
         d="m 1980.1973,139.1436 48,0 0,4 -48,0 0,-4"
         vector-effect="non-scaling-stroke"
         inkscape:connector-curvature="0"
         style="font-size:8.25px;font-style:normal;font-weight:400;fill:#000000;fill-opacity:1;fill-rule:evenodd;stroke:none;font-family:MS Shell Dlg 2" />
      <path
         id="path780-6"
         d="m 1980.1973,203.1436 202,0 0,48 -202,0 0,-48"
         vector-effect="non-scaling-stroke"
         inkscape:connector-curvature="0"
         style="font-size:8.25px;font-style:normal;font-weight:400;fill:#f0f0f0;fill-opacity:1;fill-rule:evenodd;stroke:none;font-family:MS Shell Dlg 2" />
      <path
         id="path786-3"
         d="m 1980.1973,203.1436 202,0 0,48 -202,0 0,-48"
         vector-effect="non-scaling-stroke"
         inkscape:connector-curvature="0"
         style="font-size:8.25px;font-style:normal;font-weight:400;fill:url(#linearGradient7108);fill-rule:evenodd;stroke:none;font-family:MS Shell Dlg 2" />
      <path
         id="path790-5"
         d="m 1980.1973,203.1436 48,0 0,48 -48,0 0,-48"
         vector-effect="non-scaling-stroke"
         inkscape:connector-curvature="0"
         style="font-size:8.25px;font-style:normal;font-weight:400;fill:#ffffff;fill-opacity:1;fill-rule:evenodd;stroke:none;font-family:MS Shell Dlg 2" />
      <path
         id="path796-2"
         d="m 1980.1973,247.1436 48,0 0,4 -48,0 0,-4"
         vector-effect="non-scaling-stroke"
         inkscape:connector-curvature="0"
         style="font-size:8.25px;font-style:normal;font-weight:400;fill:#000000;fill-opacity:1;fill-rule:evenodd;stroke:none;font-family:MS Shell Dlg 2" />
      <path
         id="path802-5"
         d="m 2024.1973,203.1436 4,0 0,48 -4,0 0,-48"
         vector-effect="non-scaling-stroke"
         inkscape:connector-curvature="0"
         style="font-size:8.25px;font-style:normal;font-weight:400;fill:#000000;fill-opacity:1;fill-rule:evenodd;stroke:none;font-family:MS Shell Dlg 2" />
      <path
         id="path808-1"
         d="m 1980.1973,203.1436 4,0 0,48 -4,0 0,-48"
         vector-effect="non-scaling-stroke"
         inkscape:connector-curvature="0"
         style="font-size:8.25px;font-style:normal;font-weight:400;fill:#000000;fill-opacity:1;fill-rule:evenodd;stroke:none;font-family:MS Shell Dlg 2" />
      <path
         id="path814-2"
         d="m 1980.1973,203.1436 48,0 0,4 -48,0 0,-4"
         vector-effect="non-scaling-stroke"
         inkscape:connector-curvature="0"
         style="font-size:8.25px;font-style:normal;font-weight:400;fill:#000000;fill-opacity:1;fill-rule:evenodd;stroke:none;font-family:MS Shell Dlg 2" />
    </g>
  </g>
</svg>
