<?xml version="1.0" encoding="UTF-8" standalone="no"?>
<svg width="90.3111mm" height="90.3111mm"
 viewBox="0 0 256 256"
 xmlns="http://www.w3.org/2000/svg" xmlns:xlink="http://www.w3.org/1999/xlink"  version="1.2" baseProfile="tiny">
<title>VPL event-rc-keypad</title>
<desc>This image was generated by an helper tool part of Aseba, get it at http://thymio.org</desc>
<defs>
</defs>
<g fill="none" stroke="black" stroke-width="1" fill-rule="evenodd" stroke-linecap="square" stroke-linejoin="bevel" >

<g fill="#f6871f" fill-opacity="1" stroke="none" transform="matrix(1,0,0,1,0,0)"
font-family="Noto Sans" font-size="9.5" font-weight="400" font-style="normal" 
>
<path vector-effect="non-scaling-stroke" fill-rule="evenodd" d="M0,5 C0,2.23858 2.23858,0 5,0 L251,0 C253.761,0 256,2.23858 256,5 L256,251 C256,253.761 253.761,256 251,256 L5,256 C2.23858,256 0,253.761 0,251 L0,5"/>
</g>

<g fill="#ffffff" fill-opacity="1" stroke="none" transform="matrix(1,0,0,1,0,0)"
font-family="Noto Sans" font-size="9.5" font-weight="400" font-style="normal" 
>
<path vector-effect="non-scaling-stroke" fill-rule="evenodd" d="M18,11 C18,8.23858 20.2386,6 23,6 L233,6 C235.761,6 238,8.23858 238,11 L238,187 C238,189.761 235.761,192 233,192 L23,192 C20.2386,192 18,189.761 18,187 L18,11"/>
</g>

<g fill="#dcdcdc" fill-opacity="1" stroke="#c0c0c0" stroke-opacity="1" stroke-width="4" stroke-linecap="round" stroke-linejoin="round" transform="matrix(1,0,0,1,0,0)"
font-family="Noto Sans" font-size="9.5" font-weight="400" font-style="normal" 
>
<path vector-effect="none" fill-rule="evenodd" d="M72,224 C72,235.046 63.0457,244 52,244 C40.9543,244 32,235.046 32,224 C32,212.954 40.9543,204 52,204 C63.0457,204 72,212.954 72,224 "/>
</g>

<g fill="#dcdcdc" fill-opacity="1" stroke="#c0c0c0" stroke-opacity="1" stroke-width="4" stroke-linecap="round" stroke-linejoin="round" transform="matrix(1,0,0,1,0,0)"
font-family="Noto Sans" font-size="9.5" font-weight="400" font-style="normal" 
>
<path vector-effect="none" fill-rule="evenodd" d="M148,224 C148,235.046 139.046,244 128,244 C116.954,244 108,235.046 108,224 C108,212.954 116.954,204 128,204 C139.046,204 148,212.954 148,224 "/>
</g>

<g fill="#ff0000" fill-opacity="1" stroke="#000000" stroke-opacity="1" stroke-width="4" stroke-linecap="round" stroke-linejoin="round" transform="matrix(1,0,0,1,0,0)"
font-family="Noto Sans" font-size="9.5" font-weight="400" font-style="normal" 
>
<path vector-effect="none" fill-rule="evenodd" d="M224,224 C224,235.046 215.046,244 204,244 C192.954,244 184,235.046 184,224 C184,212.954 192.954,204 204,204 C215.046,204 224,212.954 224,224 "/>
</g>

<g fill="#ff0000" fill-opacity="1" stroke="#000000" stroke-opacity="1" stroke-width="5" stroke-linecap="round" stroke-linejoin="round" transform="matrix(1,0,0,1,40,12)"
font-family="Noto Sans" font-size="9.5" font-weight="400" font-style="normal" 
>
<path vector-effect="none" fill-rule="evenodd" d="M0,0 L48,0 L48,30 L0,30 L0,0"/>
</g>

<g fill="#ff0000" fill-opacity="1" stroke="#000000" stroke-opacity="1" stroke-width="4" stroke-linecap="round" stroke-linejoin="round" transform="matrix(1,0,0,1,0,0)"
font-family="Noto Sans" font-size="9.5" font-weight="400" font-style="normal" 
>
</g>

<g fill="#dcdcdc" fill-opacity="1" stroke="#c0c0c0" stroke-opacity="1" stroke-width="5" stroke-linecap="round" stroke-linejoin="round" transform="matrix(1,0,0,1,104,12)"
font-family="Noto Sans" font-size="9.5" font-weight="400" font-style="normal" 
>
<path vector-effect="none" fill-rule="evenodd" d="M0,0 L48,0 L48,30 L0,30 L0,0"/>
</g>

<g fill="#ff0000" fill-opacity="1" stroke="#000000" stroke-opacity="1" stroke-width="4" stroke-linecap="round" stroke-linejoin="round" transform="matrix(1,0,0,1,0,0)"
font-family="Noto Sans" font-size="9.5" font-weight="400" font-style="normal" 
>
</g>

<g fill="#dcdcdc" fill-opacity="1" stroke="#c0c0c0" stroke-opacity="1" stroke-width="5" stroke-linecap="round" stroke-linejoin="round" transform="matrix(1,0,0,1,168,12)"
font-family="Noto Sans" font-size="9.5" font-weight="400" font-style="normal" 
>
<path vector-effect="none" fill-rule="evenodd" d="M0,0 L48,0 L48,30 L0,30 L0,0"/>
</g>

<g fill="#ff0000" fill-opacity="1" stroke="#000000" stroke-opacity="1" stroke-width="4" stroke-linecap="round" stroke-linejoin="round" transform="matrix(1,0,0,1,0,0)"
font-family="Noto Sans" font-size="9.5" font-weight="400" font-style="normal" 
>
</g>

<g fill="#dcdcdc" fill-opacity="1" stroke="#c0c0c0" stroke-opacity="1" stroke-width="5" stroke-linecap="round" stroke-linejoin="round" transform="matrix(1,0,0,1,40,60)"
font-family="Noto Sans" font-size="9.5" font-weight="400" font-style="normal" 
>
<path vector-effect="none" fill-rule="evenodd" d="M0,0 L48,0 L48,30 L0,30 L0,0"/>
</g>

<g fill="#ff0000" fill-opacity="1" stroke="#000000" stroke-opacity="1" stroke-width="4" stroke-linecap="round" stroke-linejoin="round" transform="matrix(1,0,0,1,0,0)"
font-family="Noto Sans" font-size="9.5" font-weight="400" font-style="normal" 
>
</g>

<g fill="#dcdcdc" fill-opacity="1" stroke="#c0c0c0" stroke-opacity="1" stroke-width="5" stroke-linecap="round" stroke-linejoin="round" transform="matrix(1,0,0,1,104,60)"
font-family="Noto Sans" font-size="9.5" font-weight="400" font-style="normal" 
>
<path vector-effect="none" fill-rule="evenodd" d="M0,0 L48,0 L48,30 L0,30 L0,0"/>
</g>

<g fill="#ff0000" fill-opacity="1" stroke="#000000" stroke-opacity="1" stroke-width="4" stroke-linecap="round" stroke-linejoin="round" transform="matrix(1,0,0,1,0,0)"
font-family="Noto Sans" font-size="9.5" font-weight="400" font-style="normal" 
>
</g>

<g fill="#dcdcdc" fill-opacity="1" stroke="#c0c0c0" stroke-opacity="1" stroke-width="5" stroke-linecap="round" stroke-linejoin="round" transform="matrix(1,0,0,1,168,60)"
font-family="Noto Sans" font-size="9.5" font-weight="400" font-style="normal" 
>
<path vector-effect="none" fill-rule="evenodd" d="M0,0 L48,0 L48,30 L0,30 L0,0"/>
</g>

<g fill="#ff0000" fill-opacity="1" stroke="#000000" stroke-opacity="1" stroke-width="4" stroke-linecap="round" stroke-linejoin="round" transform="matrix(1,0,0,1,0,0)"
font-family="Noto Sans" font-size="9.5" font-weight="400" font-style="normal" 
>
</g>

<g fill="#dcdcdc" fill-opacity="1" stroke="#c0c0c0" stroke-opacity="1" stroke-width="5" stroke-linecap="round" stroke-linejoin="round" transform="matrix(1,0,0,1,40,108)"
font-family="Noto Sans" font-size="9.5" font-weight="400" font-style="normal" 
>
<path vector-effect="none" fill-rule="evenodd" d="M0,0 L48,0 L48,30 L0,30 L0,0"/>
</g>

<g fill="#ff0000" fill-opacity="1" stroke="#000000" stroke-opacity="1" stroke-width="4" stroke-linecap="round" stroke-linejoin="round" transform="matrix(1,0,0,1,0,0)"
font-family="Noto Sans" font-size="9.5" font-weight="400" font-style="normal" 
>
</g>

<g fill="#dcdcdc" fill-opacity="1" stroke="#c0c0c0" stroke-opacity="1" stroke-width="5" stroke-linecap="round" stroke-linejoin="round" transform="matrix(1,0,0,1,104,108)"
font-family="Noto Sans" font-size="9.5" font-weight="400" font-style="normal" 
>
<path vector-effect="none" fill-rule="evenodd" d="M0,0 L48,0 L48,30 L0,30 L0,0"/>
</g>

<g fill="#ff0000" fill-opacity="1" stroke="#000000" stroke-opacity="1" stroke-width="4" stroke-linecap="round" stroke-linejoin="round" transform="matrix(1,0,0,1,0,0)"
font-family="Noto Sans" font-size="9.5" font-weight="400" font-style="normal" 
>
</g>

<g fill="#dcdcdc" fill-opacity="1" stroke="#c0c0c0" stroke-opacity="1" stroke-width="5" stroke-linecap="round" stroke-linejoin="round" transform="matrix(1,0,0,1,168,108)"
font-family="Noto Sans" font-size="9.5" font-weight="400" font-style="normal" 
>
<path vector-effect="none" fill-rule="evenodd" d="M0,0 L48,0 L48,30 L0,30 L0,0"/>
</g>

<g fill="#ff0000" fill-opacity="1" stroke="#000000" stroke-opacity="1" stroke-width="4" stroke-linecap="round" stroke-linejoin="round" transform="matrix(1,0,0,1,0,0)"
font-family="Noto Sans" font-size="9.5" font-weight="400" font-style="normal" 
>
</g>

<g fill="#dcdcdc" fill-opacity="1" stroke="#c0c0c0" stroke-opacity="1" stroke-width="5" stroke-linecap="round" stroke-linejoin="round" transform="matrix(1,0,0,1,40,156)"
font-family="Noto Sans" font-size="9.5" font-weight="400" font-style="normal" 
>
<path vector-effect="none" fill-rule="evenodd" d="M0,0 L48,0 L48,30 L0,30 L0,0"/>
</g>

<g fill="#ff0000" fill-opacity="1" stroke="#000000" stroke-opacity="1" stroke-width="4" stroke-linecap="round" stroke-linejoin="round" transform="matrix(1,0,0,1,0,0)"
font-family="Noto Sans" font-size="9.5" font-weight="400" font-style="normal" 
>
</g>

<g fill="#dcdcdc" fill-opacity="1" stroke="#c0c0c0" stroke-opacity="1" stroke-width="5" stroke-linecap="round" stroke-linejoin="round" transform="matrix(1,0,0,1,104,156)"
font-family="Noto Sans" font-size="9.5" font-weight="400" font-style="normal" 
>
<path vector-effect="none" fill-rule="evenodd" d="M0,0 L48,0 L48,30 L0,30 L0,0"/>
</g>

<g fill="#ff0000" fill-opacity="1" stroke="#000000" stroke-opacity="1" stroke-width="4" stroke-linecap="round" stroke-linejoin="round" transform="matrix(1,0,0,1,0,0)"
font-family="Noto Sans" font-size="9.5" font-weight="400" font-style="normal" 
>
</g>

<g fill="#dcdcdc" fill-opacity="1" stroke="#c0c0c0" stroke-opacity="1" stroke-width="5" stroke-linecap="round" stroke-linejoin="round" transform="matrix(1,0,0,1,168,156)"
font-family="Noto Sans" font-size="9.5" font-weight="400" font-style="normal" 
>
<path vector-effect="none" fill-rule="evenodd" d="M0,0 L48,0 L48,30 L0,30 L0,0"/>
</g>

<g fill="#ff0000" fill-opacity="1" stroke="#000000" stroke-opacity="1" stroke-width="4" stroke-linecap="round" stroke-linejoin="round" transform="matrix(1,0,0,1,0,0)"
font-family="Noto Sans" font-size="9.5" font-weight="400" font-style="normal" 
>
</g>
</g>
</svg>
