<?xml version="1.0" encoding="UTF-8" standalone="no"?>
<!-- Created with Inkscape (http://www.inkscape.org/) -->

<svg
   xmlns:dc="http://purl.org/dc/elements/1.1/"
   xmlns:cc="http://creativecommons.org/ns#"
   xmlns:rdf="http://www.w3.org/1999/02/22-rdf-syntax-ns#"
   xmlns:svg="http://www.w3.org/2000/svg"
   xmlns="http://www.w3.org/2000/svg"
   xmlns:sodipodi="http://sodipodi.sourceforge.net/DTD/sodipodi-0.dtd"
   xmlns:inkscape="http://www.inkscape.org/namespaces/inkscape"
   width="319.99991"
   height="319.99991"
   id="svg7110"
   version="1.1"
   inkscape:version="0.48.5 r10040"
   sodipodi:docname="event-prox-ground.svg">
  <defs
     id="defs7112" />
  <sodipodi:namedview
     id="base"
     pagecolor="#ffffff"
     bordercolor="#666666"
     borderopacity="1.0"
     inkscape:pageopacity="0.0"
     inkscape:pageshadow="2"
     inkscape:zoom="0.35"
     inkscape:cx="834.9998"
     inkscape:cy="-285.71447"
     inkscape:document-units="px"
     inkscape:current-layer="layer1"
     showgrid="false"
     fit-margin-top="0"
     fit-margin-left="0"
     fit-margin-right="0"
     fit-margin-bottom="0"
     inkscape:window-width="944"
     inkscape:window-height="1002"
     inkscape:window-x="960"
     inkscape:window-y="0"
     inkscape:window-maximized="0" />
  <metadata
     id="metadata7115">
    <rdf:RDF>
      <cc:Work
         rdf:about="">
        <dc:format>image/svg+xml</dc:format>
        <dc:type
           rdf:resource="http://purl.org/dc/dcmitype/StillImage" />
        <dc:title></dc:title>
      </cc:Work>
    </rdf:RDF>
  </metadata>
  <g
     inkscape:label="Layer 1"
     inkscape:groupmode="layer"
     id="layer1"
     transform="translate(459.99981,73.35216)">
    <g
       id="g6975"
       transform="matrix(1.2499996,0,0,1.2499996,-2431.4958,457.71817)">
      <path
         id="path442-1"
         d="m 1577.1973,-419.8564 c 0,-2.76142 2.2386,-5 5,-5 l 246,0 c 2.761,0 5,2.23858 5,5 l 0,246 c 0,2.761 -2.239,5 -5,5 l -246,0 c -2.7614,0 -5,-2.239 -5,-5 l 0,-246"
         vector-effect="non-scaling-stroke"
         inkscape:connector-curvature="0"
         style="font-size:8.25px;font-style:normal;font-weight:400;fill:#f6871f;fill-opacity:1;fill-rule:evenodd;stroke:none;font-family:MS Shell Dlg 2" />
      <path
         id="path446-0"
         d="m 1829.1973,-342.8564 c 0,-39.7645 -55.517,-72 -124,-72 -68.4833,0 -124,32.2355 -124,72 l 248,0"
         vector-effect="non-scaling-stroke"
         inkscape:connector-curvature="0"
         style="font-size:8.25px;font-style:normal;font-weight:400;fill:#ffffff;fill-opacity:1;fill-rule:evenodd;stroke:none;font-family:MS Shell Dlg 2" />
      <path
         id="path448-1"
         d="m 1581.1973,-343.8564 c 0,-2.7614 2.2386,-5 5,-5 l 238,0 c 2.761,0 5,2.2386 5,5 l 0,166 c 0,2.761 -2.239,5 -5,5 l -238,0 c -2.7614,0 -5,-2.239 -5,-5 l 0,-166"
         vector-effect="non-scaling-stroke"
         inkscape:connector-curvature="0"
         style="font-size:8.25px;font-style:normal;font-weight:400;fill:#ffffff;fill-opacity:1;fill-rule:evenodd;stroke:none;font-family:MS Shell Dlg 2" />
      <path
         id="path456-6"
         d="m 1586.238,-366.7355 24.5134,-20.56921 20.5692,24.51341 -24.5134,20.56921 -20.5692,-24.51341"
         vector-effect="none"
         inkscape:connector-curvature="0"
         style="font-size:8.25px;font-style:normal;font-weight:400;fill:#dcdcdc;fill-opacity:1;fill-rule:evenodd;stroke:#c0c0c0;stroke-width:4.99999952;stroke-linecap:round;stroke-linejoin:round;stroke-opacity:1;font-family:MS Shell Dlg 2" />
      <path
         id="path464-8"
         d="m 1633.3869,-400.37317 30.0702,-10.94464 10.9446,30.07018 -30.0702,10.94464 -10.9446,-30.07018"
         vector-effect="none"
         inkscape:connector-curvature="0"
         style="font-size:8.25px;font-style:normal;font-weight:400;fill:#dcdcdc;fill-opacity:1;fill-rule:evenodd;stroke:#c0c0c0;stroke-width:5.00000143;stroke-linecap:round;stroke-linejoin:round;stroke-opacity:1;font-family:MS Shell Dlg 2" />
      <path
         id="path472-3"
         d="m 1689.1973,-415.8564 32,0 0,32 -32,0 0,-32"
         vector-effect="none"
         inkscape:connector-curvature="0"
         style="font-size:8.25px;font-style:normal;font-weight:400;fill:#dcdcdc;fill-opacity:1;fill-rule:evenodd;stroke:#c0c0c0;stroke-width:5;stroke-linecap:round;stroke-linejoin:round;stroke-opacity:1;font-family:MS Shell Dlg 2" />
      <path
         id="path480-0"
         d="m 1746.9375,-411.31781 30.0702,10.94464 -10.9446,30.07018 -30.0702,-10.94464 10.9446,-30.07018"
         vector-effect="none"
         inkscape:connector-curvature="0"
         style="font-size:8.25px;font-style:normal;font-weight:400;fill:#dcdcdc;fill-opacity:1;fill-rule:evenodd;stroke:#c0c0c0;stroke-width:5.00000143;stroke-linecap:round;stroke-linejoin:round;stroke-opacity:1;font-family:MS Shell Dlg 2" />
      <path
         id="path488-8"
         d="m 1799.6432,-387.30471 24.5134,20.56921 -20.5692,24.51341 -24.5134,-20.56921 20.5692,-24.51341"
         vector-effect="none"
         inkscape:connector-curvature="0"
         style="font-size:8.25px;font-style:normal;font-weight:400;fill:#dcdcdc;fill-opacity:1;fill-rule:evenodd;stroke:#c0c0c0;stroke-width:4.99999952;stroke-linecap:round;stroke-linejoin:round;stroke-opacity:1;font-family:MS Shell Dlg 2" />
      <path
         id="path496-7"
         d="m 1625.1973,-206.8564 32,0 0,32 -32,0 0,-32"
         vector-effect="none"
         inkscape:connector-curvature="0"
         style="font-size:8.25px;font-style:normal;font-weight:400;fill:#dcdcdc;fill-opacity:1;fill-rule:evenodd;stroke:#c0c0c0;stroke-width:5;stroke-linecap:round;stroke-linejoin:round;stroke-opacity:1;font-family:MS Shell Dlg 2" />
      <path
         id="path504-3"
         d="m 1753.1973,-206.8564 32,0 0,32 -32,0 0,-32"
         vector-effect="none"
         inkscape:connector-curvature="0"
         style="font-size:8.25px;font-style:normal;font-weight:400;fill:#dcdcdc;fill-opacity:1;fill-rule:evenodd;stroke:#c0c0c0;stroke-width:5;stroke-linecap:round;stroke-linejoin:round;stroke-opacity:1;font-family:MS Shell Dlg 2" />
    </g>
  </g>
</svg>
