<?xml version="1.0" encoding="UTF-8" standalone="no"?>
<!-- Created with Inkscape (http://www.inkscape.org/) -->

<svg
   xmlns:dc="http://purl.org/dc/elements/1.1/"
   xmlns:cc="http://creativecommons.org/ns#"
   xmlns:rdf="http://www.w3.org/1999/02/22-rdf-syntax-ns#"
   xmlns:svg="http://www.w3.org/2000/svg"
   xmlns="http://www.w3.org/2000/svg"
   xmlns:sodipodi="http://sodipodi.sourceforge.net/DTD/sodipodi-0.dtd"
   xmlns:inkscape="http://www.inkscape.org/namespaces/inkscape"
   width="319.99991"
   height="319.99991"
   id="svg7110"
   version="1.1"
   inkscape:version="0.48.5 r10040"
   sodipodi:docname="New document 2">
  <defs
     id="defs7112" />
  <sodipodi:namedview
     id="base"
     pagecolor="#ffffff"
     bordercolor="#666666"
     borderopacity="1.0"
     inkscape:pageopacity="0.0"
     inkscape:pageshadow="2"
     inkscape:zoom="0.35"
     inkscape:cx="486.42851"
     inkscape:cy="2.8570609"
     inkscape:document-units="px"
     inkscape:current-layer="layer1"
     showgrid="false"
     fit-margin-top="0"
     fit-margin-left="0"
     fit-margin-right="0"
     fit-margin-bottom="0"
     inkscape:window-width="944"
     inkscape:window-height="1002"
     inkscape:window-x="960"
     inkscape:window-y="0"
     inkscape:window-maximized="0" />
  <metadata
     id="metadata7115">
    <rdf:RDF>
      <cc:Work
         rdf:about="">
        <dc:format>image/svg+xml</dc:format>
        <dc:type
           rdf:resource="http://purl.org/dc/dcmitype/StillImage" />
        <dc:title></dc:title>
      </cc:Work>
    </rdf:RDF>
  </metadata>
  <g
     inkscape:label="Layer 1"
     inkscape:groupmode="layer"
     id="layer1"
     transform="translate(111.42851,-215.21935)">
    <g
       id="g6941"
       transform="matrix(1.2499996,0,0,1.2499996,-2082.9245,1296.2895)">
      <path
         id="path202-1"
         d="m 1577.1973,-859.8564 c 0,-2.76142 2.2386,-5 5,-5 l 246,0 c 2.761,0 5,2.23858 5,5 l 0,246 c 0,2.761 -2.239,5 -5,5 l -246,0 c -2.7614,0 -5,-2.239 -5,-5 l 0,-246"
         vector-effect="non-scaling-stroke"
         inkscape:connector-curvature="0"
         style="font-size:8.25px;font-style:normal;font-weight:400;fill:#f6871f;fill-opacity:1;fill-rule:evenodd;stroke:none;font-family:MS Shell Dlg 2" />
      <path
         id="path206-8"
         d="m 1829.1973,-782.8564 c 0,-39.7645 -55.517,-72 -124,-72 -68.4833,0 -124,32.2355 -124,72 l 248,0"
         vector-effect="non-scaling-stroke"
         inkscape:connector-curvature="0"
         style="font-size:8.25px;font-style:normal;font-weight:400;fill:#ffffff;fill-opacity:1;fill-rule:evenodd;stroke:none;font-family:MS Shell Dlg 2" />
      <path
         id="path208-7"
         d="m 1581.1973,-783.8564 c 0,-2.7614 2.2386,-5 5,-5 l 238,0 c 2.761,0 5,2.2386 5,5 l 0,166 c 0,2.761 -2.239,5 -5,5 l -238,0 c -2.7614,0 -5,-2.239 -5,-5 l 0,-166"
         vector-effect="non-scaling-stroke"
         inkscape:connector-curvature="0"
         style="font-size:8.25px;font-style:normal;font-weight:400;fill:#ffffff;fill-opacity:1;fill-rule:evenodd;stroke:none;font-family:MS Shell Dlg 2" />
      <path
         id="path216-7"
         d="m 1705.1973,-828.3564 -25,43 50,0 -25,-43"
         vector-effect="none"
         inkscape:connector-curvature="0"
         style="font-size:8.25px;font-style:normal;font-weight:400;fill:#dcdcdc;fill-opacity:1;fill-rule:evenodd;stroke:#c0c0c0;stroke-width:5;stroke-linecap:round;stroke-linejoin:round;stroke-opacity:1;font-family:MS Shell Dlg 2" />
      <path
         id="path224-9"
         d="m 1613.6973,-736.8564 43,25 0,-50 -43,25"
         vector-effect="none"
         inkscape:connector-curvature="0"
         style="font-size:8.25px;font-style:normal;font-weight:400;fill:#dcdcdc;fill-opacity:1;fill-rule:evenodd;stroke:#c0c0c0;stroke-width:5;stroke-linecap:round;stroke-linejoin:round;stroke-opacity:1;font-family:MS Shell Dlg 2" />
      <path
         id="path232-0"
         d="m 1705.1973,-645.3564 25,-43 -50,0 25,43"
         vector-effect="none"
         inkscape:connector-curvature="0"
         style="font-size:8.25px;font-style:normal;font-weight:400;fill:#dcdcdc;fill-opacity:1;fill-rule:evenodd;stroke:#c0c0c0;stroke-width:5;stroke-linecap:round;stroke-linejoin:round;stroke-opacity:1;font-family:MS Shell Dlg 2" />
      <path
         id="path240-0"
         d="m 1796.6973,-736.8564 -43,-25 0,50 43,-25"
         vector-effect="none"
         inkscape:connector-curvature="0"
         style="font-size:8.25px;font-style:normal;font-weight:400;fill:#dcdcdc;fill-opacity:1;fill-rule:evenodd;stroke:#c0c0c0;stroke-width:5;stroke-linecap:round;stroke-linejoin:round;stroke-opacity:1;font-family:MS Shell Dlg 2" />
      <path
         id="path248-6"
         d="m 1730.1973,-736.8564 c 0,13.8071 -11.1929,25 -25,25 -13.8071,0 -25,-11.1929 -25,-25 0,-13.8071 11.1929,-25 25,-25 13.8071,0 25,11.1929 25,25"
         vector-effect="none"
         inkscape:connector-curvature="0"
         style="font-size:8.25px;font-style:normal;font-weight:400;fill:#dcdcdc;fill-opacity:1;fill-rule:evenodd;stroke:#c0c0c0;stroke-width:5;stroke-linecap:round;stroke-linejoin:round;stroke-opacity:1;font-family:MS Shell Dlg 2" />
    </g>
  </g>
</svg>
