<?xml version="1.0" encoding="utf-8"?>
<!-- Generator: Adobe Illustrator 18.1.1, SVG Export Plug-In . SVG Version: 6.00 Build 0)  -->
<svg version="1.1" xmlns="http://www.w3.org/2000/svg" xmlns:xlink="http://www.w3.org/1999/xlink" x="0px" y="0px"
	 viewBox="0 0 1024 1024" enable-background="new 0 0 1024 1024" xml:space="preserve">
<g id="new" display="none">
	<g display="inline">
		
			<path fill="none" stroke="#C4D8EF" stroke-width="49.3718" stroke-linecap="round" stroke-linejoin="round" stroke-miterlimit="10" d="
			M711.5,941.9v-6.1h-540c-14.3,0-25.9-11.6-25.9-25.9V92.7c0-14.3,11.6-25.9,25.9-25.9h406.9l253.7,253.7l0,393.3h107.4v108.7
			H832.2V910c0,8.9-4.6,17-12,21.7v10.2H711.5z"/>
		<path fill="#155799" d="M825.2,372v538c0,10.4-8.5,18.9-18.9,18.9H171.6c-10.4,0-18.9-8.5-18.9-18.9V92.7
			c0-10.4,8.5-18.9,18.9-18.9H482h93.6l249.6,249.6V372z"/>
		<path fill="#FFFFFF" d="M719.1,323.5H594.5c-10.4,0-18.9-8.5-18.9-18.9v-106V73.9l249.6,249.6H719.1z"/>
		<polygon fill="#124B8B" stroke="#FFFFFF" stroke-width="24.6859" stroke-miterlimit="10" points="932.6,720.9 813.2,720.9 
			813.2,601.6 718.5,601.6 718.5,720.9 599.2,720.9 599.2,815.6 718.5,815.6 718.5,934.9 813.2,934.9 813.2,815.6 932.6,815.6 		"/>
		<polygon fill="#164880" points="599.2,323.5 825.2,323.5 825.2,548.5 		"/>
	</g>
</g>
<g id="open" display="none">
	<g display="inline">
		<path fill="none" stroke="#C4D8EF" stroke-width="42" stroke-linecap="round" stroke-linejoin="round" stroke-miterlimit="10" d="
			M96.1,817.4c-10.8,0-20.2-8.8-20.8-19.6l-28.4-487c-0.5-7.9,1.7-19.9,4.9-27.2l22.1-50.2c4-9.1,14.5-16,24.4-16h177.7
			c9.2,0,20.4,5.5,26,12.9l34,44.7c2.6,3.5,9.3,6.7,13.6,6.7h84.4v-31h-84.3l143.3-143.3l143.3,143.3H552v31h179.6
			c10.7,0,20.3,8.3,21.7,18.9l8.3,59.3h198.9c5.8,0,10.8,2.4,13.9,6.7c3,4.3,3.7,9.8,1.8,15.3L830.5,800.6
			c-3.3,9.5-13.7,16.9-23.7,16.9L96.1,817.4z"/>
		<path fill="#155799" d="M804,809.7c6.8,0,11.6-5.5,10.6-12.2l-69-495.7c-0.9-6.7-7.2-12.2-14-12.2H349.5c-6.8,0-15.7-4.4-19.8-9.8
			l-34-44.7c-4.1-5.4-13-9.8-19.8-9.8H98.2c-6.8,0-14.5,5.1-17.3,11.3l-22.1,50.2c-2.7,6.2-4.6,16.8-4.2,23.6l28.4,487
			c0.4,6.8,6.3,12.3,13,12.3H804z"/>
		<path fill="#124B8B" d="M804,809.7c6.8,0,6.9-1,0.2-2.2l-523-92.5c-6.7-1.2-15.7-6.4-20.2-11.5L76.6,489.1c-4.4-5.2-7.8-3.8-7.5,3
			l14,305.3c0.3,6.8,6.1,12.3,12.9,12.3H804z"/>
		
			<polygon fill="#155799" stroke="#FFFFFF" stroke-width="14.652" stroke-linecap="round" stroke-linejoin="round" stroke-miterlimit="10" points="
			617.4,243 492.9,118.5 368.4,243 441.7,243 441.7,433.8 544.2,433.8 544.2,243 		"/>
		<path fill="#FFFFFF" d="M806.7,809.7c6.8,0,14.2-5.2,16.4-11.6l145.6-418.6c2.2-6.4-1.5-11.7-8.3-11.7H253.6
			c-6.8,0-14,5.3-16.2,11.7L100.4,797.9c-2.1,6.5,1.7,11.7,8.5,11.7H806.7z"/>
	</g>
</g>
<g id="save" display="none">
	<g display="inline">
		
			<rect x="97.8" y="72.1" fill="#155799" stroke="#C4D8EF" stroke-width="37" stroke-linecap="round" stroke-linejoin="round" stroke-miterlimit="10" width="828.3" height="894.6"/>
		<rect x="245.9" y="442" fill="#FFFFFF" width="532.2" height="393.7"/>
		<rect x="282.6" y="92.9" fill="#FFFFFF" width="458.9" height="240.8"/>
		<rect x="441.4" y="92.9" fill="#155799" width="206.6" height="174.3"/>
		<polygon fill="#124B8B" points="489.8,222 489.8,92.9 441.4,92.9 441.4,222 441.4,267.2 489.8,267.2 648,267.2 648,222 		"/>
	</g>
</g>
<g id="saveas" display="none">
	<g display="inline">
		<path fill="none" stroke="#C4D8EF" stroke-width="67" stroke-linecap="round" stroke-linejoin="round" stroke-miterlimit="10" d="
			M972.6,226.8l-78.5-78.4c-2.5-2.5-6.6-2.5-9.2,0L767.5,265.8V119.3h-718v775.5h718V441l205.1-205.1
			C975.1,233.4,975.1,229.3,972.6,226.8z"/>
		<rect x="49.5" y="119.3" fill="#155799" width="718" height="775.5"/>
		<rect x="166.6" y="436.6" fill="#FFFFFF" width="483.8" height="357.9"/>
		<rect x="199.9" y="119.3" fill="#FFFFFF" width="417.2" height="218.9"/>
		<rect x="344.3" y="119.3" fill="#155799" width="187.9" height="158.5"/>
		<path fill="#155799" d="M531.2,677.3c-2.5,2.5-6.6,2.5-9.2,0l-78.5-78.5c-2.5-2.5-2.5-6.6,0-9.2L885,148.4c2.5-2.5,6.6-2.5,9.2,0
			l78.5,78.4c2.5,2.5,2.5,6.6,0,9.2L531.2,677.3z"/>
		<path fill="#155799" d="M505.9,693.5c2.5,2.5,1.8,5.3-1.7,6.3l-104.5,28c-3.4,0.9-5.5-1.1-4.6-4.6l28-104.5
			c0.9-3.4,3.7-4.2,6.3-1.7L505.9,693.5z"/>
		<polygon fill="#124B8B" points="650.4,558.1 767.5,441 767.5,499.3 650.4,615.5 		"/>
		<polygon fill="#124B8B" points="388.5,235.4 388.5,119.3 344.3,119.3 344.3,235.4 344.3,276.8 344.3,277.7 532.1,277.7 
			532.1,235.4 		"/>
	</g>
</g>
<g id="undo" display="none">
	<g display="inline">
		
			<path fill="#155799" stroke="#C4D8EF" stroke-width="34" stroke-linecap="round" stroke-linejoin="round" stroke-miterlimit="10" d="
			M974.2,506.7c0-249.1-201.9-451-451-451s-451,201.9-451,451c0,249.1,201.9,451,451,451S974.2,755.7,974.2,506.7"/>
		<g>
			<path fill="#124B8B" d="M761.4,767l-85.2-85.2c68-68,68-178.6,0-246.6c-68-68-178.6-67.9-246.6,0l-85.2-85.3
				c115-114.9,302-115,417,0C876.4,464.9,876.4,652,761.4,767z"/>
		</g>
		<path fill="#FFFFFF" d="M720.6,330.5c-104.4-104.4-271.2-108.6-381-13.3l-73.3-73.3l0.1,209l208.9,0l-71.8-71.8
			c74.3-60.2,184-55.8,253.1,13.3c73.9,73.9,73.9,194,0,267.9l63.9,63.9C829.7,617.1,829.7,439.6,720.6,330.5z"/>
	</g>
</g>
<g id="redo" display="none">
	<g display="inline">
		
			<path fill="#155799" stroke="#C4D8EF" stroke-width="34" stroke-linecap="round" stroke-linejoin="round" stroke-miterlimit="10" d="
			M63.2,506.7c0-249.1,201.9-451,451-451s451,201.9,451,451c0,249.1-201.9,451-451,451S63.2,755.7,63.2,506.7"/>
		<g>
			<path fill="#124B8B" d="M276,767l85.2-85.2c-68-68-68-178.6,0-246.6c68-68,178.6-67.9,246.6,0l85.2-85.3
				c-115-114.9-302-115-417,0C161,464.9,161,652,276,767z"/>
		</g>
		<path fill="#FFFFFF" d="M316.8,330.5c104.4-104.4,271.2-108.6,381-13.3l73.3-73.3l-0.1,209l-208.9,0l71.8-71.8
			c-74.3-60.2-184-55.8-253.1,13.3c-73.9,73.9-73.9,194,0,267.9l-63.9,63.9C207.6,617.1,207.6,439.6,316.8,330.5z"/>
	</g>
</g>
<g id="play">
	<g>
		<path fill="#DCDCDC" d="M67.2,517.3c0-251.6,203.9-455.5,455.5-455.5c251.6,0,455.5,203.9,455.5,455.5
			c0,251.6-204,455.5-455.5,455.5C271.1,972.9,67.2,768.9,67.2,517.3"/>
		<path fill="#155799" d="M56.5,506.6c0-251.6,203.9-455.5,455.5-455.5c251.6,0,455.5,203.9,455.5,455.5
			c0,251.6-204,455.5-455.5,455.5C260.4,962.2,56.5,758.2,56.5,506.6"/>
		<polygon fill="#124B8B" points="358.5,266.1 821.3,533.2 358.5,800.4 		"/>
		<polygon fill="#FFFFFF" points="343.8,251.4 806.6,518.5 343.8,785.7 		"/>
	</g>
</g>
<g id="stop" display="none">
</g>
<g id="advanced" display="none">
	<g display="inline">
		<circle fill="#DCDCDC" cx="524.1" cy="521.6" r="472"/>
		
			<circle fill="#F1F1F2" stroke="#5E80BF" stroke-width="20" stroke-linecap="round" stroke-miterlimit="10" cx="512" cy="502.4" r="472"/>
		<g>
			<polygon fill="#5675AF" points="262.6,322.2 521.2,204.4 782.4,306.9 532.6,401.2 			"/>
			<path fill="#5675AF" d="M521.2,660.8c0,0,69,2.3,112.6-34.4c62-2.3,110.2,112.4,105.6,153.8c-57.4,27.5-218.1,32.4-218.1,32.4
				s-160.8-4.9-218.1-32.4c-4.6-41.3,43.6-156.1,105.6-153.8C452.3,663.1,521.2,660.8,521.2,660.8"/>
			<path fill="#5675AF" d="M534.2,444.1l-154.1-45.1c-3.8,15-6.5,30.5-6.5,46.9c0,92.9,66.1,168.2,147.7,168.2S669,538.7,669,445.8
				c0-17.5-3-34-7.3-49.8L534.2,444.1z"/>
			<polygon fill="#5675AF" points="750.4,532.6 731.1,505.5 711.9,543.4 711.9,377.8 750.4,362.8 			"/>
		</g>
		<g>
			<polygon fill="#5E80BF" points="252.1,316 510.7,198.3 771.9,300.8 522.1,395.1 			"/>
			<path fill="#5E80BF" d="M510.7,654.7c0,0,69,2.3,112.6-34.4c62-2.3,110.2,112.4,105.6,153.8c-57.4,27.5-218.1,32.4-218.1,32.4
				s-160.8-4.9-218.1-32.4C288,732.7,336.2,618,398.1,620.3C441.7,657,510.7,654.7,510.7,654.7"/>
			<path fill="#5E80BF" d="M523.7,438l-154.1-45.1c-3.8,15-6.5,30.5-6.5,46.9c0,92.9,66.1,168.2,147.7,168.2s147.7-75.3,147.7-168.2
				c0-17.5-3-34-7.3-49.8L523.7,438z"/>
			<polygon fill="#5E80BF" points="739.8,526.5 720.6,499.4 701.3,537.3 701.3,371.7 739.8,356.6 			"/>
		</g>
	</g>
</g>
<g id="cadre" display="none">
	<path display="inline" fill="#F1F1F2" stroke="#FFFFFF" stroke-width="8.794" stroke-miterlimit="10" d="M947.8,730.8H76.2
		c-23.4,0-42.4-19-42.4-42.4V335.7c0-23.4,19-42.5,42.4-42.5h871.6c23.4,0,42.5,19,42.5,42.5v352.6
		C990.3,711.8,971.3,730.8,947.8,730.8z"/>
</g>
<g id="screenshot" display="none">
	<g display="inline">
		<path fill="none" stroke="#C4D8EF" stroke-width="35" stroke-linecap="round" stroke-linejoin="round" stroke-miterlimit="10" d="
			M37.2,509.3C37.2,247.1,249.8,34.6,512,34.6s474.8,212.6,474.8,474.8c0,262.2-212.6,474.8-474.8,474.8S37.2,771.5,37.2,509.3"/>
		<path fill="#155799" d="M55.1,514.1C52.5,261.7,254.9,55,507.3,52.4c252.3-2.6,459,199.8,461.7,452.2
			c2.6,252.3-199.8,459-452.2,461.7S57.7,766.4,55.1,514.1"/>
		<g>
			<path fill="#124B8B" d="M533,404.4c-84.4,0.9-152.4,70.3-151.5,154.7c0.9,84.5,70.3,152.4,154.7,151.5
				c84.4-0.9,152.5-70.3,151.6-154.7C687,471.5,617.5,403.6,533,404.4z M536.1,695.1C460.3,695.9,398,634.8,397.2,559
				c-0.8-75.8,60.2-138.1,136-138.9c75.9-0.8,138.2,60.3,139,136.1C673,632,611.9,694.3,536.1,695.1z"/>
			<path fill="#124B8B" d="M533.6,460.3c-53.5,0.6-96.7,44.6-96.1,98.2c0.6,53.6,44.6,96.8,98.1,96.2c53.7-0.6,96.8-44.6,96.3-98.3
				C631.4,503,587.3,459.8,533.6,460.3z"/>
			<path fill="#124B8B" d="M774.9,327.6l-0.2-19.5c-0.2-22.2-18.5-40.1-40.7-39.8l-51.4,0.5c-22.1,0.2-40.1,18.5-39.8,40.7l0.2,18.3
				l-341.3,3.5c-35.9,0.4-64.7,29.8-64.4,65.7l3.2,311.9c0.4,35.9,29.8,64.7,65.7,64.4l461.2-4.8c35.9-0.4,64.7-29.8,64.4-65.7
				l-3.2-311.9C828.3,359.1,805.2,333,774.9,327.6z M536.4,732c-96.2,1-175.2-76.5-176.2-172.6c-1-96.2,76.4-175.3,172.6-176.3
				c96.2-1,175.3,76.4,176.3,172.6C710.2,651.9,632.7,731,536.4,732z"/>
		</g>
		<g>
			<path fill="#FFFFFF" d="M510.6,382.5c-84.4,0.9-152.4,70.3-151.5,154.7c0.9,84.5,70.3,152.4,154.7,151.5
				c84.4-0.9,152.5-70.3,151.6-154.7C664.5,449.6,595.1,381.6,510.6,382.5z M513.6,673.1c-75.8,0.8-138.1-60.3-138.9-136.1
				c-0.8-75.8,60.2-138.1,136-138.9c75.9-0.8,138.2,60.3,139,136.1C650.6,610,589.5,672.3,513.6,673.1z"/>
			<path fill="#FFFFFF" d="M511.2,438.4c-53.5,0.6-96.7,44.6-96.1,98.2c0.6,53.6,44.6,96.8,98.1,96.2c53.7-0.6,96.8-44.6,96.3-98.3
				C608.9,481,564.9,437.8,511.2,438.4z"/>
			<path fill="#FFFFFF" d="M752.5,305.7l-0.2-19.5c-0.2-22.2-18.5-40.1-40.7-39.8l-51.4,0.5c-22.1,0.2-40.1,18.5-39.8,40.7l0.2,18.3
				l-341.3,3.5c-35.9,0.4-64.7,29.8-64.4,65.7l3.2,311.9c0.4,35.9,29.8,64.7,65.7,64.4l461.2-4.8c35.9-0.4,64.7-29.8,64.4-65.7
				l-3.2-311.9C805.9,337.1,782.7,311,752.5,305.7z M514,710c-96.2,1-175.2-76.5-176.2-172.6c-1-96.2,76.4-175.3,172.6-176.3
				c96.2-1,175.3,76.4,176.3,172.6C687.7,630,610.2,709,514,710z"/>
		</g>
	</g>
</g>
<g id="info" display="none">
	<g display="inline">
		<path fill="none" stroke="#C4D8EF" stroke-width="35" stroke-linecap="round" stroke-linejoin="round" stroke-miterlimit="10" d="
			M37.2,502C37.2,239.8,249.8,27.2,512,27.2S986.8,239.8,986.8,502c0,262.2-212.6,474.8-474.8,474.8S37.2,764.2,37.2,502"/>
		<path fill="#155799" d="M56,506.7C53.4,255.4,255.1,49.6,506.4,47s457.1,199,459.7,450.3c2.6,251.3-199,457.2-450.3,459.8
			C264.5,959.7,58.7,758,56,506.7"/>
		<g>
			<path fill="#124B8B" d="M488.5,388.9h71.4c1.7,0,3.1,1.4,3.1,3.1v385.1c0,1.7-1.4,3.1-3.1,3.1h-71.4c-1.7,0-3.1-1.4-3.1-3.1V392
				C485.4,390.3,486.8,388.9,488.5,388.9z"/>
			<circle fill="#124B8B" cx="525.1" cy="289.3" r="43.1"/>
		</g>
		<g>
			<path fill="#FFFFFF" d="M475.4,375.8h71.4c1.7,0,3.1,1.4,3.1,3.1v383.2c0,1.7-1.4,3.1-3.1,3.1h-71.4c-1.7,0-3.1-1.4-3.1-3.1
				V378.9C472.2,377.2,473.6,375.8,475.4,375.8z"/>
			<circle fill="#FFFFFF" cx="512" cy="276.2" r="43.1"/>
		</g>
	</g>
</g>
<g id="success" display="none">
	<path display="inline" fill="#4DB748" d="M870.3,151.2C770.7,51.6,640.2,1.8,509.7,1.8s-261,49.7-360.6,149.3
		C-50,350.3-50,673.3,149.1,872.4c99.6,99.5,230.1,149.3,360.6,149.3s261-49.8,360.6-149.3C1069.5,673.3,1069.5,350.3,870.3,151.2z
		 M814,816c-81.3,81.3-189.3,126-304.3,126s-223-44.8-304.3-126c-167.7-167.8-167.7-440.7,0-608.5c81.3-81.3,189.3-126,304.3-126
		s223,44.8,304.3,126C981.7,375.3,981.7,648.3,814,816z"/>
	<polygon display="inline" fill="#4DB748" points="439.9,575.8 311.5,445.3 218.5,538.4 218.5,538.3 437.6,757.5 807.9,387.2 
		723.3,301.2 	"/>
</g>
</svg>
