<?xml version="1.0" encoding="UTF-8" standalone="no"?>
<svg
   xmlns:dc="http://purl.org/dc/elements/1.1/"
   xmlns:cc="http://creativecommons.org/ns#"
   xmlns:rdf="http://www.w3.org/1999/02/22-rdf-syntax-ns#"
   xmlns:svg="http://www.w3.org/2000/svg"
   xmlns="http://www.w3.org/2000/svg"
   id="svg2"
   xml:space="preserve"
   enable-background="new 0 0 1024 1024"
   viewBox="0 0 1024 1024"
   y="0px"
   x="0px"
   version="1.1"><metadata
     id="metadata367"><rdf:RDF><cc:Work
         rdf:about=""><dc:format>image/svg+xml</dc:format><dc:type
           rdf:resource="http://purl.org/dc/dcmitype/StillImage" /><dc:title></dc:title></cc:Work></rdf:RDF></metadata><defs
     id="defs365" /><g
     id="studio_x5F_th"><g
       id="g14"><path
         id="path16"
         d="M1010,0H14C6.3,0,0,6.3,0,14v996c0,7.7,6.3,14,14,14h996c7.7,0,14-6.3,14-14V14C1024,6.3,1017.7,0,1010,0z    "
         fill="#1E94D2" /><radialGradient
         gradientUnits="userSpaceOnUse"
         gradientTransform="matrix(0.8026 0.5965 -0.3986 0.5364 115.0824 -102.5136)"
         r="974.9282"
         cy="147.0305"
         cx="286.1463"
         id="SVGID_1_"><stop
           id="stop19"
           style="stop-color:#000000"
           offset="0.3551" /><stop
           id="stop21"
           style="stop-color:#050505;stop-opacity:0.8921"
           offset="0.4246" /><stop
           id="stop23"
           style="stop-color:#131313;stop-opacity:0.7684"
           offset="0.5044" /><stop
           id="stop25"
           style="stop-color:#2A2A2A;stop-opacity:0.6368"
           offset="0.5893" /><stop
           id="stop27"
           style="stop-color:#4A4A4A;stop-opacity:0.4995"
           offset="0.6778" /><stop
           id="stop29"
           style="stop-color:#737373;stop-opacity:0.3581"
           offset="0.7691" /><stop
           id="stop31"
           style="stop-color:#A6A6A6;stop-opacity:0.2129"
           offset="0.8627" /><stop
           id="stop33"
           style="stop-color:#E1E1E1;stop-opacity:6.760967e-02"
           offset="0.9564" /><stop
           id="stop35"
           style="stop-color:#FFFFFF;stop-opacity:0"
           offset="1" /></radialGradient><path
         id="path37"
         d="M512,1024h498c7.7,0,14-6.3,14-14V572.7L810.6,369.6l-549.2,28.7l-59.8,204.3    L512,1024z"
         fill="url(#SVGID_1_)"
         opacity="0.57" /><g
         id="g39"><path
           id="path41"
           d="M261.5,545.9c0-59.9,48.6-108.5,108.5-108.5c60,0,108.5,48.6,108.5,108.5c0,59.9-48.6,108.5-108.5,108.5     C310,654.4,261.5,605.8,261.5,545.9z"
           fill="#FFFFFF" /><path
           id="path43"
           d="M810.6,369.6h-11.4H498.3H222.9c-11.7,0-21.3,9.6-21.3,21.3v190.4c0,11.7,9.6,21.3,21.3,21.3h16v-56.7     c0-72.4,58.7-131.1,131.1-131.1c72.4,0,131.1,58.7,131.1,131.1v56.7h164.3h133.9h11.4c6.5,0.3,11.8-4.9,11.8-11.4V381.4     C822.4,374.9,817.1,369.6,810.6,369.6z"
           fill="#FFFFFF" /></g></g></g></svg>