<?xml version="1.0" encoding="UTF-8" standalone="no"?>
<svg
   xmlns:dc="http://purl.org/dc/elements/1.1/"
   xmlns:cc="http://creativecommons.org/ns#"
   xmlns:rdf="http://www.w3.org/1999/02/22-rdf-syntax-ns#"
   xmlns:svg="http://www.w3.org/2000/svg"
   xmlns="http://www.w3.org/2000/svg"
   id="svg2"
   xml:space="preserve"
   enable-background="new 0 0 1024 1024"
   viewBox="0 0 1024 1024"
   y="0px"
   x="0px"
   version="1.1"><metadata
     id="metadata367"><rdf:RDF><cc:Work
         rdf:about=""><dc:format>image/svg+xml</dc:format><dc:type
           rdf:resource="http://purl.org/dc/dcmitype/StillImage" /><dc:title></dc:title></cc:Work></rdf:RDF></metadata><defs
     id="defs365" /><g
     id="challenge"><g
       id="g238"><path
         id="path240"
         d="M1010,0H14C6.3,0,0,6.3,0,14v996c0,7.7,6.3,14,14,14h996c7.7,0,14-6.3,14-14V14C1024,6.3,1017.7,0,1010,0z    "
         fill="#1E94D2" /><g
         id="g242"><path
           id="path244"
           d="M227.6,230.4c-43.7,43.7-43.7,114.6,0,158.4l547.3,547.3l139.3-139.3l-247-247     c-19.7-19.7-30.5-44.9-32.4-70.6L386,230.4C342.3,186.7,271.4,186.7,227.6,230.4z"
           fill="#1E94D2" /><linearGradient
           y2="543.6476"
           x2="531.5665"
           y1="31.5401"
           x1="62.5334"
           gradientUnits="userSpaceOnUse"
           id="SVGID_9_"><stop
             id="stop247"
             style="stop-color:#000000"
             offset="0.3551" /><stop
             id="stop249"
             style="stop-color:#050505;stop-opacity:0.8921"
             offset="0.4246" /><stop
             id="stop251"
             style="stop-color:#131313;stop-opacity:0.7684"
             offset="0.5044" /><stop
             id="stop253"
             style="stop-color:#2A2A2A;stop-opacity:0.6368"
             offset="0.5893" /><stop
             id="stop255"
             style="stop-color:#4A4A4A;stop-opacity:0.4995"
             offset="0.6778" /><stop
             id="stop257"
             style="stop-color:#737373;stop-opacity:0.3581"
             offset="0.7691" /><stop
             id="stop259"
             style="stop-color:#A6A6A6;stop-opacity:0.2129"
             offset="0.8627" /><stop
             id="stop261"
             style="stop-color:#E1E1E1;stop-opacity:6.760967e-02"
             offset="0.9564" /><stop
             id="stop263"
             style="stop-color:#FFFFFF;stop-opacity:0"
             offset="1" /></linearGradient><path
           id="path265"
           d="M227.6,230.4c-43.7,43.7-43.7,114.6,0,158.4l547.3,547.3l139.3-139.3l-247-247     c-19.7-19.7-30.5-44.9-32.4-70.6L386,230.4C342.3,186.7,271.4,186.7,227.6,230.4z"
           fill="url(#SVGID_9_)"
           opacity="0.57" /><path
           id="path267"
           d="M227.6,637.1c-43.7,43.7-43.7,114.6,0,158.4L456.1,1024h316.7L386,637.1     C342.3,593.4,271.4,593.4,227.6,637.1z"
           fill="#1E94D2" /><linearGradient
           y2="947.4703"
           x2="534.7242"
           y1="435.3628"
           x1="65.6911"
           gradientUnits="userSpaceOnUse"
           id="SVGID_10_"><stop
             id="stop270"
             style="stop-color:#000000"
             offset="0.3551" /><stop
             id="stop272"
             style="stop-color:#050505;stop-opacity:0.8921"
             offset="0.4246" /><stop
             id="stop274"
             style="stop-color:#131313;stop-opacity:0.7684"
             offset="0.5044" /><stop
             id="stop276"
             style="stop-color:#2A2A2A;stop-opacity:0.6368"
             offset="0.5893" /><stop
             id="stop278"
             style="stop-color:#4A4A4A;stop-opacity:0.4995"
             offset="0.6778" /><stop
             id="stop280"
             style="stop-color:#737373;stop-opacity:0.3581"
             offset="0.7691" /><stop
             id="stop282"
             style="stop-color:#A6A6A6;stop-opacity:0.2129"
             offset="0.8627" /><stop
             id="stop284"
             style="stop-color:#E1E1E1;stop-opacity:6.760967e-02"
             offset="0.9564" /><stop
             id="stop286"
             style="stop-color:#FFFFFF;stop-opacity:0"
             offset="1" /></linearGradient><path
           id="path288"
           d="M227.6,637.1c-43.7,43.7-43.7,114.6,0,158.4L456.1,1024h316.7L386,637.1     C342.3,593.4,271.4,593.4,227.6,637.1z"
           fill="url(#SVGID_10_)"
           opacity="0.57" /><path
           id="path290"
           d="M825.6,391.4c-43.7-43.7-114.6-43.7-158.4,0c-24.1,24.1-34.9,56.3-32.4,87.8l298.5,298.5l-19.1,19.1     L1024,906.6V589.8L825.6,391.4z"
           fill="#1E94D2" /><linearGradient
           y2="700.5038"
           x2="975.7084"
           y1="188.3963"
           x1="506.6754"
           gradientUnits="userSpaceOnUse"
           id="SVGID_11_"><stop
             id="stop293"
             style="stop-color:#000000"
             offset="0.3551" /><stop
             id="stop295"
             style="stop-color:#050505;stop-opacity:0.8921"
             offset="0.4246" /><stop
             id="stop297"
             style="stop-color:#131313;stop-opacity:0.7684"
             offset="0.5044" /><stop
             id="stop299"
             style="stop-color:#2A2A2A;stop-opacity:0.6368"
             offset="0.5893" /><stop
             id="stop301"
             style="stop-color:#4A4A4A;stop-opacity:0.4995"
             offset="0.6778" /><stop
             id="stop303"
             style="stop-color:#737373;stop-opacity:0.3581"
             offset="0.7691" /><stop
             id="stop305"
             style="stop-color:#A6A6A6;stop-opacity:0.2129"
             offset="0.8627" /><stop
             id="stop307"
             style="stop-color:#E1E1E1;stop-opacity:6.760967e-02"
             offset="0.9564" /><stop
             id="stop309"
             style="stop-color:#FFFFFF;stop-opacity:0"
             offset="1" /></linearGradient><path
           id="path311"
           d="M825.6,391.4c-43.7-43.7-114.6-43.7-158.4,0c-24.1,24.1-34.9,56.3-32.4,87.8     l298.5,298.5l-19.1,19.1L1024,906.6V589.8L825.6,391.4z"
           fill="url(#SVGID_11_)"
           opacity="0.57" /><path
           id="path313"
           d="M914.2,796.8l19.1-19.1L634.8,479.2c2,25.7,12.8,50.9,32.4,70.6L914.2,796.8z"
           fill="#1E94D2" /><linearGradient
           y2="464.6416"
           x2="617.8281"
           y1="-47.4659"
           x1="148.7951"
           gradientUnits="userSpaceOnUse"
           id="SVGID_12_"><stop
             id="stop316"
             style="stop-color:#000000"
             offset="0.3551" /><stop
             id="stop318"
             style="stop-color:#050505;stop-opacity:0.8921"
             offset="0.4246" /><stop
             id="stop320"
             style="stop-color:#131313;stop-opacity:0.7684"
             offset="0.5044" /><stop
             id="stop322"
             style="stop-color:#2A2A2A;stop-opacity:0.6368"
             offset="0.5893" /><stop
             id="stop324"
             style="stop-color:#4A4A4A;stop-opacity:0.4995"
             offset="0.6778" /><stop
             id="stop326"
             style="stop-color:#737373;stop-opacity:0.3581"
             offset="0.7691" /><stop
             id="stop328"
             style="stop-color:#A6A6A6;stop-opacity:0.2129"
             offset="0.8627" /><stop
             id="stop330"
             style="stop-color:#E1E1E1;stop-opacity:6.760967e-02"
             offset="0.9564" /><stop
             id="stop332"
             style="stop-color:#FFFFFF;stop-opacity:0"
             offset="1" /></linearGradient><path
           id="path334"
           d="M914.2,796.8l19.1-19.1L634.8,479.2c2,25.7,12.8,50.9,32.4,70.6L914.2,796.8z"
           fill="url(#SVGID_12_)"
           opacity="0.57" /><linearGradient
           y2="771.1594"
           x2="898.564"
           y1="259.0519"
           x1="429.531"
           gradientUnits="userSpaceOnUse"
           id="SVGID_13_"><stop
             id="stop337"
             style="stop-color:#000000"
             offset="0.3551" /><stop
             id="stop339"
             style="stop-color:#050505;stop-opacity:0.8921"
             offset="0.4246" /><stop
             id="stop341"
             style="stop-color:#131313;stop-opacity:0.7684"
             offset="0.5044" /><stop
             id="stop343"
             style="stop-color:#2A2A2A;stop-opacity:0.6368"
             offset="0.5893" /><stop
             id="stop345"
             style="stop-color:#4A4A4A;stop-opacity:0.4995"
             offset="0.6778" /><stop
             id="stop347"
             style="stop-color:#737373;stop-opacity:0.3581"
             offset="0.7691" /><stop
             id="stop349"
             style="stop-color:#A6A6A6;stop-opacity:0.2129"
             offset="0.8627" /><stop
             id="stop351"
             style="stop-color:#E1E1E1;stop-opacity:6.760967e-02"
             offset="0.9564" /><stop
             id="stop353"
             style="stop-color:#FFFFFF;stop-opacity:0"
             offset="1" /></linearGradient><path
           id="path355"
           d="M914.2,796.8l19.1-19.1L634.8,479.2c2,25.7,12.8,50.9,32.4,70.6L914.2,796.8z"
           fill="url(#SVGID_13_)"
           opacity="0.57" /></g><circle
         id="circle357"
         r="111"
         cy="469.7"
         cx="745.5"
         fill="#FFFFFF" /><circle
         id="circle359"
         r="111"
         cy="308.6"
         cx="305.9"
         fill="#FFFFFF" /><circle
         id="circle361"
         r="111"
         cy="715.4"
         cx="305.9"
         fill="#FFFFFF" /></g></g></svg>