<?xml version="1.0" encoding="UTF-8" standalone="no"?>
<svg
   xmlns:dc="http://purl.org/dc/elements/1.1/"
   xmlns:cc="http://creativecommons.org/ns#"
   xmlns:rdf="http://www.w3.org/1999/02/22-rdf-syntax-ns#"
   xmlns:svg="http://www.w3.org/2000/svg"
   xmlns="http://www.w3.org/2000/svg"
   id="svg2"
   xml:space="preserve"
   enable-background="new 0 0 1024 1024"
   viewBox="0 0 1024 1024"
   y="0px"
   x="0px"
   version="1.1"><metadata
     id="metadata437"><rdf:RDF><cc:Work
         rdf:about=""><dc:format>image/svg+xml</dc:format><dc:type
           rdf:resource="http://purl.org/dc/dcmitype/StillImage" /><dc:title></dc:title></cc:Work></rdf:RDF></metadata><defs
     id="defs435" /><g
     id="Layer_7"><path
       id="path364"
       d="M1003.5,6.7H20.5c-7.6,0-13.8,6.2-13.8,13.8v982.9c0,7.6,6.2,13.8,13.8,13.8h982.9   c7.6,0,13.8-6.2,13.8-13.8V20.6C1017.3,12.9,1011.1,6.7,1003.5,6.7z"
       fill="#1E94D2" /><linearGradient
       y2="956.4738"
       x2="680.0667"
       y1="561.4757"
       x1="318.2927"
       gradientUnits="userSpaceOnUse"
       id="SVGID_14_"><stop
         id="stop367"
         style="stop-color:#000000"
         offset="0.3551" /><stop
         id="stop369"
         style="stop-color:#050505;stop-opacity:0.8921"
         offset="0.4246" /><stop
         id="stop371"
         style="stop-color:#131313;stop-opacity:0.7684"
         offset="0.5044" /><stop
         id="stop373"
         style="stop-color:#2A2A2A;stop-opacity:0.6368"
         offset="0.5893" /><stop
         id="stop375"
         style="stop-color:#4A4A4A;stop-opacity:0.4995"
         offset="0.6778" /><stop
         id="stop377"
         style="stop-color:#737373;stop-opacity:0.3581"
         offset="0.7691" /><stop
         id="stop379"
         style="stop-color:#A6A6A6;stop-opacity:0.2129"
         offset="0.8627" /><stop
         id="stop381"
         style="stop-color:#E1E1E1;stop-opacity:6.760967e-02"
         offset="0.9564" /><stop
         id="stop383"
         style="stop-color:#FFFFFF;stop-opacity:0"
         offset="1" /></linearGradient><path
       id="path385"
       d="M436.4,723.3c-24.9,24.9-24.9,65.2,0,90L674,1024h180.5L526.5,723.3   C501.6,698.4,461.3,698.4,436.4,723.3z"
       fill="url(#SVGID_14_)"
       opacity="0.57" /><linearGradient
       y2="652.551"
       x2="854.1509"
       y1="102.551"
       x1="72.1509"
       gradientUnits="userSpaceOnUse"
       id="SVGID_15_"><stop
         id="stop388"
         style="stop-color:#000000"
         offset="0.3551" /><stop
         id="stop390"
         style="stop-color:#050505;stop-opacity:0.8921"
         offset="0.4246" /><stop
         id="stop392"
         style="stop-color:#131313;stop-opacity:0.7684"
         offset="0.5044" /><stop
         id="stop394"
         style="stop-color:#2A2A2A;stop-opacity:0.6368"
         offset="0.5893" /><stop
         id="stop396"
         style="stop-color:#4A4A4A;stop-opacity:0.4995"
         offset="0.6778" /><stop
         id="stop398"
         style="stop-color:#737373;stop-opacity:0.3581"
         offset="0.7691" /><stop
         id="stop400"
         style="stop-color:#A6A6A6;stop-opacity:0.2129"
         offset="0.8627" /><stop
         id="stop402"
         style="stop-color:#E1E1E1;stop-opacity:6.760967e-02"
         offset="0.9564" /><stop
         id="stop404"
         style="stop-color:#FFFFFF;stop-opacity:0"
         offset="1" /></linearGradient><polygon
       id="polygon406"
       points="624.3,231.4 1044.3,551.4 1055.1,1053.4 450.4,605 523.8,465.4    621.1,345.4  "
       fill="url(#SVGID_15_)"
       opacity="0.57" /><linearGradient
       y2="319.727"
       x2="495.6858"
       y1="178.179"
       x1="294.4302"
       gradientUnits="userSpaceOnUse"
       id="SVGID_16_"><stop
         id="stop409"
         style="stop-color:#000000"
         offset="0.3551" /><stop
         id="stop411"
         style="stop-color:#050505;stop-opacity:0.8921"
         offset="0.4246" /><stop
         id="stop413"
         style="stop-color:#131313;stop-opacity:0.7684"
         offset="0.5044" /><stop
         id="stop415"
         style="stop-color:#2A2A2A;stop-opacity:0.6368"
         offset="0.5893" /><stop
         id="stop417"
         style="stop-color:#4A4A4A;stop-opacity:0.4995"
         offset="0.6778" /><stop
         id="stop419"
         style="stop-color:#737373;stop-opacity:0.3581"
         offset="0.7691" /><stop
         id="stop421"
         style="stop-color:#A6A6A6;stop-opacity:0.2129"
         offset="0.8627" /><stop
         id="stop423"
         style="stop-color:#E1E1E1;stop-opacity:6.760967e-02"
         offset="0.9564" /><stop
         id="stop425"
         style="stop-color:#FFFFFF;stop-opacity:0"
         offset="1" /></linearGradient><polygon
       id="polygon427"
       points="369.3,306.9 528,426.3 611.1,332.4 512,247.4  "
       fill="url(#SVGID_16_)"
       opacity="0.57" /><g
       id="g429"><path
         id="path431"
         d="M335.6,255.1c9.8-8.7,20.7-17,32.4-24.8c11.7-7.8,24.4-14.6,38-20.4c13.6-5.8,28.4-10.4,44.3-13.7    c15.9-3.3,33.2-5,51.7-5c25.2,0,48.2,3.5,68.9,10.4c20.7,7,38.5,16.9,53.3,29.8c14.8,12.9,26.2,28.5,34.3,46.7    c8.1,18.3,12.2,38.7,12.2,61.3c0,22-3.2,41.1-9.6,57.2c-6.4,16.1-14.4,30.1-24.1,42c-9.7,11.9-20.2,22.2-31.5,30.9    c-11.3,8.7-22,16.9-32.2,24.6c-10.1,7.7-18.9,15.2-26.3,22.6c-7.4,7.4-11.8,15.7-13.3,25l-10,63.5h-73.5l-7.4-70.9    c-0.3-1.4-0.4-2.7-0.4-3.7c0-1,0-2.2,0-3.7c0-12.8,3.2-23.8,9.6-33.3c6.4-9.4,14.3-18.3,23.9-26.5c9.6-8.3,19.8-16.3,30.9-24.1    c11-7.8,21.3-16.3,30.9-25.4c9.6-9.1,17.5-19.5,23.9-31.1c6.4-11.6,9.6-25.2,9.6-40.9c0-10.4-2-19.8-5.9-28    c-3.9-8.3-9.3-15.4-16.3-21.3c-7-5.9-15.3-10.5-25-13.7c-9.7-3.2-20.2-4.8-31.5-4.8c-16.5,0-30.5,1.8-42,5.4    c-11.5,3.6-21.2,7.7-29.1,12.2c-8,4.5-14.7,8.6-20.2,12.2c-5.5,3.6-10.4,5.4-14.8,5.4c-10.4,0-18-4.4-22.6-13L335.6,255.1z     M417.8,767.6c0-9,1.7-17.5,5-25.7c3.3-8.1,8-15.1,13.9-20.9c5.9-5.8,13-10.4,21.1-13.9c8.1-3.5,16.8-5.2,26.1-5.2    c9,0,17.5,1.7,25.7,5.2c8.1,3.5,15.1,8.1,20.9,13.9c5.8,5.8,10.4,12.8,13.9,20.9c3.5,8.1,5.2,16.7,5.2,25.7    c0,9.3-1.7,17.9-5.2,25.9c-3.5,8-8.1,14.9-13.9,20.7c-5.8,5.8-12.8,10.4-20.9,13.7c-8.1,3.3-16.7,5-25.7,5c-9.3,0-18-1.7-26.1-5    c-8.1-3.3-15.1-7.9-21.1-13.7c-5.9-5.8-10.6-12.7-13.9-20.7C419.4,785.5,417.8,776.9,417.8,767.6z"
         fill="#FFFFFF" /></g></g></svg>