<?xml version="1.0" encoding="UTF-8" standalone="no"?>
<svg
   xmlns:dc="http://purl.org/dc/elements/1.1/"
   xmlns:cc="http://creativecommons.org/ns#"
   xmlns:rdf="http://www.w3.org/1999/02/22-rdf-syntax-ns#"
   xmlns:svg="http://www.w3.org/2000/svg"
   xmlns="http://www.w3.org/2000/svg"
   id="svg2"
   xml:space="preserve"
   enable-background="new 0 0 1024 1024"
   viewBox="0 0 1024 1024"
   y="0px"
   x="0px"
   version="1.1"><metadata
     id="metadata367"><rdf:RDF><cc:Work
         rdf:about=""><dc:format>image/svg+xml</dc:format><dc:type
           rdf:resource="http://purl.org/dc/dcmitype/StillImage" /><dc:title></dc:title></cc:Work></rdf:RDF></metadata><defs
     id="defs365" /><g
     id="studio"><g
       id="g46"><path
         id="path48"
         d="M1010,0H14C6.3,0,0,6.3,0,14v996c0,7.7,6.3,14,14,14h996c7.7,0,14-6.3,14-14V14C1024,6.3,1017.7,0,1010,0z    "
         fill="#1E94D2" /><radialGradient
         gradientUnits="userSpaceOnUse"
         gradientTransform="matrix(0.9805 0.1964 -0.1129 0.5636 54.943 178.2164)"
         fy="-110.2276"
         fx="-266.0775"
         r="696.0975"
         cy="465.0171"
         cx="125.8987"
         id="SVGID_2_"><stop
           id="stop51"
           style="stop-color:#000000"
           offset="0.3551" /><stop
           id="stop53"
           style="stop-color:#050505;stop-opacity:0.8921"
           offset="0.4246" /><stop
           id="stop55"
           style="stop-color:#131313;stop-opacity:0.7684"
           offset="0.5044" /><stop
           id="stop57"
           style="stop-color:#2A2A2A;stop-opacity:0.6368"
           offset="0.5893" /><stop
           id="stop59"
           style="stop-color:#4A4A4A;stop-opacity:0.4995"
           offset="0.6778" /><stop
           id="stop61"
           style="stop-color:#737373;stop-opacity:0.3581"
           offset="0.7691" /><stop
           id="stop63"
           style="stop-color:#A6A6A6;stop-opacity:0.2129"
           offset="0.8627" /><stop
           id="stop65"
           style="stop-color:#E1E1E1;stop-opacity:6.760967e-02"
           offset="0.9564" /><stop
           id="stop67"
           style="stop-color:#FFFFFF;stop-opacity:0"
           offset="1" /></radialGradient><path
         id="path69"
         d="M512,1024h498c7.7,0,14-6.3,14-14V572.7L768.8,239.2H276v554.1L512,1024z"
         fill="url(#SVGID_2_)"
         opacity="0.57" /><g
         id="g71"><path
           id="path73"
           d="M416.2,230.7c8.3,0,15.2,2.8,20.7,8.5s8.2,12.6,8.2,20.7c0,8.3-2.7,15.1-8.2,20.5     c-5.5,5.4-12.4,8.1-20.7,8.1H304.7v446.9h111.5c8.3,0,15.2,2.7,20.7,8.1c5.5,5.4,8.2,12.2,8.2,20.5c0,8.5-2.7,15.4-8.2,20.9     c-5.5,5.5-12.4,8.2-20.7,8.2H276c-8.5,0-15.4-2.7-20.8-8.2c-5.4-5.5-8.1-12.5-8.1-20.9V259.9c0-8.1,2.7-15,8.1-20.7     s12.3-8.5,20.8-8.5H416.2z"
           fill="#FFFFFF" /><path
           id="path75"
           d="M748,230.7c8.5,0,15.4,2.8,20.8,8.5s8.1,12.6,8.1,20.7v504.2c0,8.5-2.7,15.4-8.1,20.9     c-5.4,5.5-12.3,8.2-20.8,8.2H607.8c-8.3,0-15.2-2.7-20.7-8.2c-5.5-5.5-8.2-12.5-8.2-20.9c0-8.3,2.7-15.1,8.2-20.5     c5.5-5.4,12.4-8.1,20.7-8.1h111.5V288.5H607.8c-8.3,0-15.2-2.7-20.7-8.1c-5.5-5.4-8.2-12.2-8.2-20.5c0-8.1,2.7-15,8.2-20.7     s12.4-8.5,20.7-8.5H748z"
           fill="#FFFFFF" /></g></g></g></svg>