<?xml version="1.0" encoding="UTF-8" standalone="no"?>
<svg
   xmlns:dc="http://purl.org/dc/elements/1.1/"
   xmlns:cc="http://creativecommons.org/ns#"
   xmlns:rdf="http://www.w3.org/1999/02/22-rdf-syntax-ns#"
   xmlns:svg="http://www.w3.org/2000/svg"
   xmlns="http://www.w3.org/2000/svg"
   id="svg2"
   xml:space="preserve"
   enable-background="new 0 0 1024 1024"
   viewBox="0 0 1024 1024"
   y="0px"
   x="0px"
   version="1.1"><metadata
     id="metadata367"><rdf:RDF><cc:Work
         rdf:about=""><dc:format>image/svg+xml</dc:format><dc:type
           rdf:resource="http://purl.org/dc/dcmitype/StillImage" /><dc:title></dc:title></cc:Work></rdf:RDF></metadata><defs
     id="defs365" /><g
     id="playground"><g
       id="g112"><path
         id="path114"
         d="M1010-1.2H14c-7.7,0-14,6.3-14,14v996c0,7.7,6.3,14,14,14h996c7.7,0,14-6.3,14-14v-996    C1024,5.1,1017.7-1.2,1010-1.2z"
         fill="#1E94D2" /><g
         id="g116"><path
           id="path118"
           d="M227.6,229.2c-43.7,43.7-43.7,114.6,0,158.4l547.3,547.3l139.3-139.3l-247-247     c-19.7-19.7-30.5-44.9-32.4-70.6L386,229.2C342.3,185.5,271.4,185.5,227.6,229.2z"
           fill="#1E94D2" /><linearGradient
           y2="542.4493"
           x2="531.5665"
           y1="30.3418"
           x1="62.5334"
           gradientUnits="userSpaceOnUse"
           id="SVGID_4_"><stop
             id="stop121"
             style="stop-color:#000000"
             offset="0.3551" /><stop
             id="stop123"
             style="stop-color:#050505;stop-opacity:0.8921"
             offset="0.4246" /><stop
             id="stop125"
             style="stop-color:#131313;stop-opacity:0.7684"
             offset="0.5044" /><stop
             id="stop127"
             style="stop-color:#2A2A2A;stop-opacity:0.6368"
             offset="0.5893" /><stop
             id="stop129"
             style="stop-color:#4A4A4A;stop-opacity:0.4995"
             offset="0.6778" /><stop
             id="stop131"
             style="stop-color:#737373;stop-opacity:0.3581"
             offset="0.7691" /><stop
             id="stop133"
             style="stop-color:#A6A6A6;stop-opacity:0.2129"
             offset="0.8627" /><stop
             id="stop135"
             style="stop-color:#E1E1E1;stop-opacity:6.760967e-02"
             offset="0.9564" /><stop
             id="stop137"
             style="stop-color:#FFFFFF;stop-opacity:0"
             offset="1" /></linearGradient><path
           id="path139"
           d="M227.6,229.2c-43.7,43.7-43.7,114.6,0,158.4l547.3,547.3l139.3-139.3l-247-247     c-19.7-19.7-30.5-44.9-32.4-70.6L386,229.2C342.3,185.5,271.4,185.5,227.6,229.2z"
           fill="url(#SVGID_4_)"
           opacity="0.57" /><path
           id="path141"
           d="M227.6,635.9c-43.7,43.7-43.7,114.6,0,158.4l228.5,228.5h316.7L386,635.9     C342.3,592.2,271.4,592.2,227.6,635.9z"
           fill="#1E94D2" /><linearGradient
           y2="946.272"
           x2="534.7242"
           y1="434.1646"
           x1="65.6911"
           gradientUnits="userSpaceOnUse"
           id="SVGID_5_"><stop
             id="stop144"
             style="stop-color:#000000"
             offset="0.3551" /><stop
             id="stop146"
             style="stop-color:#050505;stop-opacity:0.8921"
             offset="0.4246" /><stop
             id="stop148"
             style="stop-color:#131313;stop-opacity:0.7684"
             offset="0.5044" /><stop
             id="stop150"
             style="stop-color:#2A2A2A;stop-opacity:0.6368"
             offset="0.5893" /><stop
             id="stop152"
             style="stop-color:#4A4A4A;stop-opacity:0.4995"
             offset="0.6778" /><stop
             id="stop154"
             style="stop-color:#737373;stop-opacity:0.3581"
             offset="0.7691" /><stop
             id="stop156"
             style="stop-color:#A6A6A6;stop-opacity:0.2129"
             offset="0.8627" /><stop
             id="stop158"
             style="stop-color:#E1E1E1;stop-opacity:6.760967e-02"
             offset="0.9564" /><stop
             id="stop160"
             style="stop-color:#FFFFFF;stop-opacity:0"
             offset="1" /></linearGradient><path
           id="path162"
           d="M227.6,635.9c-43.7,43.7-43.7,114.6,0,158.4l228.5,228.5h316.7L386,635.9     C342.3,592.2,271.4,592.2,227.6,635.9z"
           fill="url(#SVGID_5_)"
           opacity="0.57" /><path
           id="path164"
           d="M825.6,390.2c-43.7-43.7-114.6-43.7-158.4,0c-24.1,24.1-34.9,56.3-32.4,87.8l298.5,298.5l-19.1,19.1     L1024,905.4V588.6L825.6,390.2z"
           fill="#1E94D2" /><linearGradient
           y2="699.3055"
           x2="975.7084"
           y1="187.1981"
           x1="506.6754"
           gradientUnits="userSpaceOnUse"
           id="SVGID_6_"><stop
             id="stop167"
             style="stop-color:#000000"
             offset="0.3551" /><stop
             id="stop169"
             style="stop-color:#050505;stop-opacity:0.8921"
             offset="0.4246" /><stop
             id="stop171"
             style="stop-color:#131313;stop-opacity:0.7684"
             offset="0.5044" /><stop
             id="stop173"
             style="stop-color:#2A2A2A;stop-opacity:0.6368"
             offset="0.5893" /><stop
             id="stop175"
             style="stop-color:#4A4A4A;stop-opacity:0.4995"
             offset="0.6778" /><stop
             id="stop177"
             style="stop-color:#737373;stop-opacity:0.3581"
             offset="0.7691" /><stop
             id="stop179"
             style="stop-color:#A6A6A6;stop-opacity:0.2129"
             offset="0.8627" /><stop
             id="stop181"
             style="stop-color:#E1E1E1;stop-opacity:6.760967e-02"
             offset="0.9564" /><stop
             id="stop183"
             style="stop-color:#FFFFFF;stop-opacity:0"
             offset="1" /></linearGradient><path
           id="path185"
           d="M825.6,390.2c-43.7-43.7-114.6-43.7-158.4,0c-24.1,24.1-34.9,56.3-32.4,87.8     l298.5,298.5l-19.1,19.1L1024,905.4V588.6L825.6,390.2z"
           fill="url(#SVGID_6_)"
           opacity="0.57" /><path
           id="path187"
           d="M914.2,795.6l19.1-19.1L634.8,478c2,25.7,12.8,50.9,32.4,70.6L914.2,795.6z"
           fill="#1E94D2" /><linearGradient
           y2="463.4434"
           x2="617.8281"
           y1="-48.6641"
           x1="148.7951"
           gradientUnits="userSpaceOnUse"
           id="SVGID_7_"><stop
             id="stop190"
             style="stop-color:#000000"
             offset="0.3551" /><stop
             id="stop192"
             style="stop-color:#050505;stop-opacity:0.8921"
             offset="0.4246" /><stop
             id="stop194"
             style="stop-color:#131313;stop-opacity:0.7684"
             offset="0.5044" /><stop
             id="stop196"
             style="stop-color:#2A2A2A;stop-opacity:0.6368"
             offset="0.5893" /><stop
             id="stop198"
             style="stop-color:#4A4A4A;stop-opacity:0.4995"
             offset="0.6778" /><stop
             id="stop200"
             style="stop-color:#737373;stop-opacity:0.3581"
             offset="0.7691" /><stop
             id="stop202"
             style="stop-color:#A6A6A6;stop-opacity:0.2129"
             offset="0.8627" /><stop
             id="stop204"
             style="stop-color:#E1E1E1;stop-opacity:6.760967e-02"
             offset="0.9564" /><stop
             id="stop206"
             style="stop-color:#FFFFFF;stop-opacity:0"
             offset="1" /></linearGradient><path
           id="path208"
           d="M914.2,795.6l19.1-19.1L634.8,478c2,25.7,12.8,50.9,32.4,70.6L914.2,795.6z"
           fill="url(#SVGID_7_)"
           opacity="0.57" /><linearGradient
           y2="769.9612"
           x2="898.564"
           y1="257.8537"
           x1="429.531"
           gradientUnits="userSpaceOnUse"
           id="SVGID_8_"><stop
             id="stop211"
             style="stop-color:#000000"
             offset="0.3551" /><stop
             id="stop213"
             style="stop-color:#050505;stop-opacity:0.8921"
             offset="0.4246" /><stop
             id="stop215"
             style="stop-color:#131313;stop-opacity:0.7684"
             offset="0.5044" /><stop
             id="stop217"
             style="stop-color:#2A2A2A;stop-opacity:0.6368"
             offset="0.5893" /><stop
             id="stop219"
             style="stop-color:#4A4A4A;stop-opacity:0.4995"
             offset="0.6778" /><stop
             id="stop221"
             style="stop-color:#737373;stop-opacity:0.3581"
             offset="0.7691" /><stop
             id="stop223"
             style="stop-color:#A6A6A6;stop-opacity:0.2129"
             offset="0.8627" /><stop
             id="stop225"
             style="stop-color:#E1E1E1;stop-opacity:6.760967e-02"
             offset="0.9564" /><stop
             id="stop227"
             style="stop-color:#FFFFFF;stop-opacity:0"
             offset="1" /></linearGradient><path
           id="path229"
           d="M914.2,795.6l19.1-19.1L634.8,478c2,25.7,12.8,50.9,32.4,70.6L914.2,795.6z"
           fill="url(#SVGID_8_)"
           opacity="0.57" /></g><circle
         id="circle231"
         r="111"
         cy="468.5"
         cx="745.5"
         fill="#FFFFFF" /><circle
         id="circle233"
         r="111"
         cy="307.4"
         cx="305.9"
         fill="#F48620" /><circle
         id="circle235"
         r="111"
         cy="714.2"
         cx="305.9"
         fill="#FFFFFF" /></g></g></svg>