<?xml version="1.0" encoding="UTF-8" standalone="no"?>
<svg
   xmlns:dc="http://purl.org/dc/elements/1.1/"
   xmlns:cc="http://creativecommons.org/ns#"
   xmlns:rdf="http://www.w3.org/1999/02/22-rdf-syntax-ns#"
   xmlns:svg="http://www.w3.org/2000/svg"
   xmlns="http://www.w3.org/2000/svg"
   id="svg2"
   xml:space="preserve"
   enable-background="new 0 0 1024 1024"
   viewBox="0 0 1024 1024"
   y="0px"
   x="0px"
   version="1.1"><metadata
     id="metadata367"><rdf:RDF><cc:Work
         rdf:about=""><dc:format>image/svg+xml</dc:format><dc:type
           rdf:resource="http://purl.org/dc/dcmitype/StillImage" /><dc:title></dc:title></cc:Work></rdf:RDF></metadata><defs
     id="defs365" /><g
     id="vpl"><g
       id="g5"><path
         id="path7"
         d="M1013.4,7.7H260.7c-5.9,0-10.6,4.7-10.6,10.6V771c0,5.9,4.7,10.6,10.6,10.6h752.7    c5.8,0,10.6-4.7,10.6-10.6V18.3C1024,12.4,1019.3,7.7,1013.4,7.7z"
         fill="#F48620" /><path
         id="path9"
         d="M816.6,184.6H257.9c-4.3,0-7.9,3.7-7.9,8.2v580.7c0,4.5,3.5,8.2,7.9,8.2h558.7c4.3,0,7.9-3.7,7.9-8.2    V192.8C824.5,188.3,821,184.6,816.6,184.6z"
         opacity="0.14" /><path
         id="path11"
         d="M763.3,242.4H10.6C4.7,242.4,0,247.1,0,253v752.7c0,5.9,4.7,10.6,10.6,10.6h752.7    c5.8,0,10.6-4.7,10.6-10.6V253C773.9,247.1,769.2,242.4,763.3,242.4z"
         fill="#1E94D2" /></g></g></svg>