<?xml version="1.0" encoding="UTF-8" standalone="no"?>
<svg
   xmlns:dc="http://purl.org/dc/elements/1.1/"
   xmlns:cc="http://creativecommons.org/ns#"
   xmlns:rdf="http://www.w3.org/1999/02/22-rdf-syntax-ns#"
   xmlns:svg="http://www.w3.org/2000/svg"
   xmlns="http://www.w3.org/2000/svg"
   id="svg2"
   xml:space="preserve"
   enable-background="new 0 0 1024 1024"
   viewBox="0 0 1024 1024"
   y="0px"
   x="0px"
   version="1.1"><metadata
     id="metadata487"><rdf:RDF><cc:Work
         rdf:about=""><dc:format>image/svg+xml</dc:format><dc:type
           rdf:resource="http://purl.org/dc/dcmitype/StillImage" /><dc:title></dc:title></cc:Work></rdf:RDF></metadata><defs
     id="defs485" /><g
     id="webApp"><path
       id="path434"
       d="M1005.9,5.8H18.1c-7.7,0-13.9,6.2-13.9,13.9v987.8c0,7.7,6.2,13.9,13.9,13.9h987.8   c7.7,0,13.9-6.2,13.9-13.9V19.8C1019.8,12.1,1013.6,5.8,1005.9,5.8z"
       fill="#1E94D2" /><radialGradient
       gradientUnits="userSpaceOnUse"
       gradientTransform="matrix(0.8026 0.5965 -0.3986 0.5364 205.6214 -10.0731)"
       r="996.5001"
       cy="366.4566"
       cx="301.708"
       id="SVGID_17_"><stop
         id="stop437"
         style="stop-color:#000000"
         offset="0.3551" /><stop
         id="stop439"
         style="stop-color:#050505;stop-opacity:0.8921"
         offset="0.4246" /><stop
         id="stop441"
         style="stop-color:#131313;stop-opacity:0.7684"
         offset="0.5044" /><stop
         id="stop443"
         style="stop-color:#2A2A2A;stop-opacity:0.6368"
         offset="0.5893" /><stop
         id="stop445"
         style="stop-color:#4A4A4A;stop-opacity:0.4995"
         offset="0.6778" /><stop
         id="stop447"
         style="stop-color:#737373;stop-opacity:0.3581"
         offset="0.7691" /><stop
         id="stop449"
         style="stop-color:#A6A6A6;stop-opacity:0.2129"
         offset="0.8627" /><stop
         id="stop451"
         style="stop-color:#E1E1E1;stop-opacity:6.760967e-02"
         offset="0.9564" /><stop
         id="stop453"
         style="stop-color:#FFFFFF;stop-opacity:0"
         offset="1" /></radialGradient><path
       id="path455"
       d="M263.9,1021.5h742c7.7,0,13.9-6.2,13.9-13.9v-664l-75.3-66.4l-4.2,607.4L929.6,907   l-828.1,1.2L263.9,1021.5z"
       fill="url(#SVGID_17_)"
       opacity="0.57" /><g
       id="g457"><path
         id="path459"
         d="M410.2,610.2c-45.7,0-82.7,37-82.7,82.7c0,45.7,37,82.7,82.7,82.7c45.7,0,82.7-37,82.7-82.7    C492.9,647.2,455.9,610.2,410.2,610.2z"
         fill="#FFFFFF" /><path
         id="path461"
         d="M746.1,558.5h-8.7H508H298.1c-8.9,0-16.2,7.3-16.2,16.2v145.2c0,8.9,7.3,16.2,16.2,16.2h12.2v-43.2    c0-55.2,44.7-99.9,99.9-99.9c55.2,0,99.9,44.7,99.9,99.9v43.2h125.3h102.1h8.7c5,0.3,9-3.8,9-8.7V567.5    C755.1,562.5,751.1,558.5,746.1,558.5z"
         fill="#FFFFFF" /></g><g
       id="Arrow_2" /><g
       id="Arrow_29" /><path
       id="path465"
       d="M917.9,916.6H108c-12.4,0-22.4-10-22.4-22.4V199   c0-12.4,10-22.4,22.4-22.4h809.9c12.4,0,22.4,10,22.4,22.4v695.1C940.4,906.5,930.3,916.6,917.9,916.6z"
       stroke-miterlimit="10"
       stroke-width="18"
       stroke="#FFFFFF"
       fill="none" /><path
       id="path467"
       d="M917.9,317.4H108c-12.4,0-22.4-10-22.4-22.4V199c0-12.4,10-22.4,22.4-22.4h809.9c12.4,0,22.4,10,22.4,22.4   V295C940.4,307.4,930.3,317.4,917.9,317.4z"
       fill="#FFFFFF" /><rect
       id="rect469"
       height="94.2"
       width="492.9"
       fill="#1E94D2"
       y="195.9"
       x="419.5" /><g
       id="g471"><path
         id="path473"
         d="M442.6,217.1h9.4c0.9,0,1.6,0.2,2.3,0.6c0.6,0.4,1,0.9,1.1,1.6l7,26.3c0.4,1.4,0.7,2.8,0.9,4.2    c0.2,1.4,0.5,2.7,0.7,4.1c0.4-1.4,0.7-2.7,1.1-4.1c0.4-1.4,0.8-2.8,1.3-4.2l8.2-26.4c0.2-0.6,0.6-1.2,1.1-1.6    c0.6-0.4,1.2-0.6,2-0.6h5.2c0.9,0,1.6,0.2,2.2,0.6c0.6,0.4,1,0.9,1.1,1.6l8.1,26.8c0.4,1.4,0.8,2.7,1.1,4c0.3,1.3,0.7,2.6,1,3.9    c0.2-1.4,0.5-2.7,0.7-4.1c0.3-1.4,0.6-2.8,1-4.3l7.3-26.3c0.2-0.6,0.5-1.2,1.2-1.6c0.6-0.4,1.3-0.6,2.1-0.6h9l-15.6,49.2h-9.5    c-1,0-1.8-0.7-2.2-2.1l-8.9-28.4c-0.3-0.9-0.6-1.9-0.8-2.8s-0.4-1.9-0.6-2.8c-0.2,1-0.4,1.9-0.6,2.9c-0.2,0.9-0.5,1.9-0.8,2.9    l-9,28.3c-0.4,1.4-1.3,2.1-2.6,2.1h-9.1L442.6,217.1z"
         fill="#FFFFFF" /><path
         id="path475"
         d="M518.5,217.1h9.4c0.9,0,1.6,0.2,2.3,0.6c0.6,0.4,1,0.9,1.1,1.6l7,26.3c0.4,1.4,0.7,2.8,0.9,4.2    c0.2,1.4,0.5,2.7,0.7,4.1c0.4-1.4,0.7-2.7,1.1-4.1c0.4-1.4,0.8-2.8,1.3-4.2l8.2-26.4c0.2-0.6,0.6-1.2,1.1-1.6    c0.6-0.4,1.2-0.6,2-0.6h5.2c0.9,0,1.6,0.2,2.2,0.6c0.6,0.4,1,0.9,1.1,1.6l8.1,26.8c0.4,1.4,0.8,2.7,1.1,4c0.3,1.3,0.7,2.6,1,3.9    c0.2-1.4,0.5-2.7,0.7-4.1c0.3-1.4,0.6-2.8,1-4.3l7.3-26.3c0.2-0.6,0.5-1.2,1.2-1.6c0.6-0.4,1.3-0.6,2.1-0.6h9l-15.6,49.2h-9.5    c-1,0-1.8-0.7-2.2-2.1l-8.9-28.4c-0.3-0.9-0.6-1.9-0.8-2.8s-0.4-1.9-0.6-2.8c-0.2,1-0.4,1.9-0.6,2.9c-0.2,0.9-0.5,1.9-0.8,2.9    l-9,28.3c-0.4,1.4-1.3,2.1-2.6,2.1h-9.1L518.5,217.1z"
         fill="#FFFFFF" /><path
         id="path477"
         d="M594.3,217.1h9.4c0.9,0,1.6,0.2,2.3,0.6c0.6,0.4,1,0.9,1.1,1.6l7,26.3c0.4,1.4,0.7,2.8,0.9,4.2    c0.2,1.4,0.5,2.7,0.7,4.1c0.4-1.4,0.7-2.7,1.1-4.1c0.4-1.4,0.8-2.8,1.3-4.2l8.2-26.4c0.2-0.6,0.6-1.2,1.1-1.6    c0.6-0.4,1.2-0.6,2-0.6h5.2c0.9,0,1.6,0.2,2.2,0.6c0.6,0.4,1,0.9,1.1,1.6l8.1,26.8c0.4,1.4,0.8,2.7,1.1,4c0.3,1.3,0.7,2.6,1,3.9    c0.2-1.4,0.5-2.7,0.7-4.1c0.3-1.4,0.6-2.8,1-4.3l7.3-26.3c0.2-0.6,0.5-1.2,1.2-1.6c0.6-0.4,1.3-0.6,2.1-0.6h9l-15.6,49.2h-9.5    c-1,0-1.8-0.7-2.2-2.1l-8.9-28.4c-0.3-0.9-0.6-1.9-0.8-2.8s-0.4-1.9-0.6-2.8c-0.2,1-0.4,1.9-0.6,2.9c-0.2,0.9-0.5,1.9-0.8,2.9    l-9,28.3c-0.4,1.4-1.3,2.1-2.6,2.1h-9.1L594.3,217.1z"
         fill="#FFFFFF" /></g><g
       id="g479"><polygon
         id="polygon481"
         points="536,346.5 624.6,407.4 594.4,415.3 651.4,504.2 631.5,516.2 574.6,427.3 554.3,452.4   "
         fill="#FFFFFF" /></g></g></svg>