<?xml version="1.0" encoding="utf-8"?>
<!-- Generator: Adobe Illustrator 18.1.1, SVG Export Plug-In . SVG Version: 6.00 Build 0)  -->
<svg version="1.1" xmlns="http://www.w3.org/2000/svg" xmlns:xlink="http://www.w3.org/1999/xlink" x="0px" y="0px"
	 viewBox="0 0 1024 1024" enable-background="new 0 0 1024 1024" xml:space="preserve">
<g id="vpl" display="none">
	<g display="inline">
		<path fill="#F48620" d="M1013.4,7.7H260.7c-5.9,0-10.6,4.7-10.6,10.6V771c0,5.9,4.7,10.6,10.6,10.6h752.7
			c5.8,0,10.6-4.7,10.6-10.6V18.3C1024,12.4,1019.3,7.7,1013.4,7.7z"/>
		<path opacity="0.14" d="M816.6,184.6H257.9c-4.3,0-7.9,3.7-7.9,8.2v580.7c0,4.5,3.5,8.2,7.9,8.2h558.7c4.3,0,7.9-3.7,7.9-8.2
			V192.8C824.5,188.3,821,184.6,816.6,184.6z"/>
		<path fill="#1E94D2" d="M763.3,242.4H10.6C4.7,242.4,0,247.1,0,253v752.7c0,5.9,4.7,10.6,10.6,10.6h752.7
			c5.8,0,10.6-4.7,10.6-10.6V253C773.9,247.1,769.2,242.4,763.3,242.4z"/>
	</g>
</g>
<g id="studio_x5F_th" display="none">
	<g display="inline">
		<path fill="#1E94D2" d="M1010,0H14C6.3,0,0,6.3,0,14v996c0,7.7,6.3,14,14,14h996c7.7,0,14-6.3,14-14V14C1024,6.3,1017.7,0,1010,0z
			"/>
		
			<radialGradient id="SVGID_1_" cx="286.1463" cy="147.0305" r="974.9282" gradientTransform="matrix(0.8026 0.5965 -0.3986 0.5364 115.0824 -102.5136)" gradientUnits="userSpaceOnUse">
			<stop  offset="0.3551" style="stop-color:#000000"/>
			<stop  offset="0.4246" style="stop-color:#050505;stop-opacity:0.8921"/>
			<stop  offset="0.5044" style="stop-color:#131313;stop-opacity:0.7684"/>
			<stop  offset="0.5893" style="stop-color:#2A2A2A;stop-opacity:0.6368"/>
			<stop  offset="0.6778" style="stop-color:#4A4A4A;stop-opacity:0.4995"/>
			<stop  offset="0.7691" style="stop-color:#737373;stop-opacity:0.3581"/>
			<stop  offset="0.8627" style="stop-color:#A6A6A6;stop-opacity:0.2129"/>
			<stop  offset="0.9564" style="stop-color:#E1E1E1;stop-opacity:6.760967e-02"/>
			<stop  offset="1" style="stop-color:#FFFFFF;stop-opacity:0"/>
		</radialGradient>
		<path opacity="0.57" fill="url(#SVGID_1_)" d="M512,1024h498c7.7,0,14-6.3,14-14V572.7L810.6,369.6l-549.2,28.7l-59.8,204.3
			L512,1024z"/>
		<g>
			<path fill="#FFFFFF" d="M261.5,545.9c0-59.9,48.6-108.5,108.5-108.5c60,0,108.5,48.6,108.5,108.5c0,59.9-48.6,108.5-108.5,108.5
				C310,654.4,261.5,605.8,261.5,545.9z"/>
			<path fill="#FFFFFF" d="M810.6,369.6h-11.4H498.3H222.9c-11.7,0-21.3,9.6-21.3,21.3v190.4c0,11.7,9.6,21.3,21.3,21.3h16v-56.7
				c0-72.4,58.7-131.1,131.1-131.1c72.4,0,131.1,58.7,131.1,131.1v56.7h164.3h133.9h11.4c6.5,0.3,11.8-4.9,11.8-11.4V381.4
				C822.4,374.9,817.1,369.6,810.6,369.6z"/>
		</g>
	</g>
</g>
<g id="studio" display="none">
	<g display="inline">
		<path fill="#1E94D2" d="M1010,0H14C6.3,0,0,6.3,0,14v996c0,7.7,6.3,14,14,14h996c7.7,0,14-6.3,14-14V14C1024,6.3,1017.7,0,1010,0z
			"/>
		
			<radialGradient id="SVGID_2_" cx="125.8987" cy="465.0171" r="696.0975" fx="-266.0775" fy="-110.2276" gradientTransform="matrix(0.9805 0.1964 -0.1129 0.5636 54.943 178.2164)" gradientUnits="userSpaceOnUse">
			<stop  offset="0.3551" style="stop-color:#000000"/>
			<stop  offset="0.4246" style="stop-color:#050505;stop-opacity:0.8921"/>
			<stop  offset="0.5044" style="stop-color:#131313;stop-opacity:0.7684"/>
			<stop  offset="0.5893" style="stop-color:#2A2A2A;stop-opacity:0.6368"/>
			<stop  offset="0.6778" style="stop-color:#4A4A4A;stop-opacity:0.4995"/>
			<stop  offset="0.7691" style="stop-color:#737373;stop-opacity:0.3581"/>
			<stop  offset="0.8627" style="stop-color:#A6A6A6;stop-opacity:0.2129"/>
			<stop  offset="0.9564" style="stop-color:#E1E1E1;stop-opacity:6.760967e-02"/>
			<stop  offset="1" style="stop-color:#FFFFFF;stop-opacity:0"/>
		</radialGradient>
		<path opacity="0.57" fill="url(#SVGID_2_)" d="M512,1024h498c7.7,0,14-6.3,14-14V572.7L768.8,239.2H276v554.1L512,1024z"/>
		<g>
			<path fill="#FFFFFF" d="M416.2,230.7c8.3,0,15.2,2.8,20.7,8.5s8.2,12.6,8.2,20.7c0,8.3-2.7,15.1-8.2,20.5
				c-5.5,5.4-12.4,8.1-20.7,8.1H304.7v446.9h111.5c8.3,0,15.2,2.7,20.7,8.1c5.5,5.4,8.2,12.2,8.2,20.5c0,8.5-2.7,15.4-8.2,20.9
				c-5.5,5.5-12.4,8.2-20.7,8.2H276c-8.5,0-15.4-2.7-20.8-8.2c-5.4-5.5-8.1-12.5-8.1-20.9V259.9c0-8.1,2.7-15,8.1-20.7
				s12.3-8.5,20.8-8.5H416.2z"/>
			<path fill="#FFFFFF" d="M748,230.7c8.5,0,15.4,2.8,20.8,8.5s8.1,12.6,8.1,20.7v504.2c0,8.5-2.7,15.4-8.1,20.9
				c-5.4,5.5-12.3,8.2-20.8,8.2H607.8c-8.3,0-15.2-2.7-20.7-8.2c-5.5-5.5-8.2-12.5-8.2-20.9c0-8.3,2.7-15.1,8.2-20.5
				c5.5-5.4,12.4-8.1,20.7-8.1h111.5V288.5H607.8c-8.3,0-15.2-2.7-20.7-8.1c-5.5-5.4-8.2-12.2-8.2-20.5c0-8.1,2.7-15,8.2-20.7
				s12.4-8.5,20.7-8.5H748z"/>
		</g>
	</g>
</g>
<g id="upgrader">
	<g>
		<path fill="#F48620" d="M1010,0H14C6.3,0,0,6.3,0,14v996c0,7.7,6.3,14,14,14h996c7.7,0,14-6.3,14-14V14C1024,6.3,1017.7,0,1010,0z
			"/>
		
			<radialGradient id="SVGID_3_" cx="286.15" cy="337.8808" r="857.0951" gradientTransform="matrix(0.8026 0.5965 -0.3986 0.5364 191.16 -14.0406)" gradientUnits="userSpaceOnUse">
			<stop  offset="0.3551" style="stop-color:#000000"/>
			<stop  offset="0.4246" style="stop-color:#050505;stop-opacity:0.8921"/>
			<stop  offset="0.5044" style="stop-color:#131313;stop-opacity:0.7684"/>
			<stop  offset="0.5893" style="stop-color:#2A2A2A;stop-opacity:0.6368"/>
			<stop  offset="0.6778" style="stop-color:#4A4A4A;stop-opacity:0.4995"/>
			<stop  offset="0.7691" style="stop-color:#737373;stop-opacity:0.3581"/>
			<stop  offset="0.8627" style="stop-color:#A6A6A6;stop-opacity:0.2129"/>
			<stop  offset="0.9564" style="stop-color:#E1E1E1;stop-opacity:6.760967e-02"/>
			<stop  offset="1" style="stop-color:#FFFFFF;stop-opacity:0"/>
		</radialGradient>
		<path opacity="0.57" fill="url(#SVGID_3_)" d="M512,1024h498c7.7,0,14-6.3,14-14V696.8L799.2,512l-558.7,0l-38.9,211.7L512,1024z"
			/>
		<g>
			<path fill="#FFFFFF" d="M370,579.8c-59.9,0-108.5,48.6-108.5,108.5c0,59.9,48.6,108.5,108.5,108.5c59.9,0,108.5-48.6,108.5-108.5
				C478.5,628.4,429.9,579.8,370,579.8z"/>
			<path fill="#FFFFFF" d="M810.6,512h-11.4H498.3H222.9c-11.7,0-21.3,9.6-21.3,21.3v190.4c0,11.7,9.6,21.3,21.3,21.3h16v-56.7
				c0-72.4,58.7-131.1,131.1-131.1c72.4,0,131.1,58.7,131.1,131.1V745h164.3h133.9h11.4c6.5,0.3,11.8-4.9,11.8-11.4V523.8
				C822.4,517.3,817.1,512,810.6,512z"/>
		</g>
		<polygon fill="#FFFFFF" points="569.4,341.8 569.4,111.7 454.6,111.7 454.6,341.8 372.5,341.8 512,481.3 651.5,341.8 		"/>
	</g>
</g>
<g id="playground" display="none">
	<g display="inline">
		<path fill="#1E94D2" d="M1010-1.2H14c-7.7,0-14,6.3-14,14v996c0,7.7,6.3,14,14,14h996c7.7,0,14-6.3,14-14v-996
			C1024,5.1,1017.7-1.2,1010-1.2z"/>
		<g>
			<path fill="#1E94D2" d="M227.6,229.2c-43.7,43.7-43.7,114.6,0,158.4l547.3,547.3l139.3-139.3l-247-247
				c-19.7-19.7-30.5-44.9-32.4-70.6L386,229.2C342.3,185.5,271.4,185.5,227.6,229.2z"/>
			<linearGradient id="SVGID_4_" gradientUnits="userSpaceOnUse" x1="62.5334" y1="30.3418" x2="531.5665" y2="542.4493">
				<stop  offset="0.3551" style="stop-color:#000000"/>
				<stop  offset="0.4246" style="stop-color:#050505;stop-opacity:0.8921"/>
				<stop  offset="0.5044" style="stop-color:#131313;stop-opacity:0.7684"/>
				<stop  offset="0.5893" style="stop-color:#2A2A2A;stop-opacity:0.6368"/>
				<stop  offset="0.6778" style="stop-color:#4A4A4A;stop-opacity:0.4995"/>
				<stop  offset="0.7691" style="stop-color:#737373;stop-opacity:0.3581"/>
				<stop  offset="0.8627" style="stop-color:#A6A6A6;stop-opacity:0.2129"/>
				<stop  offset="0.9564" style="stop-color:#E1E1E1;stop-opacity:6.760967e-02"/>
				<stop  offset="1" style="stop-color:#FFFFFF;stop-opacity:0"/>
			</linearGradient>
			<path opacity="0.57" fill="url(#SVGID_4_)" d="M227.6,229.2c-43.7,43.7-43.7,114.6,0,158.4l547.3,547.3l139.3-139.3l-247-247
				c-19.7-19.7-30.5-44.9-32.4-70.6L386,229.2C342.3,185.5,271.4,185.5,227.6,229.2z"/>
			<path fill="#1E94D2" d="M227.6,635.9c-43.7,43.7-43.7,114.6,0,158.4l228.5,228.5h316.7L386,635.9
				C342.3,592.2,271.4,592.2,227.6,635.9z"/>
			<linearGradient id="SVGID_5_" gradientUnits="userSpaceOnUse" x1="65.6911" y1="434.1646" x2="534.7242" y2="946.272">
				<stop  offset="0.3551" style="stop-color:#000000"/>
				<stop  offset="0.4246" style="stop-color:#050505;stop-opacity:0.8921"/>
				<stop  offset="0.5044" style="stop-color:#131313;stop-opacity:0.7684"/>
				<stop  offset="0.5893" style="stop-color:#2A2A2A;stop-opacity:0.6368"/>
				<stop  offset="0.6778" style="stop-color:#4A4A4A;stop-opacity:0.4995"/>
				<stop  offset="0.7691" style="stop-color:#737373;stop-opacity:0.3581"/>
				<stop  offset="0.8627" style="stop-color:#A6A6A6;stop-opacity:0.2129"/>
				<stop  offset="0.9564" style="stop-color:#E1E1E1;stop-opacity:6.760967e-02"/>
				<stop  offset="1" style="stop-color:#FFFFFF;stop-opacity:0"/>
			</linearGradient>
			<path opacity="0.57" fill="url(#SVGID_5_)" d="M227.6,635.9c-43.7,43.7-43.7,114.6,0,158.4l228.5,228.5h316.7L386,635.9
				C342.3,592.2,271.4,592.2,227.6,635.9z"/>
			<path fill="#1E94D2" d="M825.6,390.2c-43.7-43.7-114.6-43.7-158.4,0c-24.1,24.1-34.9,56.3-32.4,87.8l298.5,298.5l-19.1,19.1
				L1024,905.4V588.6L825.6,390.2z"/>
			<linearGradient id="SVGID_6_" gradientUnits="userSpaceOnUse" x1="506.6754" y1="187.1981" x2="975.7084" y2="699.3055">
				<stop  offset="0.3551" style="stop-color:#000000"/>
				<stop  offset="0.4246" style="stop-color:#050505;stop-opacity:0.8921"/>
				<stop  offset="0.5044" style="stop-color:#131313;stop-opacity:0.7684"/>
				<stop  offset="0.5893" style="stop-color:#2A2A2A;stop-opacity:0.6368"/>
				<stop  offset="0.6778" style="stop-color:#4A4A4A;stop-opacity:0.4995"/>
				<stop  offset="0.7691" style="stop-color:#737373;stop-opacity:0.3581"/>
				<stop  offset="0.8627" style="stop-color:#A6A6A6;stop-opacity:0.2129"/>
				<stop  offset="0.9564" style="stop-color:#E1E1E1;stop-opacity:6.760967e-02"/>
				<stop  offset="1" style="stop-color:#FFFFFF;stop-opacity:0"/>
			</linearGradient>
			<path opacity="0.57" fill="url(#SVGID_6_)" d="M825.6,390.2c-43.7-43.7-114.6-43.7-158.4,0c-24.1,24.1-34.9,56.3-32.4,87.8
				l298.5,298.5l-19.1,19.1L1024,905.4V588.6L825.6,390.2z"/>
			<path fill="#1E94D2" d="M914.2,795.6l19.1-19.1L634.8,478c2,25.7,12.8,50.9,32.4,70.6L914.2,795.6z"/>
			<linearGradient id="SVGID_7_" gradientUnits="userSpaceOnUse" x1="148.7951" y1="-48.6641" x2="617.8281" y2="463.4434">
				<stop  offset="0.3551" style="stop-color:#000000"/>
				<stop  offset="0.4246" style="stop-color:#050505;stop-opacity:0.8921"/>
				<stop  offset="0.5044" style="stop-color:#131313;stop-opacity:0.7684"/>
				<stop  offset="0.5893" style="stop-color:#2A2A2A;stop-opacity:0.6368"/>
				<stop  offset="0.6778" style="stop-color:#4A4A4A;stop-opacity:0.4995"/>
				<stop  offset="0.7691" style="stop-color:#737373;stop-opacity:0.3581"/>
				<stop  offset="0.8627" style="stop-color:#A6A6A6;stop-opacity:0.2129"/>
				<stop  offset="0.9564" style="stop-color:#E1E1E1;stop-opacity:6.760967e-02"/>
				<stop  offset="1" style="stop-color:#FFFFFF;stop-opacity:0"/>
			</linearGradient>
			<path opacity="0.57" fill="url(#SVGID_7_)" d="M914.2,795.6l19.1-19.1L634.8,478c2,25.7,12.8,50.9,32.4,70.6L914.2,795.6z"/>
			<linearGradient id="SVGID_8_" gradientUnits="userSpaceOnUse" x1="429.531" y1="257.8537" x2="898.564" y2="769.9612">
				<stop  offset="0.3551" style="stop-color:#000000"/>
				<stop  offset="0.4246" style="stop-color:#050505;stop-opacity:0.8921"/>
				<stop  offset="0.5044" style="stop-color:#131313;stop-opacity:0.7684"/>
				<stop  offset="0.5893" style="stop-color:#2A2A2A;stop-opacity:0.6368"/>
				<stop  offset="0.6778" style="stop-color:#4A4A4A;stop-opacity:0.4995"/>
				<stop  offset="0.7691" style="stop-color:#737373;stop-opacity:0.3581"/>
				<stop  offset="0.8627" style="stop-color:#A6A6A6;stop-opacity:0.2129"/>
				<stop  offset="0.9564" style="stop-color:#E1E1E1;stop-opacity:6.760967e-02"/>
				<stop  offset="1" style="stop-color:#FFFFFF;stop-opacity:0"/>
			</linearGradient>
			<path opacity="0.57" fill="url(#SVGID_8_)" d="M914.2,795.6l19.1-19.1L634.8,478c2,25.7,12.8,50.9,32.4,70.6L914.2,795.6z"/>
		</g>
		<circle fill="#FFFFFF" cx="745.5" cy="468.5" r="111"/>
		<circle fill="#F48620" cx="305.9" cy="307.4" r="111"/>
		<circle fill="#FFFFFF" cx="305.9" cy="714.2" r="111"/>
	</g>
</g>
<g id="challenge" display="none">
	<g display="inline">
		<path fill="#1E94D2" d="M1010,0H14C6.3,0,0,6.3,0,14v996c0,7.7,6.3,14,14,14h996c7.7,0,14-6.3,14-14V14C1024,6.3,1017.7,0,1010,0z
			"/>
		<g>
			<path fill="#1E94D2" d="M227.6,230.4c-43.7,43.7-43.7,114.6,0,158.4l547.3,547.3l139.3-139.3l-247-247
				c-19.7-19.7-30.5-44.9-32.4-70.6L386,230.4C342.3,186.7,271.4,186.7,227.6,230.4z"/>
			<linearGradient id="SVGID_9_" gradientUnits="userSpaceOnUse" x1="62.5334" y1="31.5401" x2="531.5665" y2="543.6476">
				<stop  offset="0.3551" style="stop-color:#000000"/>
				<stop  offset="0.4246" style="stop-color:#050505;stop-opacity:0.8921"/>
				<stop  offset="0.5044" style="stop-color:#131313;stop-opacity:0.7684"/>
				<stop  offset="0.5893" style="stop-color:#2A2A2A;stop-opacity:0.6368"/>
				<stop  offset="0.6778" style="stop-color:#4A4A4A;stop-opacity:0.4995"/>
				<stop  offset="0.7691" style="stop-color:#737373;stop-opacity:0.3581"/>
				<stop  offset="0.8627" style="stop-color:#A6A6A6;stop-opacity:0.2129"/>
				<stop  offset="0.9564" style="stop-color:#E1E1E1;stop-opacity:6.760967e-02"/>
				<stop  offset="1" style="stop-color:#FFFFFF;stop-opacity:0"/>
			</linearGradient>
			<path opacity="0.57" fill="url(#SVGID_9_)" d="M227.6,230.4c-43.7,43.7-43.7,114.6,0,158.4l547.3,547.3l139.3-139.3l-247-247
				c-19.7-19.7-30.5-44.9-32.4-70.6L386,230.4C342.3,186.7,271.4,186.7,227.6,230.4z"/>
			<path fill="#1E94D2" d="M227.6,637.1c-43.7,43.7-43.7,114.6,0,158.4L456.1,1024h316.7L386,637.1
				C342.3,593.4,271.4,593.4,227.6,637.1z"/>
			<linearGradient id="SVGID_10_" gradientUnits="userSpaceOnUse" x1="65.6911" y1="435.3628" x2="534.7242" y2="947.4703">
				<stop  offset="0.3551" style="stop-color:#000000"/>
				<stop  offset="0.4246" style="stop-color:#050505;stop-opacity:0.8921"/>
				<stop  offset="0.5044" style="stop-color:#131313;stop-opacity:0.7684"/>
				<stop  offset="0.5893" style="stop-color:#2A2A2A;stop-opacity:0.6368"/>
				<stop  offset="0.6778" style="stop-color:#4A4A4A;stop-opacity:0.4995"/>
				<stop  offset="0.7691" style="stop-color:#737373;stop-opacity:0.3581"/>
				<stop  offset="0.8627" style="stop-color:#A6A6A6;stop-opacity:0.2129"/>
				<stop  offset="0.9564" style="stop-color:#E1E1E1;stop-opacity:6.760967e-02"/>
				<stop  offset="1" style="stop-color:#FFFFFF;stop-opacity:0"/>
			</linearGradient>
			<path opacity="0.57" fill="url(#SVGID_10_)" d="M227.6,637.1c-43.7,43.7-43.7,114.6,0,158.4L456.1,1024h316.7L386,637.1
				C342.3,593.4,271.4,593.4,227.6,637.1z"/>
			<path fill="#1E94D2" d="M825.6,391.4c-43.7-43.7-114.6-43.7-158.4,0c-24.1,24.1-34.9,56.3-32.4,87.8l298.5,298.5l-19.1,19.1
				L1024,906.6V589.8L825.6,391.4z"/>
			<linearGradient id="SVGID_11_" gradientUnits="userSpaceOnUse" x1="506.6754" y1="188.3963" x2="975.7084" y2="700.5038">
				<stop  offset="0.3551" style="stop-color:#000000"/>
				<stop  offset="0.4246" style="stop-color:#050505;stop-opacity:0.8921"/>
				<stop  offset="0.5044" style="stop-color:#131313;stop-opacity:0.7684"/>
				<stop  offset="0.5893" style="stop-color:#2A2A2A;stop-opacity:0.6368"/>
				<stop  offset="0.6778" style="stop-color:#4A4A4A;stop-opacity:0.4995"/>
				<stop  offset="0.7691" style="stop-color:#737373;stop-opacity:0.3581"/>
				<stop  offset="0.8627" style="stop-color:#A6A6A6;stop-opacity:0.2129"/>
				<stop  offset="0.9564" style="stop-color:#E1E1E1;stop-opacity:6.760967e-02"/>
				<stop  offset="1" style="stop-color:#FFFFFF;stop-opacity:0"/>
			</linearGradient>
			<path opacity="0.57" fill="url(#SVGID_11_)" d="M825.6,391.4c-43.7-43.7-114.6-43.7-158.4,0c-24.1,24.1-34.9,56.3-32.4,87.8
				l298.5,298.5l-19.1,19.1L1024,906.6V589.8L825.6,391.4z"/>
			<path fill="#1E94D2" d="M914.2,796.8l19.1-19.1L634.8,479.2c2,25.7,12.8,50.9,32.4,70.6L914.2,796.8z"/>
			<linearGradient id="SVGID_12_" gradientUnits="userSpaceOnUse" x1="148.7951" y1="-47.4659" x2="617.8281" y2="464.6416">
				<stop  offset="0.3551" style="stop-color:#000000"/>
				<stop  offset="0.4246" style="stop-color:#050505;stop-opacity:0.8921"/>
				<stop  offset="0.5044" style="stop-color:#131313;stop-opacity:0.7684"/>
				<stop  offset="0.5893" style="stop-color:#2A2A2A;stop-opacity:0.6368"/>
				<stop  offset="0.6778" style="stop-color:#4A4A4A;stop-opacity:0.4995"/>
				<stop  offset="0.7691" style="stop-color:#737373;stop-opacity:0.3581"/>
				<stop  offset="0.8627" style="stop-color:#A6A6A6;stop-opacity:0.2129"/>
				<stop  offset="0.9564" style="stop-color:#E1E1E1;stop-opacity:6.760967e-02"/>
				<stop  offset="1" style="stop-color:#FFFFFF;stop-opacity:0"/>
			</linearGradient>
			<path opacity="0.57" fill="url(#SVGID_12_)" d="M914.2,796.8l19.1-19.1L634.8,479.2c2,25.7,12.8,50.9,32.4,70.6L914.2,796.8z"/>
			<linearGradient id="SVGID_13_" gradientUnits="userSpaceOnUse" x1="429.531" y1="259.0519" x2="898.564" y2="771.1594">
				<stop  offset="0.3551" style="stop-color:#000000"/>
				<stop  offset="0.4246" style="stop-color:#050505;stop-opacity:0.8921"/>
				<stop  offset="0.5044" style="stop-color:#131313;stop-opacity:0.7684"/>
				<stop  offset="0.5893" style="stop-color:#2A2A2A;stop-opacity:0.6368"/>
				<stop  offset="0.6778" style="stop-color:#4A4A4A;stop-opacity:0.4995"/>
				<stop  offset="0.7691" style="stop-color:#737373;stop-opacity:0.3581"/>
				<stop  offset="0.8627" style="stop-color:#A6A6A6;stop-opacity:0.2129"/>
				<stop  offset="0.9564" style="stop-color:#E1E1E1;stop-opacity:6.760967e-02"/>
				<stop  offset="1" style="stop-color:#FFFFFF;stop-opacity:0"/>
			</linearGradient>
			<path opacity="0.57" fill="url(#SVGID_13_)" d="M914.2,796.8l19.1-19.1L634.8,479.2c2,25.7,12.8,50.9,32.4,70.6L914.2,796.8z"/>
		</g>
		<circle fill="#FFFFFF" cx="745.5" cy="469.7" r="111"/>
		<circle fill="#FFFFFF" cx="305.9" cy="308.6" r="111"/>
		<circle fill="#FFFFFF" cx="305.9" cy="715.4" r="111"/>
	</g>
</g>
</svg>
