<?xml version="1.0" encoding="utf-8"?>
<!-- Generator: Adobe Illustrator 19.1.0, SVG Export Plug-In . SVG Version: 6.00 Build 0)  -->
<svg version="1.1" id="XMLID_1_" xmlns="http://www.w3.org/2000/svg" xmlns:xlink="http://www.w3.org/1999/xlink" x="0px" y="0px"
	 viewBox="91 -214.7 1024 1024" enable-background="new 91 -214.7 1024 1024" xml:space="preserve">
<g id="vpl" display="none">
	<g display="inline">
		<path fill="#F48620" d="M1100.3-202.3H353.7c-5.8,0-10.5,4.7-10.5,10.5v746.6c0,5.8,4.7,10.5,10.5,10.5h746.6
			c5.8,0,10.5-4.7,10.5-10.5v-746.6C1110.8-197.6,1106.1-202.3,1100.3-202.3z"/>
		<path opacity="0.14" enable-background="new    " d="M905.2-26.8H351c-4.3,0-7.8,3.6-7.8,8.1v575.9c0,4.5,3.5,8.1,7.8,8.1h554.1
			c4.3,0,7.8-3.6,7.8-8.1V-18.7C913-23.2,909.5-26.8,905.2-26.8z"/>
		<path fill="#1E94D2" d="M852.3,30.5H105.7c-5.8,0-10.5,4.7-10.5,10.5v746.6c0,5.8,4.7,10.5,10.5,10.5h746.6
			c5.8,0,10.5-4.7,10.5-10.5V41C862.8,35.2,858.1,30.5,852.3,30.5z"/>
	</g>
</g>
<g id="studio_x5F_th" display="none">
	<g display="inline">
		<path fill="#1E94D2" d="M1096.9-209.9H109.1c-7.7,0-13.9,6.2-13.9,13.9v987.8c0,7.7,6.2,13.9,13.9,13.9h987.8
			c7.7,0,13.9-6.2,13.9-13.9V-196C1110.8-203.7,1104.6-209.9,1096.9-209.9z"/>
		
			<radialGradient id="SVGID_1_" cx="269.3048" cy="619.7454" r="966.976" gradientTransform="matrix(0.8026 0.5965 0.3986 -0.5364 -84.1953 107.6821)" gradientUnits="userSpaceOnUse">
			<stop  offset="0.3551" style="stop-color:#000000"/>
			<stop  offset="0.4246" style="stop-color:#050505;stop-opacity:0.8921"/>
			<stop  offset="0.5044" style="stop-color:#131313;stop-opacity:0.7684"/>
			<stop  offset="0.5893" style="stop-color:#2A2A2A;stop-opacity:0.6368"/>
			<stop  offset="0.6778" style="stop-color:#4A4A4A;stop-opacity:0.4995"/>
			<stop  offset="0.7691" style="stop-color:#737373;stop-opacity:0.3581"/>
			<stop  offset="0.8627" style="stop-color:#A6A6A6;stop-opacity:0.2129"/>
			<stop  offset="0.9564" style="stop-color:#E1E1E1;stop-opacity:6.760967e-02"/>
			<stop  offset="1" style="stop-color:#FFFFFF;stop-opacity:0"/>
		</radialGradient>
		<path opacity="0.57" fill="url(#SVGID_1_)" enable-background="new    " d="M603,805.7h493.9c7.7,0,13.9-6.2,13.9-13.9V358.1
			L899.2,156.6l-544.7,28.5l-59.4,202.6L603,805.7z"/>
		<g>
			<path fill="#FFFFFF" d="M354.5,331.5c0-59.4,48.2-107.6,107.6-107.6c59.5,0,107.6,48.2,107.6,107.6s-48.2,107.6-107.6,107.6
				C402.7,439.2,354.5,391,354.5,331.5z"/>
			<path fill="#FFFFFF" d="M899.2,156.6h-11.3H589.4H316.3c-11.6,0-21.1,9.5-21.1,21.1v188.9c0,11.6,9.5,21.1,21.1,21.1h15.9v-56.2
				c0-71.8,58.2-130,130-130s130,58.2,130,130v56.2h163H888h11.3c6.4,0.3,11.7-4.9,11.7-11.3V168.3
				C910.9,161.9,905.6,156.6,899.2,156.6z"/>
		</g>
	</g>
</g>
<g id="studio" display="none">
	<g display="inline">
		<path fill="#1E94D2" d="M1096.9-209.9H109.1c-7.7,0-13.9,6.2-13.9,13.9v987.8c0,7.7,6.2,13.9,13.9,13.9h987.8
			c7.7,0,13.9-6.2,13.9-13.9V-196C1110.8-203.7,1104.6-209.9,1096.9-209.9z"/>
		
			<radialGradient id="SVGID_2_" cx="179.7843" cy="462.5254" r="690.4197" fx="-208.9947" fy="-108.0272" gradientTransform="matrix(0.9805 0.1964 0.1129 -0.5636 -8.4621 476.6537)" gradientUnits="userSpaceOnUse">
			<stop  offset="0.3551" style="stop-color:#000000"/>
			<stop  offset="0.4246" style="stop-color:#050505;stop-opacity:0.8921"/>
			<stop  offset="0.5044" style="stop-color:#131313;stop-opacity:0.7684"/>
			<stop  offset="0.5893" style="stop-color:#2A2A2A;stop-opacity:0.6368"/>
			<stop  offset="0.6778" style="stop-color:#4A4A4A;stop-opacity:0.4995"/>
			<stop  offset="0.7691" style="stop-color:#737373;stop-opacity:0.3581"/>
			<stop  offset="0.8627" style="stop-color:#A6A6A6;stop-opacity:0.2129"/>
			<stop  offset="0.9564" style="stop-color:#E1E1E1;stop-opacity:6.760967e-02"/>
			<stop  offset="1" style="stop-color:#FFFFFF;stop-opacity:0"/>
		</radialGradient>
		<path opacity="0.57" fill="url(#SVGID_2_)" enable-background="new    " d="M603,805.7h493.9c7.7,0,13.9-6.2,13.9-13.9V358.1
			L857.7,27.3H369v549.5L603,805.7z"/>
		<g>
			<path fill="#FFFFFF" d="M508,18.9c8.2,0,15.1,2.8,20.5,8.4c5.4,5.6,8.2,12.5,8.2,20.5c0,8.2-2.7,15-8.2,20.4
				c-5.4,5.4-12.3,8-20.5,8H397.4v443.3H508c8.2,0,15.1,2.7,20.5,8c5.4,5.4,8.2,12.1,8.2,20.4c0,8.4-2.7,15.3-8.2,20.8
				s-12.3,8.2-20.5,8.2H369c-8.4,0-15.3-2.7-20.6-8.2c-5.4-5.4-8-12.4-8-20.8v-500c0-8,2.7-14.9,8-20.5c5.4-5.6,12.2-8.4,20.6-8.4
				h139V18.9z"/>
			<path fill="#FFFFFF" d="M837,18.9c8.4,0,15.3,2.8,20.6,8.4c5.4,5.6,8,12.5,8,20.5v500.1c0,8.4-2.7,15.3-8,20.8
				s-12.2,8.2-20.6,8.2H698c-8.2,0-15.1-2.7-20.5-8.2s-8.2-12.4-8.2-20.8c0-8.2,2.7-15,8.2-20.4c5.4-5.4,12.3-8,20.5-8h110.6V76.3
				H698c-8.2,0-15.1-2.7-20.5-8c-5.4-5.4-8.2-12.1-8.2-20.4c0-8,2.7-14.9,8.2-20.5c5.4-5.6,12.3-8.4,20.5-8.4h139V18.9z"/>
		</g>
	</g>
</g>
<g id="upgrader" display="none">
	<g display="inline">
		<path fill="#F48620" d="M1096.9-209.9H109.1c-7.7,0-13.9,6.2-13.9,13.9v987.8c0,7.7,6.2,13.9,13.9,13.9h987.8
			c7.7,0,13.9-6.2,13.9-13.9V-196C1110.8-203.7,1104.6-209.9,1096.9-209.9z"/>
		
			<radialGradient id="SVGID_3_" cx="269.3085" cy="430.4518" r="850.1041" gradientTransform="matrix(0.8026 0.5965 0.3986 -0.5364 -8.7382 195.4335)" gradientUnits="userSpaceOnUse">
			<stop  offset="0.3551" style="stop-color:#000000"/>
			<stop  offset="0.4246" style="stop-color:#050505;stop-opacity:0.8921"/>
			<stop  offset="0.5044" style="stop-color:#131313;stop-opacity:0.7684"/>
			<stop  offset="0.5893" style="stop-color:#2A2A2A;stop-opacity:0.6368"/>
			<stop  offset="0.6778" style="stop-color:#4A4A4A;stop-opacity:0.4995"/>
			<stop  offset="0.7691" style="stop-color:#737373;stop-opacity:0.3581"/>
			<stop  offset="0.8627" style="stop-color:#A6A6A6;stop-opacity:0.2129"/>
			<stop  offset="0.9564" style="stop-color:#E1E1E1;stop-opacity:6.760967e-02"/>
			<stop  offset="1" style="stop-color:#FFFFFF;stop-opacity:0"/>
		</radialGradient>
		<path opacity="0.57" fill="url(#SVGID_3_)" enable-background="new    " d="M603,805.7h493.9c7.7,0,13.9-6.2,13.9-13.9V481.2
			L887.9,297.9H333.8l-38.6,210L603,805.7z"/>
		<g>
			<path fill="#FFFFFF" d="M462.1,365.2c-59.4,0-107.6,48.2-107.6,107.6c0,59.4,48.2,107.6,107.6,107.6
				c59.5,0,107.6-48.2,107.6-107.6C569.8,413.3,521.6,365.2,462.1,365.2z"/>
			<path fill="#FFFFFF" d="M899.2,297.9h-11.3H589.4H316.3c-11.6,0-21.1,9.5-21.1,21.1v188.9c0,11.6,9.5,21.1,21.1,21.1h15.9v-56.2
				c0-71.8,58.2-130,130-130s130,58.2,130,130V529h163H888h11.3c6.4,0.3,11.7-4.9,11.7-11.3V309.6
				C910.9,303.1,905.6,297.9,899.2,297.9z"/>
		</g>
		<polygon fill="#FFFFFF" points="660,129.1 660,-99.1 546.1,-99.1 546.1,129.1 464.6,129.1 603,267.5 741.4,129.1 		"/>
	</g>
</g>
<g id="thymioWireless">
	<path fill="#F48620" d="M1096.5-210.5H108.7c-7.7,0-13.9,6.2-13.9,13.9v987.8c0,7.7,6.2,13.9,13.9,13.9h987.8
		c7.7,0,13.9-6.2,13.9-13.9v-987.8C1110.5-204.3,1104.2-210.5,1096.5-210.5z"/>
	
		<radialGradient id="SVGID_4_" cx="138.5061" cy="863.4175" r="716.9081" gradientTransform="matrix(1 0 0 -1 0 593.84)" gradientUnits="userSpaceOnUse">
		<stop  offset="0.3551" style="stop-color:#000000"/>
		<stop  offset="0.4246" style="stop-color:#050505;stop-opacity:0.8921"/>
		<stop  offset="0.5044" style="stop-color:#131313;stop-opacity:0.7684"/>
		<stop  offset="0.5893" style="stop-color:#2A2A2A;stop-opacity:0.6368"/>
		<stop  offset="0.6778" style="stop-color:#4A4A4A;stop-opacity:0.4995"/>
		<stop  offset="0.7691" style="stop-color:#737373;stop-opacity:0.3581"/>
		<stop  offset="0.8627" style="stop-color:#A6A6A6;stop-opacity:0.2129"/>
		<stop  offset="0.9564" style="stop-color:#E1E1E1;stop-opacity:6.760967e-02"/>
		<stop  offset="1" style="stop-color:#FFFFFF;stop-opacity:0"/>
	</radialGradient>
	<polygon opacity="0.57" fill="url(#SVGID_4_)" enable-background="new    " points="150.9,235.5 411.5,475.3 973,477 548.8,130 	
		"/>
	<g>
		<path fill="#FFFFFF" stroke="#F48620" stroke-width="7.7296" stroke-miterlimit="10" d="M205.7-113c0,0-17.1,0-17.1,17.1V90.4
			c0,0,0,17.1,17.1,17.1h334c0,0,17.1,0,17.1-17.1V-95.9c0,0,0-17.1-17.1-17.1C539.7-113,205.7-113,205.7-113z"/>
		<path fill="#FFFFFF" d="M187.9,135.8l-36.1,90.4c-2.4,6.1,2,12.7,8.6,12.7h424.4c6.5,0,11-6.6,8.6-12.7l-35-87.7
			c-1.4-3.5-5.9-8.5-9.6-8.5H196.5C192.7,130,189.3,132.3,187.9,135.8z"/>
	</g>
	
		<radialGradient id="SVGID_5_" cx="356.2078" cy="190.2515" r="667.7308" gradientTransform="matrix(0.8026 0.5965 0.3986 -0.5364 104.1607 254.9546)" gradientUnits="userSpaceOnUse">
		<stop  offset="0.3551" style="stop-color:#000000"/>
		<stop  offset="0.4246" style="stop-color:#050505;stop-opacity:0.8921"/>
		<stop  offset="0.5044" style="stop-color:#131313;stop-opacity:0.7684"/>
		<stop  offset="0.5893" style="stop-color:#2A2A2A;stop-opacity:0.6368"/>
		<stop  offset="0.6778" style="stop-color:#4A4A4A;stop-opacity:0.4995"/>
		<stop  offset="0.7691" style="stop-color:#737373;stop-opacity:0.3581"/>
		<stop  offset="0.8627" style="stop-color:#A6A6A6;stop-opacity:0.2129"/>
		<stop  offset="0.9564" style="stop-color:#E1E1E1;stop-opacity:6.760967e-02"/>
		<stop  offset="1" style="stop-color:#FFFFFF;stop-opacity:0"/>
	</radialGradient>
	<path opacity="0.57" fill="url(#SVGID_5_)" enable-background="new    " d="M586.9,805.1h516c7.3,0,13.3-5.9,13.3-13.3V587.5
		L973,477H444.8l-53.3,198.5L586.9,805.1z"/>
	<g>
		<path fill="#FFFFFF" d="M550.6,539.5c-56.7,0-102.6,45.9-102.6,102.6c0,56.7,45.9,102.6,102.6,102.6s102.6-45.9,102.6-102.6
			C653.2,585.4,607.2,539.5,550.6,539.5z"/>
		<path fill="#FFFFFF" d="M967.2,475.3h-10.7H671.9H411.5c-11.1,0-20.1,9.1-20.1,20.1v180c0,11.1,9.1,20.1,20.1,20.1h15.1v-53.6
			c0-68.4,55.5-123.9,123.9-123.9c68.5,0,123.9,55.5,123.9,123.9v53.6h155.4h126.6h10.7c6.1,0.3,11.1-4.7,11.1-10.8V486.5
			C978.3,480.3,973.3,475.3,967.2,475.3z"/>
	</g>
	<g>
		<path fill="none" stroke="#FFFFFF" stroke-width="27.3075" stroke-linejoin="round" stroke-miterlimit="10" d="M989.9,410.8
			c-22.6-21.2-58.1-20-79.3,2.6"/>
		<path fill="none" stroke="#FFFFFF" stroke-width="27.3075" stroke-linejoin="round" stroke-miterlimit="10" d="M1023.7,369.9
			c-42.4-39.7-109-37.5-148.7,4.8"/>
		<path fill="none" stroke="#FFFFFF" stroke-width="27.3075" stroke-linejoin="round" stroke-miterlimit="10" d="M1062.4,326.8
			c-65.4-61.2-168-57.9-229.2,7.5"/>
	</g>
	<g>
		<path fill="none" stroke="#FFFFFF" stroke-width="27.3075" stroke-linejoin="round" stroke-miterlimit="10" d="M622.3,49.6
			c21.2-22.6,20-58.1-2.6-79.3"/>
		<path fill="none" stroke="#FFFFFF" stroke-width="27.3075" stroke-linejoin="round" stroke-miterlimit="10" d="M663.1,83.4
			c39.7-42.4,37.5-109-4.8-148.7"/>
		<path fill="none" stroke="#FFFFFF" stroke-width="27.3075" stroke-linejoin="round" stroke-miterlimit="10" d="M706.2,122.1
			c61.2-65.4,57.9-168-7.5-229.2"/>
	</g>
	<g opacity="8.000000e-02">
		<g>
			<g>
				<path fill="#231F20" d="M774,541.5c-5.8,0-10.5-4.7-10.5-10.5v-20c0-5.8,4.7-10.5,10.5-10.5s10.5,4.7,10.5,10.5v20
					C784.5,536.8,779.8,541.5,774,541.5z M774,483.5c-5.8,0-10.5-4.7-10.5-10.5v-20c0-5.8,4.7-10.5,10.5-10.5s10.5,4.7,10.5,10.5v20
					C784.5,478.8,779.8,483.5,774,483.5z M774,425.5c-5.8,0-10.5-4.7-10.5-10.5v-20c0-5.8,4.7-10.5,10.5-10.5s10.5,4.7,10.5,10.5v20
					C784.5,420.8,779.8,425.5,774,425.5z M770.9,370.6h-20c-5.8,0-10.5-4.7-10.5-10.5s4.7-10.5,10.5-10.5h20
					c5.8,0,10.5,4.7,10.5,10.5S776.7,370.6,770.9,370.6z M712.9,370.6h-20c-5.8,0-10.5-4.7-10.5-10.5s4.7-10.5,10.5-10.5h20
					c5.8,0,10.5,4.7,10.5,10.5S718.7,370.6,712.9,370.6z M654.9,370.6h-20c-5.8,0-10.5-4.7-10.5-10.5s4.7-10.5,10.5-10.5h20
					c5.8,0,10.5,4.7,10.5,10.5S660.7,370.6,654.9,370.6z M596.9,370.6h-20c-5.8,0-10.5-4.7-10.5-10.5s4.7-10.5,10.5-10.5h20
					c5.8,0,10.5,4.7,10.5,10.5S602.7,370.6,596.9,370.6z M538.9,370.6h-20c-5.8,0-10.5-4.7-10.5-10.5s4.7-10.5,10.5-10.5h20
					c5.8,0,10.5,4.7,10.5,10.5S544.7,370.6,538.9,370.6z M480.9,370.6h-20c-5.8,0-10.5-4.7-10.5-10.5s4.7-10.5,10.5-10.5h20
					c5.8,0,10.5,4.7,10.5,10.5S486.7,370.6,480.9,370.6z M422.9,370.6h-20c-5.8,0-10.5-4.7-10.5-10.5s4.7-10.5,10.5-10.5h20
					c5.8,0,10.5,4.7,10.5,10.5S428.7,370.6,422.9,370.6z M384.6,350.9c-5.8,0-10.5-4.7-10.5-10.5v-20c0-5.8,4.7-10.5,10.5-10.5
					s10.5,4.7,10.5,10.5v20C395.1,346.2,390.4,350.9,384.6,350.9z M384.6,292.9c-5.8,0-10.5-4.7-10.5-10.5v-20
					c0-5.8,4.7-10.5,10.5-10.5s10.5,4.7,10.5,10.5v20C395.1,288.2,390.4,292.9,384.6,292.9z M384.6,234.9c-5.8,0-10.5-4.7-10.5-10.5
					v-20c0-5.8,4.7-10.5,10.5-10.5s10.5,4.7,10.5,10.5v20C395.1,230.2,390.4,234.9,384.6,234.9z M384.6,176.9
					c-5.8,0-10.5-4.7-10.5-10.5v-20c0-5.8,4.7-10.5,10.5-10.5s10.5,4.7,10.5,10.5v20C395.1,172.2,390.4,176.9,384.6,176.9z
					 M384.6,118.9c-5.8,0-10.5-4.7-10.5-10.5v-20c0-5.8,4.7-10.5,10.5-10.5s10.5,4.7,10.5,10.5v20
					C395.1,114.2,390.4,118.9,384.6,118.9z"/>
			</g>
		</g>
		<g>
			<g>
				<circle fill="#231F20" cx="774" cy="605.5" r="46"/>
			</g>
		</g>
		<g>
			<g>
				<circle fill="#231F20" cx="384.6" cy="24.9" r="32.7"/>
			</g>
		</g>
	</g>
	<g>
		<g>
			<g>
				<path fill="#EF4623" d="M762,533.5c-5.8,0-10.5-4.7-10.5-10.5v-20c0-5.8,4.7-10.5,10.5-10.5s10.5,4.7,10.5,10.5v20
					C772.5,528.8,767.8,533.5,762,533.5z M762,475.5c-5.8,0-10.5-4.7-10.5-10.5v-20c0-5.8,4.7-10.5,10.5-10.5s10.5,4.7,10.5,10.5v20
					C772.5,470.8,767.8,475.5,762,475.5z M762,417.5c-5.8,0-10.5-4.7-10.5-10.5v-20c0-5.8,4.7-10.5,10.5-10.5s10.5,4.7,10.5,10.5v20
					C772.5,412.8,767.8,417.5,762,417.5z M758.9,362.6h-20c-5.8,0-10.5-4.7-10.5-10.5s4.7-10.5,10.5-10.5h20
					c5.8,0,10.5,4.7,10.5,10.5S764.7,362.6,758.9,362.6z M700.9,362.6h-20c-5.8,0-10.5-4.7-10.5-10.5s4.7-10.5,10.5-10.5h20
					c5.8,0,10.5,4.7,10.5,10.5S706.7,362.6,700.9,362.6z M642.9,362.6h-20c-5.8,0-10.5-4.7-10.5-10.5s4.7-10.5,10.5-10.5h20
					c5.8,0,10.5,4.7,10.5,10.5S648.7,362.6,642.9,362.6z M584.9,362.6h-20c-5.8,0-10.5-4.7-10.5-10.5s4.7-10.5,10.5-10.5h20
					c5.8,0,10.5,4.7,10.5,10.5S590.7,362.6,584.9,362.6z M526.9,362.6h-20c-5.8,0-10.5-4.7-10.5-10.5s4.7-10.5,10.5-10.5h20
					c5.8,0,10.5,4.7,10.5,10.5S532.7,362.6,526.9,362.6z M468.9,362.6h-20c-5.8,0-10.5-4.7-10.5-10.5s4.7-10.5,10.5-10.5h20
					c5.8,0,10.5,4.7,10.5,10.5S474.7,362.6,468.9,362.6z M410.9,362.6h-20c-5.8,0-10.5-4.7-10.5-10.5s4.7-10.5,10.5-10.5h20
					c5.8,0,10.5,4.7,10.5,10.5S416.7,362.6,410.9,362.6z M372.6,342.9c-5.8,0-10.5-4.7-10.5-10.5v-20c0-5.8,4.7-10.5,10.5-10.5
					s10.5,4.7,10.5,10.5v20C383.1,338.2,378.4,342.9,372.6,342.9z M372.6,284.9c-5.8,0-10.5-4.7-10.5-10.5v-20
					c0-5.8,4.7-10.5,10.5-10.5s10.5,4.7,10.5,10.5v20C383.1,280.2,378.4,284.9,372.6,284.9z M372.6,226.9c-5.8,0-10.5-4.7-10.5-10.5
					v-20c0-5.8,4.7-10.5,10.5-10.5s10.5,4.7,10.5,10.5v20C383.1,222.2,378.4,226.9,372.6,226.9z M372.6,168.9
					c-5.8,0-10.5-4.7-10.5-10.5v-20c0-5.8,4.7-10.5,10.5-10.5s10.5,4.7,10.5,10.5v20C383.1,164.2,378.4,168.9,372.6,168.9z
					 M372.6,110.9c-5.8,0-10.5-4.7-10.5-10.5v-20c0-5.8,4.7-10.5,10.5-10.5s10.5,4.7,10.5,10.5v20
					C383.1,106.2,378.4,110.9,372.6,110.9z"/>
			</g>
		</g>
		<g>
			<g>
				<circle fill="#EF4623" cx="762" cy="597.5" r="46"/>
			</g>
		</g>
		<g>
			<g>
				<circle fill="#EF4623" cx="372.6" cy="16.9" r="32.7"/>
			</g>
		</g>
	</g>
</g>
<g id="playground" display="none">
	<g display="inline">
		<path fill="#1E94D2" d="M1096.9-211.1H109.1c-7.7,0-13.9,6.2-13.9,13.9v987.8c0,7.7,6.2,13.9,13.9,13.9h987.8
			c7.7,0,13.9-6.2,13.9-13.9v-987.8C1110.8-204.9,1104.6-211.1,1096.9-211.1z"/>
		<g>
			<path fill="#1E94D2" d="M321,17.4c-43.4,43.4-43.4,113.7,0,157.1l542.8,542.8L1002,579.1L757,334.2c-19.5-19.5-30.2-44.5-32.2-70
				L478,17.4C434.7-25.9,364.3-25.9,321,17.4z"/>
			
				<linearGradient id="SVGID_6_" gradientUnits="userSpaceOnUse" x1="157.2092" y1="773.704" x2="622.4165" y2="265.7735" gradientTransform="matrix(1 0 0 -1 0 593.84)">
				<stop  offset="0.3551" style="stop-color:#000000"/>
				<stop  offset="0.4246" style="stop-color:#050505;stop-opacity:0.8921"/>
				<stop  offset="0.5044" style="stop-color:#131313;stop-opacity:0.7684"/>
				<stop  offset="0.5893" style="stop-color:#2A2A2A;stop-opacity:0.6368"/>
				<stop  offset="0.6778" style="stop-color:#4A4A4A;stop-opacity:0.4995"/>
				<stop  offset="0.7691" style="stop-color:#737373;stop-opacity:0.3581"/>
				<stop  offset="0.8627" style="stop-color:#A6A6A6;stop-opacity:0.2129"/>
				<stop  offset="0.9564" style="stop-color:#E1E1E1;stop-opacity:6.760967e-02"/>
				<stop  offset="1" style="stop-color:#FFFFFF;stop-opacity:0"/>
			</linearGradient>
			<path opacity="0.57" fill="url(#SVGID_6_)" enable-background="new    " d="M321,17.4c-43.4,43.4-43.4,113.7,0,157.1l542.8,542.8
				L1002,579.1L757,334.2c-19.5-19.5-30.2-44.5-32.2-70L478,17.4C434.7-25.9,364.3-25.9,321,17.4z"/>
			<path fill="#1E94D2" d="M321,420.8c-43.4,43.4-43.4,113.7,0,157.1l226.6,226.6h314.2L478,420.8
				C434.7,377.5,364.3,377.4,321,420.8z"/>
			
				<linearGradient id="SVGID_7_" gradientUnits="userSpaceOnUse" x1="160.366" y1="373.1979" x2="625.5734" y2="-134.7323" gradientTransform="matrix(1 0 0 -1 0 593.84)">
				<stop  offset="0.3551" style="stop-color:#000000"/>
				<stop  offset="0.4246" style="stop-color:#050505;stop-opacity:0.8921"/>
				<stop  offset="0.5044" style="stop-color:#131313;stop-opacity:0.7684"/>
				<stop  offset="0.5893" style="stop-color:#2A2A2A;stop-opacity:0.6368"/>
				<stop  offset="0.6778" style="stop-color:#4A4A4A;stop-opacity:0.4995"/>
				<stop  offset="0.7691" style="stop-color:#737373;stop-opacity:0.3581"/>
				<stop  offset="0.8627" style="stop-color:#A6A6A6;stop-opacity:0.2129"/>
				<stop  offset="0.9564" style="stop-color:#E1E1E1;stop-opacity:6.760967e-02"/>
				<stop  offset="1" style="stop-color:#FFFFFF;stop-opacity:0"/>
			</linearGradient>
			<path opacity="0.57" fill="url(#SVGID_7_)" enable-background="new    " d="M321,420.8c-43.4,43.4-43.4,113.7,0,157.1
				l226.6,226.6h314.2L478,420.8C434.7,377.5,364.3,377.4,321,420.8z"/>
			<path fill="#1E94D2" d="M914.1,177.1c-43.4-43.4-113.7-43.4-157.1,0c-23.9,23.9-34.6,55.9-32.2,87.1l296,296l-18.9,18.9
				L1110.8,688V373.9L914.1,177.1z"/>
			
				<linearGradient id="SVGID_8_" gradientUnits="userSpaceOnUse" x1="597.7148" y1="618.1147" x2="1062.9221" y2="110.1843" gradientTransform="matrix(1 0 0 -1 0 593.84)">
				<stop  offset="0.3551" style="stop-color:#000000"/>
				<stop  offset="0.4246" style="stop-color:#050505;stop-opacity:0.8921"/>
				<stop  offset="0.5044" style="stop-color:#131313;stop-opacity:0.7684"/>
				<stop  offset="0.5893" style="stop-color:#2A2A2A;stop-opacity:0.6368"/>
				<stop  offset="0.6778" style="stop-color:#4A4A4A;stop-opacity:0.4995"/>
				<stop  offset="0.7691" style="stop-color:#737373;stop-opacity:0.3581"/>
				<stop  offset="0.8627" style="stop-color:#A6A6A6;stop-opacity:0.2129"/>
				<stop  offset="0.9564" style="stop-color:#E1E1E1;stop-opacity:6.760967e-02"/>
				<stop  offset="1" style="stop-color:#FFFFFF;stop-opacity:0"/>
			</linearGradient>
			<path opacity="0.57" fill="url(#SVGID_8_)" enable-background="new    " d="M914.1,177.1c-43.4-43.4-113.7-43.4-157.1,0
				c-23.9,23.9-34.6,55.9-32.2,87.1l296,296l-18.9,18.9L1110.8,688V373.9L914.1,177.1z"/>
			<path fill="#1E94D2" d="M1001.9,579.1l18.9-18.9l-296-296c2,25.5,12.7,50.5,32.2,70L1001.9,579.1z"/>
			
				<linearGradient id="SVGID_9_" gradientUnits="userSpaceOnUse" x1="242.7602" y1="852.0592" x2="707.9675" y2="344.1288" gradientTransform="matrix(1 0 0 -1 0 593.84)">
				<stop  offset="0.3551" style="stop-color:#000000"/>
				<stop  offset="0.4246" style="stop-color:#050505;stop-opacity:0.8921"/>
				<stop  offset="0.5044" style="stop-color:#131313;stop-opacity:0.7684"/>
				<stop  offset="0.5893" style="stop-color:#2A2A2A;stop-opacity:0.6368"/>
				<stop  offset="0.6778" style="stop-color:#4A4A4A;stop-opacity:0.4995"/>
				<stop  offset="0.7691" style="stop-color:#737373;stop-opacity:0.3581"/>
				<stop  offset="0.8627" style="stop-color:#A6A6A6;stop-opacity:0.2129"/>
				<stop  offset="0.9564" style="stop-color:#E1E1E1;stop-opacity:6.760967e-02"/>
				<stop  offset="1" style="stop-color:#FFFFFF;stop-opacity:0"/>
			</linearGradient>
			<path opacity="0.57" fill="url(#SVGID_9_)" enable-background="new    " d="M1001.9,579.1l18.9-18.9l-296-296
				c2,25.5,12.7,50.5,32.2,70L1001.9,579.1z"/>
			
				<linearGradient id="SVGID_10_" gradientUnits="userSpaceOnUse" x1="521.2064" y1="548.0415" x2="986.4135" y2="40.1111" gradientTransform="matrix(1 0 0 -1 0 593.84)">
				<stop  offset="0.3551" style="stop-color:#000000"/>
				<stop  offset="0.4246" style="stop-color:#050505;stop-opacity:0.8921"/>
				<stop  offset="0.5044" style="stop-color:#131313;stop-opacity:0.7684"/>
				<stop  offset="0.5893" style="stop-color:#2A2A2A;stop-opacity:0.6368"/>
				<stop  offset="0.6778" style="stop-color:#4A4A4A;stop-opacity:0.4995"/>
				<stop  offset="0.7691" style="stop-color:#737373;stop-opacity:0.3581"/>
				<stop  offset="0.8627" style="stop-color:#A6A6A6;stop-opacity:0.2129"/>
				<stop  offset="0.9564" style="stop-color:#E1E1E1;stop-opacity:6.760967e-02"/>
				<stop  offset="1" style="stop-color:#FFFFFF;stop-opacity:0"/>
			</linearGradient>
			<path opacity="0.57" fill="url(#SVGID_10_)" enable-background="new    " d="M1001.9,579.1l18.9-18.9l-296-296
				c2,25.5,12.7,50.5,32.2,70L1001.9,579.1z"/>
		</g>
		<circle fill="#FFFFFF" cx="834.6" cy="254.7" r="110.1"/>
		<circle fill="#F48620" cx="398.5" cy="95" r="110.1"/>
		<circle fill="#FFFFFF" cx="398.5" cy="498.4" r="110.1"/>
	</g>
</g>
<g id="challenge" display="none">
	<g display="inline">
		<path fill="#1E94D2" d="M1096.9-209.9H109.1c-7.7,0-13.9,6.2-13.9,13.9v987.8c0,7.7,6.2,13.9,13.9,13.9h987.8
			c7.7,0,13.9-6.2,13.9-13.9V-196C1110.8-203.7,1104.6-209.9,1096.9-209.9z"/>
		<g>
			<path fill="#1E94D2" d="M321,18.6c-43.4,43.4-43.4,113.7,0,157.1l542.8,542.8l138.1-138.2L757,335.4
				c-19.5-19.5-30.2-44.5-32.2-70L478,18.6C434.7-24.8,364.3-24.8,321,18.6z"/>
			
				<linearGradient id="SVGID_11_" gradientUnits="userSpaceOnUse" x1="157.2034" y1="772.5103" x2="622.4108" y2="264.5798" gradientTransform="matrix(1 0 0 -1 0 593.84)">
				<stop  offset="0.3551" style="stop-color:#000000"/>
				<stop  offset="0.4246" style="stop-color:#050505;stop-opacity:0.8921"/>
				<stop  offset="0.5044" style="stop-color:#131313;stop-opacity:0.7684"/>
				<stop  offset="0.5893" style="stop-color:#2A2A2A;stop-opacity:0.6368"/>
				<stop  offset="0.6778" style="stop-color:#4A4A4A;stop-opacity:0.4995"/>
				<stop  offset="0.7691" style="stop-color:#737373;stop-opacity:0.3581"/>
				<stop  offset="0.8627" style="stop-color:#A6A6A6;stop-opacity:0.2129"/>
				<stop  offset="0.9564" style="stop-color:#E1E1E1;stop-opacity:6.760967e-02"/>
				<stop  offset="1" style="stop-color:#FFFFFF;stop-opacity:0"/>
			</linearGradient>
			<path opacity="0.57" fill="url(#SVGID_11_)" enable-background="new    " d="M321,18.6c-43.4,43.4-43.4,113.7,0,157.1
				l542.8,542.8l138.1-138.2L757,335.4c-19.5-19.5-30.2-44.5-32.2-70L478,18.6C434.7-24.8,364.3-24.8,321,18.6z"/>
			<path fill="#1E94D2" d="M321,422c-43.4,43.4-43.4,113.7,0,157.1l226.6,226.6h314.2L478,422C434.7,378.6,364.3,378.6,321,422z"/>
			
				<linearGradient id="SVGID_12_" gradientUnits="userSpaceOnUse" x1="160.3603" y1="372.0042" x2="625.5676" y2="-135.9262" gradientTransform="matrix(1 0 0 -1 0 593.84)">
				<stop  offset="0.3551" style="stop-color:#000000"/>
				<stop  offset="0.4246" style="stop-color:#050505;stop-opacity:0.8921"/>
				<stop  offset="0.5044" style="stop-color:#131313;stop-opacity:0.7684"/>
				<stop  offset="0.5893" style="stop-color:#2A2A2A;stop-opacity:0.6368"/>
				<stop  offset="0.6778" style="stop-color:#4A4A4A;stop-opacity:0.4995"/>
				<stop  offset="0.7691" style="stop-color:#737373;stop-opacity:0.3581"/>
				<stop  offset="0.8627" style="stop-color:#A6A6A6;stop-opacity:0.2129"/>
				<stop  offset="0.9564" style="stop-color:#E1E1E1;stop-opacity:6.760967e-02"/>
				<stop  offset="1" style="stop-color:#FFFFFF;stop-opacity:0"/>
			</linearGradient>
			<path opacity="0.57" fill="url(#SVGID_12_)" enable-background="new    " d="M321,422c-43.4,43.4-43.4,113.7,0,157.1l226.6,226.6
				h314.2L478,422C434.7,378.6,364.3,378.6,321,422z"/>
			<path fill="#1E94D2" d="M914.1,178.3c-43.4-43.4-113.7-43.4-157.1,0c-23.9,23.9-34.6,55.9-32.2,87.1l296,296l-18.9,18.9
				l108.9,108.9V375.1L914.1,178.3z"/>
			
				<linearGradient id="SVGID_13_" gradientUnits="userSpaceOnUse" x1="597.7091" y1="616.921" x2="1062.9164" y2="108.9906" gradientTransform="matrix(1 0 0 -1 0 593.84)">
				<stop  offset="0.3551" style="stop-color:#000000"/>
				<stop  offset="0.4246" style="stop-color:#050505;stop-opacity:0.8921"/>
				<stop  offset="0.5044" style="stop-color:#131313;stop-opacity:0.7684"/>
				<stop  offset="0.5893" style="stop-color:#2A2A2A;stop-opacity:0.6368"/>
				<stop  offset="0.6778" style="stop-color:#4A4A4A;stop-opacity:0.4995"/>
				<stop  offset="0.7691" style="stop-color:#737373;stop-opacity:0.3581"/>
				<stop  offset="0.8627" style="stop-color:#A6A6A6;stop-opacity:0.2129"/>
				<stop  offset="0.9564" style="stop-color:#E1E1E1;stop-opacity:6.760967e-02"/>
				<stop  offset="1" style="stop-color:#FFFFFF;stop-opacity:0"/>
			</linearGradient>
			<path opacity="0.57" fill="url(#SVGID_13_)" enable-background="new    " d="M914.1,178.3c-43.4-43.4-113.7-43.4-157.1,0
				c-23.9,23.9-34.6,55.9-32.2,87.1l296,296l-18.9,18.9l108.9,108.9V375.1L914.1,178.3z"/>
			<path fill="#1E94D2" d="M1001.9,580.3l18.9-18.9l-296-296c2,25.5,12.7,50.5,32.2,70L1001.9,580.3z"/>
			
				<linearGradient id="SVGID_14_" gradientUnits="userSpaceOnUse" x1="242.7544" y1="850.8654" x2="707.9617" y2="342.935" gradientTransform="matrix(1 0 0 -1 0 593.84)">
				<stop  offset="0.3551" style="stop-color:#000000"/>
				<stop  offset="0.4246" style="stop-color:#050505;stop-opacity:0.8921"/>
				<stop  offset="0.5044" style="stop-color:#131313;stop-opacity:0.7684"/>
				<stop  offset="0.5893" style="stop-color:#2A2A2A;stop-opacity:0.6368"/>
				<stop  offset="0.6778" style="stop-color:#4A4A4A;stop-opacity:0.4995"/>
				<stop  offset="0.7691" style="stop-color:#737373;stop-opacity:0.3581"/>
				<stop  offset="0.8627" style="stop-color:#A6A6A6;stop-opacity:0.2129"/>
				<stop  offset="0.9564" style="stop-color:#E1E1E1;stop-opacity:6.760967e-02"/>
				<stop  offset="1" style="stop-color:#FFFFFF;stop-opacity:0"/>
			</linearGradient>
			<path opacity="0.57" fill="url(#SVGID_14_)" enable-background="new    " d="M1001.9,580.3l18.9-18.9l-296-296
				c2,25.5,12.7,50.5,32.2,70L1001.9,580.3z"/>
			
				<linearGradient id="SVGID_15_" gradientUnits="userSpaceOnUse" x1="521.2006" y1="546.8478" x2="986.4078" y2="38.9174" gradientTransform="matrix(1 0 0 -1 0 593.84)">
				<stop  offset="0.3551" style="stop-color:#000000"/>
				<stop  offset="0.4246" style="stop-color:#050505;stop-opacity:0.8921"/>
				<stop  offset="0.5044" style="stop-color:#131313;stop-opacity:0.7684"/>
				<stop  offset="0.5893" style="stop-color:#2A2A2A;stop-opacity:0.6368"/>
				<stop  offset="0.6778" style="stop-color:#4A4A4A;stop-opacity:0.4995"/>
				<stop  offset="0.7691" style="stop-color:#737373;stop-opacity:0.3581"/>
				<stop  offset="0.8627" style="stop-color:#A6A6A6;stop-opacity:0.2129"/>
				<stop  offset="0.9564" style="stop-color:#E1E1E1;stop-opacity:6.760967e-02"/>
				<stop  offset="1" style="stop-color:#FFFFFF;stop-opacity:0"/>
			</linearGradient>
			<path opacity="0.57" fill="url(#SVGID_15_)" enable-background="new    " d="M1001.9,580.3l18.9-18.9l-296-296
				c2,25.5,12.7,50.5,32.2,70L1001.9,580.3z"/>
		</g>
		<circle fill="#FFFFFF" cx="834.6" cy="255.9" r="110.1"/>
		<circle fill="#FFFFFF" cx="398.5" cy="96.2" r="110.1"/>
		<circle fill="#FFFFFF" cx="398.5" cy="499.6" r="110.1"/>
	</g>
</g>
<g id="help" display="none">
	<path display="inline" fill="#1E94D2" d="M1094.5-208h-983c-7.6,0-13.8,6.2-13.8,13.8v982.9c0,7.6,6.2,13.8,13.8,13.8h982.9
		c7.6,0,13.8-6.2,13.8-13.8v-982.8C1108.3-201.8,1102.1-208,1094.5-208z"/>
	
		<linearGradient id="SVGID_16_" gradientUnits="userSpaceOnUse" x1="409.2816" y1="247.0741" x2="771.0556" y2="-147.924" gradientTransform="matrix(1 0 0 -1 0 593.84)">
		<stop  offset="0.3551" style="stop-color:#000000"/>
		<stop  offset="0.4246" style="stop-color:#050505;stop-opacity:0.8921"/>
		<stop  offset="0.5044" style="stop-color:#131313;stop-opacity:0.7684"/>
		<stop  offset="0.5893" style="stop-color:#2A2A2A;stop-opacity:0.6368"/>
		<stop  offset="0.6778" style="stop-color:#4A4A4A;stop-opacity:0.4995"/>
		<stop  offset="0.7691" style="stop-color:#737373;stop-opacity:0.3581"/>
		<stop  offset="0.8627" style="stop-color:#A6A6A6;stop-opacity:0.2129"/>
		<stop  offset="0.9564" style="stop-color:#E1E1E1;stop-opacity:6.760967e-02"/>
		<stop  offset="1" style="stop-color:#FFFFFF;stop-opacity:0"/>
	</linearGradient>
	<path display="inline" opacity="0.57" fill="url(#SVGID_16_)" enable-background="new    " d="M527.4,508.6
		c-24.9,24.9-24.9,65.2,0,90L765,809.3h180.5l-328-300.7C592.6,483.7,552.3,483.7,527.4,508.6z"/>
	
		<linearGradient id="SVGID_17_" gradientUnits="userSpaceOnUse" x1="163.1449" y1="706.0005" x2="945.1449" y2="156.0005" gradientTransform="matrix(1 0 0 -1 0 593.84)">
		<stop  offset="0.3551" style="stop-color:#000000"/>
		<stop  offset="0.4246" style="stop-color:#050505;stop-opacity:0.8921"/>
		<stop  offset="0.5044" style="stop-color:#131313;stop-opacity:0.7684"/>
		<stop  offset="0.5893" style="stop-color:#2A2A2A;stop-opacity:0.6368"/>
		<stop  offset="0.6778" style="stop-color:#4A4A4A;stop-opacity:0.4995"/>
		<stop  offset="0.7691" style="stop-color:#737373;stop-opacity:0.3581"/>
		<stop  offset="0.8627" style="stop-color:#A6A6A6;stop-opacity:0.2129"/>
		<stop  offset="0.9564" style="stop-color:#E1E1E1;stop-opacity:6.760967e-02"/>
		<stop  offset="1" style="stop-color:#FFFFFF;stop-opacity:0"/>
	</linearGradient>
	<polygon display="inline" opacity="0.57" fill="url(#SVGID_17_)" enable-background="new    " points="715.3,16.7 1135.3,336.7 
		1146.1,838.7 541.4,390.3 614.8,250.7 712.1,130.7 	"/>
	
		<linearGradient id="SVGID_18_" gradientUnits="userSpaceOnUse" x1="385.4197" y1="630.3661" x2="586.6754" y2="488.8182" gradientTransform="matrix(1 0 0 -1 0 593.84)">
		<stop  offset="0.3551" style="stop-color:#000000"/>
		<stop  offset="0.4246" style="stop-color:#050505;stop-opacity:0.8921"/>
		<stop  offset="0.5044" style="stop-color:#131313;stop-opacity:0.7684"/>
		<stop  offset="0.5893" style="stop-color:#2A2A2A;stop-opacity:0.6368"/>
		<stop  offset="0.6778" style="stop-color:#4A4A4A;stop-opacity:0.4995"/>
		<stop  offset="0.7691" style="stop-color:#737373;stop-opacity:0.3581"/>
		<stop  offset="0.8627" style="stop-color:#A6A6A6;stop-opacity:0.2129"/>
		<stop  offset="0.9564" style="stop-color:#E1E1E1;stop-opacity:6.760967e-02"/>
		<stop  offset="1" style="stop-color:#FFFFFF;stop-opacity:0"/>
	</linearGradient>
	<polygon display="inline" opacity="0.57" fill="url(#SVGID_18_)" enable-background="new    " points="460.3,92.2 619,211.6 
		702.1,117.7 603,32.7 	"/>
	<g display="inline">
		<path fill="#FFFFFF" d="M426.6,40.4c9.8-8.7,20.7-17,32.4-24.8C470.7,7.8,483.4,1,497-4.8c13.6-5.8,28.4-10.4,44.3-13.7
			s33.2-5,51.7-5c25.2,0,48.2,3.5,68.9,10.4c20.7,7,38.5,16.9,53.3,29.8c14.8,12.9,26.2,28.5,34.3,46.7
			c8.1,18.3,12.2,38.7,12.2,61.3c0,22-3.2,41.1-9.6,57.2c-6.4,16.1-14.4,30.1-24.1,42c-9.7,11.9-20.2,22.2-31.5,30.9
			c-11.3,8.7-22,16.9-32.2,24.6c-10.1,7.7-18.9,15.2-26.3,22.6c-7.4,7.4-11.8,15.7-13.3,25l-10,63.5h-73.5l-7.4-70.9
			c-0.3-1.4-0.4-2.7-0.4-3.7s0-2.2,0-3.7c0-12.8,3.2-23.8,9.6-33.3c6.4-9.4,14.3-18.3,23.9-26.5c9.6-8.3,19.8-16.3,30.9-24.1
			c11-7.8,21.3-16.3,30.9-25.4s17.5-19.5,23.9-31.1s9.6-25.2,9.6-40.9c0-10.4-2-19.8-5.9-28c-3.9-8.3-9.3-15.4-16.3-21.3
			s-15.3-10.5-25-13.7s-20.2-4.8-31.5-4.8c-16.5,0-30.5,1.8-42,5.4s-21.2,7.7-29.1,12.2c-8,4.5-14.7,8.6-20.2,12.2
			s-10.4,5.4-14.8,5.4c-10.4,0-18-4.4-22.6-13L426.6,40.4z M508.8,552.9c0-9,1.7-17.5,5-25.7c3.3-8.1,8-15.1,13.9-20.9
			c5.9-5.8,13-10.4,21.1-13.9s16.8-5.2,26.1-5.2c9,0,17.5,1.7,25.7,5.2c8.1,3.5,15.1,8.1,20.9,13.9c5.8,5.8,10.4,12.8,13.9,20.9
			c3.5,8.1,5.2,16.7,5.2,25.7c0,9.3-1.7,17.9-5.2,25.9s-8.1,14.9-13.9,20.7c-5.8,5.8-12.8,10.4-20.9,13.7c-8.1,3.3-16.7,5-25.7,5
			c-9.3,0-18-1.7-26.1-5s-15.1-7.9-21.1-13.7c-5.9-5.8-10.6-12.7-13.9-20.7C510.4,570.8,508.8,562.2,508.8,552.9z"/>
	</g>
</g>
<g id="webApp" display="none">
	
		<radialGradient id="SVGID_19_" cx="363.1631" cy="604.1937" r="975.3759" gradientTransform="matrix(1 0 0 -1 0 593.84)" gradientUnits="userSpaceOnUse">
		<stop  offset="0.3551" style="stop-color:#000000"/>
		<stop  offset="0.4246" style="stop-color:#050505;stop-opacity:0.8921"/>
		<stop  offset="0.5044" style="stop-color:#131313;stop-opacity:0.7684"/>
		<stop  offset="0.5893" style="stop-color:#2A2A2A;stop-opacity:0.6368"/>
		<stop  offset="0.6778" style="stop-color:#4A4A4A;stop-opacity:0.4995"/>
		<stop  offset="0.7691" style="stop-color:#737373;stop-opacity:0.3581"/>
		<stop  offset="0.8627" style="stop-color:#A6A6A6;stop-opacity:0.2129"/>
		<stop  offset="0.9564" style="stop-color:#E1E1E1;stop-opacity:6.760967e-02"/>
		<stop  offset="1" style="stop-color:#FFFFFF;stop-opacity:0"/>
	</radialGradient>
	<path display="inline" opacity="0.57" fill="url(#SVGID_19_)" enable-background="new    " d="M607.2,809.3h493.9
		c7.7,0,13.9-6.2,13.9-13.9V309.5L898.3,106.9v556.6H313.1L607.2,809.3z"/>
	<g id="Arrow_2" display="inline">
	</g>
	<polygon display="inline" fill="#1E94D2" points="900.1,676.2 305.9,676.2 305.9,-81.6 713.6,-81.6 900.1,103.8 	"/>
	
		<linearGradient id="SVGID_20_" gradientUnits="userSpaceOnUse" x1="770.9187" y1="569.5676" x2="870.592" y2="349.014" gradientTransform="matrix(1 0 0 -1 0 593.84)">
		<stop  offset="0.3551" style="stop-color:#000000"/>
		<stop  offset="0.4246" style="stop-color:#050505;stop-opacity:0.8921"/>
		<stop  offset="0.5044" style="stop-color:#131313;stop-opacity:0.7684"/>
		<stop  offset="0.5893" style="stop-color:#2A2A2A;stop-opacity:0.6368"/>
		<stop  offset="0.6778" style="stop-color:#4A4A4A;stop-opacity:0.4995"/>
		<stop  offset="0.7691" style="stop-color:#737373;stop-opacity:0.3581"/>
		<stop  offset="0.8627" style="stop-color:#A6A6A6;stop-opacity:0.2129"/>
		<stop  offset="0.9564" style="stop-color:#E1E1E1;stop-opacity:6.760967e-02"/>
		<stop  offset="1" style="stop-color:#FFFFFF;stop-opacity:0"/>
	</linearGradient>
	<polygon display="inline" opacity="0.57" fill="url(#SVGID_20_)" enable-background="new    " points="900.1,103.8 713.6,103.8 
		900.1,281.6 	"/>
	<polygon display="inline" fill="#F48620" points="713.6,-81.6 713.6,103.8 900.1,103.8 	"/>
	<g display="inline">
		<path fill="#FFFFFF" d="M487.1,352.6c-48.9,0-88.5,39.6-88.5,88.5s39.6,88.5,88.5,88.5s88.5-39.6,88.5-88.5
			C575.7,392.3,536,352.6,487.1,352.6z"/>
		<path fill="#FFFFFF" d="M846.6,297.3h-9.3H591.8H367.2c-9.6,0-17.4,7.8-17.4,17.4V470c0,9.6,7.8,17.4,17.4,17.4h13v-46.3
			c0-59.1,47.9-106.9,106.9-106.9c59.1,0,106.9,47.9,106.9,106.9v46.3h134.1h109.2h9.3c5.3,0.3,9.6-4,9.6-9.3V306.9
			C856.2,301.6,851.9,297.3,846.6,297.3z"/>
	</g>
	<g display="inline">
		<path fill="#FFFFFF" d="M472.7,177.2h10.8c1,0,1.9,0.2,2.6,0.7s1.1,1.1,1.3,1.8l8.1,30.2c0.4,1.7,0.8,3.3,1.1,4.8s0.5,3.2,0.8,4.7
			c0.4-1.6,0.8-3.2,1.3-4.7c0.5-1.6,0.9-3.2,1.5-4.8l9.4-30.3c0.2-0.7,0.7-1.3,1.3-1.8c0.7-0.5,1.4-0.7,2.3-0.7h6
			c1,0,1.8,0.2,2.5,0.7s1.1,1.1,1.3,1.8l9.3,30.8c0.5,1.6,0.9,3.1,1.3,4.6s0.8,3,1.1,4.5c0.3-1.6,0.5-3.2,0.9-4.7
			c0.3-1.6,0.7-3.2,1.2-4.9l8.4-30.2c0.2-0.7,0.6-1.3,1.3-1.8c0.7-0.5,1.5-0.7,2.4-0.7h10.3l-17.9,56.5h-11c-1.2,0-2-0.8-2.5-2.4
			l-10.2-32.6c-0.3-1.1-0.6-2.1-0.9-3.2s-0.5-2.2-0.7-3.2c-0.2,1.1-0.5,2.2-0.7,3.3s-0.5,2.2-0.9,3.3L504,231.3
			c-0.5,1.6-1.5,2.4-3,2.4h-10.4L472.7,177.2z"/>
		<path fill="#FFFFFF" d="M559.8,177.2h10.8c1,0,1.9,0.2,2.6,0.7c0.7,0.5,1.1,1.1,1.3,1.8l8.1,30.2c0.4,1.7,0.8,3.3,1.1,4.8
			c0.3,1.5,0.5,3.2,0.8,4.7c0.4-1.6,0.8-3.2,1.3-4.7c0.5-1.6,0.9-3.2,1.5-4.8l9.4-30.3c0.2-0.7,0.7-1.3,1.3-1.8
			c0.7-0.5,1.4-0.7,2.3-0.7h6c1,0,1.8,0.2,2.5,0.7s1.1,1.1,1.3,1.8l9.3,30.8c0.5,1.6,0.9,3.1,1.3,4.6c0.4,1.5,0.8,3,1.1,4.5
			c0.3-1.6,0.5-3.2,0.9-4.7c0.3-1.6,0.7-3.2,1.2-4.9l8.4-30.2c0.2-0.7,0.6-1.3,1.3-1.8s1.5-0.7,2.4-0.7h10.3l-17.9,56.5h-11
			c-1.2,0-2-0.8-2.5-2.4l-10.2-32.6c-0.3-1.1-0.6-2.1-0.9-3.2s-0.5-2.2-0.7-3.2c-0.2,1.1-0.5,2.2-0.7,3.3s-0.5,2.2-0.9,3.3
			l-10.4,32.4c-0.5,1.6-1.5,2.4-3,2.4h-10.4L559.8,177.2z"/>
		<path fill="#FFFFFF" d="M646.9,177.2h10.8c1,0,1.9,0.2,2.6,0.7c0.7,0.5,1.1,1.1,1.3,1.8l8.1,30.2c0.4,1.7,0.8,3.3,1.1,4.8
			c0.3,1.6,0.5,3.2,0.8,4.7c0.4-1.6,0.8-3.2,1.3-4.7c0.5-1.6,0.9-3.2,1.5-4.8l9.4-30.3c0.2-0.7,0.7-1.3,1.3-1.8
			c0.7-0.5,1.4-0.7,2.3-0.7h6c1,0,1.8,0.2,2.5,0.7s1.1,1.1,1.3,1.8l9.3,30.8c0.5,1.6,0.9,3.1,1.3,4.6c0.4,1.5,0.8,3,1.1,4.5
			c0.3-1.6,0.5-3.2,0.9-4.7c0.3-1.6,0.7-3.2,1.2-4.9l8.4-30.2c0.2-0.7,0.6-1.3,1.3-1.8s1.5-0.7,2.4-0.7h10.3l-17.9,56.5h-11
			c-1.2,0-2-0.8-2.5-2.4l-10.2-32.6c-0.3-1.1-0.6-2.1-0.9-3.2s-0.5-2.2-0.7-3.2c-0.2,1.1-0.5,2.2-0.7,3.3c-0.3,1.1-0.5,2.2-0.9,3.3
			l-10.4,32.4c-0.5,1.6-1.5,2.4-3,2.4h-10.4L646.9,177.2z"/>
	</g>
	<g id="Arrow_29" display="inline">
	</g>
</g>
</svg>
