<?xml version="1.0" encoding="UTF-8" standalone="no"?>
<svg
   xmlns:dc="http://purl.org/dc/elements/1.1/"
   xmlns:cc="http://creativecommons.org/ns#"
   xmlns:rdf="http://www.w3.org/1999/02/22-rdf-syntax-ns#"
   xmlns:svg="http://www.w3.org/2000/svg"
   xmlns="http://www.w3.org/2000/svg"
   xml:space="preserve"
   enable-background="new 91 -214.7 1024 1024"
   viewBox="91 -214.7 1024 1024"
   y="0px"
   x="0px"
   id="XMLID_1_"
   version="1.1"><metadata
     id="metadata612"><rdf:RDF><cc:Work
         rdf:about=""><dc:format>image/svg+xml</dc:format><dc:type
           rdf:resource="http://purl.org/dc/dcmitype/StillImage" /><dc:title></dc:title></cc:Work></rdf:RDF></metadata><defs
     id="defs610" /><g
     id="thymioWireless"><path
       id="path111"
       d="M1096.5-210.5H108.7c-7.7,0-13.9,6.2-13.9,13.9v987.8c0,7.7,6.2,13.9,13.9,13.9h987.8   c7.7,0,13.9-6.2,13.9-13.9v-987.8C1110.5-204.3,1104.2-210.5,1096.5-210.5z"
       fill="#F48620" /><radialGradient
       gradientUnits="userSpaceOnUse"
       gradientTransform="matrix(1 0 0 -1 0 593.84)"
       r="716.9081"
       cy="863.4175"
       cx="138.5061"
       id="SVGID_4_"><stop
         id="stop114"
         style="stop-color:#000000"
         offset="0.3551" /><stop
         id="stop116"
         style="stop-color:#050505;stop-opacity:0.8921"
         offset="0.4246" /><stop
         id="stop118"
         style="stop-color:#131313;stop-opacity:0.7684"
         offset="0.5044" /><stop
         id="stop120"
         style="stop-color:#2A2A2A;stop-opacity:0.6368"
         offset="0.5893" /><stop
         id="stop122"
         style="stop-color:#4A4A4A;stop-opacity:0.4995"
         offset="0.6778" /><stop
         id="stop124"
         style="stop-color:#737373;stop-opacity:0.3581"
         offset="0.7691" /><stop
         id="stop126"
         style="stop-color:#A6A6A6;stop-opacity:0.2129"
         offset="0.8627" /><stop
         id="stop128"
         style="stop-color:#E1E1E1;stop-opacity:6.760967e-02"
         offset="0.9564" /><stop
         id="stop130"
         style="stop-color:#FFFFFF;stop-opacity:0"
         offset="1" /></radialGradient><polygon
       id="polygon132"
       points="150.9,235.5 411.5,475.3 973,477 548.8,130     "
       enable-background="new    "
       fill="url(#SVGID_4_)"
       opacity="0.57" /><g
       id="g134"><path
         id="path136"
         d="M205.7-113c0,0-17.1,0-17.1,17.1V90.4    c0,0,0,17.1,17.1,17.1h334c0,0,17.1,0,17.1-17.1V-95.9c0,0,0-17.1-17.1-17.1C539.7-113,205.7-113,205.7-113z"
         stroke-miterlimit="10"
         stroke-width="7.7296"
         stroke="#F48620"
         fill="#FFFFFF" /><path
         id="path138"
         d="M187.9,135.8l-36.1,90.4c-2.4,6.1,2,12.7,8.6,12.7h424.4c6.5,0,11-6.6,8.6-12.7l-35-87.7    c-1.4-3.5-5.9-8.5-9.6-8.5H196.5C192.7,130,189.3,132.3,187.9,135.8z"
         fill="#FFFFFF" /></g><radialGradient
       gradientUnits="userSpaceOnUse"
       gradientTransform="matrix(0.8026 0.5965 0.3986 -0.5364 104.1607 254.9546)"
       r="667.7308"
       cy="190.2515"
       cx="356.2078"
       id="SVGID_5_"><stop
         id="stop141"
         style="stop-color:#000000"
         offset="0.3551" /><stop
         id="stop143"
         style="stop-color:#050505;stop-opacity:0.8921"
         offset="0.4246" /><stop
         id="stop145"
         style="stop-color:#131313;stop-opacity:0.7684"
         offset="0.5044" /><stop
         id="stop147"
         style="stop-color:#2A2A2A;stop-opacity:0.6368"
         offset="0.5893" /><stop
         id="stop149"
         style="stop-color:#4A4A4A;stop-opacity:0.4995"
         offset="0.6778" /><stop
         id="stop151"
         style="stop-color:#737373;stop-opacity:0.3581"
         offset="0.7691" /><stop
         id="stop153"
         style="stop-color:#A6A6A6;stop-opacity:0.2129"
         offset="0.8627" /><stop
         id="stop155"
         style="stop-color:#E1E1E1;stop-opacity:6.760967e-02"
         offset="0.9564" /><stop
         id="stop157"
         style="stop-color:#FFFFFF;stop-opacity:0"
         offset="1" /></radialGradient><path
       id="path159"
       d="M586.9,805.1h516c7.3,0,13.3-5.9,13.3-13.3V587.5   L973,477H444.8l-53.3,198.5L586.9,805.1z"
       enable-background="new    "
       fill="url(#SVGID_5_)"
       opacity="0.57" /><g
       id="g161"><path
         id="path163"
         d="M550.6,539.5c-56.7,0-102.6,45.9-102.6,102.6c0,56.7,45.9,102.6,102.6,102.6s102.6-45.9,102.6-102.6    C653.2,585.4,607.2,539.5,550.6,539.5z"
         fill="#FFFFFF" /><path
         id="path165"
         d="M967.2,475.3h-10.7H671.9H411.5c-11.1,0-20.1,9.1-20.1,20.1v180c0,11.1,9.1,20.1,20.1,20.1h15.1v-53.6    c0-68.4,55.5-123.9,123.9-123.9c68.5,0,123.9,55.5,123.9,123.9v53.6h155.4h126.6h10.7c6.1,0.3,11.1-4.7,11.1-10.8V486.5    C978.3,480.3,973.3,475.3,967.2,475.3z"
         fill="#FFFFFF" /></g><g
       id="g167"><path
         id="path169"
         d="M989.9,410.8    c-22.6-21.2-58.1-20-79.3,2.6"
         stroke-miterlimit="10"
         stroke-linejoin="round"
         stroke-width="27.3075"
         stroke="#FFFFFF"
         fill="none" /><path
         id="path171"
         d="M1023.7,369.9    c-42.4-39.7-109-37.5-148.7,4.8"
         stroke-miterlimit="10"
         stroke-linejoin="round"
         stroke-width="27.3075"
         stroke="#FFFFFF"
         fill="none" /><path
         id="path173"
         d="M1062.4,326.8    c-65.4-61.2-168-57.9-229.2,7.5"
         stroke-miterlimit="10"
         stroke-linejoin="round"
         stroke-width="27.3075"
         stroke="#FFFFFF"
         fill="none" /></g><g
       id="g175"><path
         id="path177"
         d="M622.3,49.6    c21.2-22.6,20-58.1-2.6-79.3"
         stroke-miterlimit="10"
         stroke-linejoin="round"
         stroke-width="27.3075"
         stroke="#FFFFFF"
         fill="none" /><path
         id="path179"
         d="M663.1,83.4    c39.7-42.4,37.5-109-4.8-148.7"
         stroke-miterlimit="10"
         stroke-linejoin="round"
         stroke-width="27.3075"
         stroke="#FFFFFF"
         fill="none" /><path
         id="path181"
         d="M706.2,122.1    c61.2-65.4,57.9-168-7.5-229.2"
         stroke-miterlimit="10"
         stroke-linejoin="round"
         stroke-width="27.3075"
         stroke="#FFFFFF"
         fill="none" /></g><g
       id="g183"
       opacity="8.000000e-02"><g
         id="g185"><g
           id="g187"><path
             id="path189"
             d="M774,541.5c-5.8,0-10.5-4.7-10.5-10.5v-20c0-5.8,4.7-10.5,10.5-10.5s10.5,4.7,10.5,10.5v20      C784.5,536.8,779.8,541.5,774,541.5z M774,483.5c-5.8,0-10.5-4.7-10.5-10.5v-20c0-5.8,4.7-10.5,10.5-10.5s10.5,4.7,10.5,10.5v20      C784.5,478.8,779.8,483.5,774,483.5z M774,425.5c-5.8,0-10.5-4.7-10.5-10.5v-20c0-5.8,4.7-10.5,10.5-10.5s10.5,4.7,10.5,10.5v20      C784.5,420.8,779.8,425.5,774,425.5z M770.9,370.6h-20c-5.8,0-10.5-4.7-10.5-10.5s4.7-10.5,10.5-10.5h20      c5.8,0,10.5,4.7,10.5,10.5S776.7,370.6,770.9,370.6z M712.9,370.6h-20c-5.8,0-10.5-4.7-10.5-10.5s4.7-10.5,10.5-10.5h20      c5.8,0,10.5,4.7,10.5,10.5S718.7,370.6,712.9,370.6z M654.9,370.6h-20c-5.8,0-10.5-4.7-10.5-10.5s4.7-10.5,10.5-10.5h20      c5.8,0,10.5,4.7,10.5,10.5S660.7,370.6,654.9,370.6z M596.9,370.6h-20c-5.8,0-10.5-4.7-10.5-10.5s4.7-10.5,10.5-10.5h20      c5.8,0,10.5,4.7,10.5,10.5S602.7,370.6,596.9,370.6z M538.9,370.6h-20c-5.8,0-10.5-4.7-10.5-10.5s4.7-10.5,10.5-10.5h20      c5.8,0,10.5,4.7,10.5,10.5S544.7,370.6,538.9,370.6z M480.9,370.6h-20c-5.8,0-10.5-4.7-10.5-10.5s4.7-10.5,10.5-10.5h20      c5.8,0,10.5,4.7,10.5,10.5S486.7,370.6,480.9,370.6z M422.9,370.6h-20c-5.8,0-10.5-4.7-10.5-10.5s4.7-10.5,10.5-10.5h20      c5.8,0,10.5,4.7,10.5,10.5S428.7,370.6,422.9,370.6z M384.6,350.9c-5.8,0-10.5-4.7-10.5-10.5v-20c0-5.8,4.7-10.5,10.5-10.5      s10.5,4.7,10.5,10.5v20C395.1,346.2,390.4,350.9,384.6,350.9z M384.6,292.9c-5.8,0-10.5-4.7-10.5-10.5v-20      c0-5.8,4.7-10.5,10.5-10.5s10.5,4.7,10.5,10.5v20C395.1,288.2,390.4,292.9,384.6,292.9z M384.6,234.9c-5.8,0-10.5-4.7-10.5-10.5      v-20c0-5.8,4.7-10.5,10.5-10.5s10.5,4.7,10.5,10.5v20C395.1,230.2,390.4,234.9,384.6,234.9z M384.6,176.9      c-5.8,0-10.5-4.7-10.5-10.5v-20c0-5.8,4.7-10.5,10.5-10.5s10.5,4.7,10.5,10.5v20C395.1,172.2,390.4,176.9,384.6,176.9z       M384.6,118.9c-5.8,0-10.5-4.7-10.5-10.5v-20c0-5.8,4.7-10.5,10.5-10.5s10.5,4.7,10.5,10.5v20      C395.1,114.2,390.4,118.9,384.6,118.9z"
             fill="#231F20" /></g></g><g
         id="g191"><g
           id="g193"><circle
             id="circle195"
             r="46"
             cy="605.5"
             cx="774"
             fill="#231F20" /></g></g><g
         id="g197"><g
           id="g199"><circle
             id="circle201"
             r="32.7"
             cy="24.9"
             cx="384.6"
             fill="#231F20" /></g></g></g><g
       id="g203"><g
         id="g205"><g
           id="g207"><path
             id="path209"
             d="M762,533.5c-5.8,0-10.5-4.7-10.5-10.5v-20c0-5.8,4.7-10.5,10.5-10.5s10.5,4.7,10.5,10.5v20      C772.5,528.8,767.8,533.5,762,533.5z M762,475.5c-5.8,0-10.5-4.7-10.5-10.5v-20c0-5.8,4.7-10.5,10.5-10.5s10.5,4.7,10.5,10.5v20      C772.5,470.8,767.8,475.5,762,475.5z M762,417.5c-5.8,0-10.5-4.7-10.5-10.5v-20c0-5.8,4.7-10.5,10.5-10.5s10.5,4.7,10.5,10.5v20      C772.5,412.8,767.8,417.5,762,417.5z M758.9,362.6h-20c-5.8,0-10.5-4.7-10.5-10.5s4.7-10.5,10.5-10.5h20      c5.8,0,10.5,4.7,10.5,10.5S764.7,362.6,758.9,362.6z M700.9,362.6h-20c-5.8,0-10.5-4.7-10.5-10.5s4.7-10.5,10.5-10.5h20      c5.8,0,10.5,4.7,10.5,10.5S706.7,362.6,700.9,362.6z M642.9,362.6h-20c-5.8,0-10.5-4.7-10.5-10.5s4.7-10.5,10.5-10.5h20      c5.8,0,10.5,4.7,10.5,10.5S648.7,362.6,642.9,362.6z M584.9,362.6h-20c-5.8,0-10.5-4.7-10.5-10.5s4.7-10.5,10.5-10.5h20      c5.8,0,10.5,4.7,10.5,10.5S590.7,362.6,584.9,362.6z M526.9,362.6h-20c-5.8,0-10.5-4.7-10.5-10.5s4.7-10.5,10.5-10.5h20      c5.8,0,10.5,4.7,10.5,10.5S532.7,362.6,526.9,362.6z M468.9,362.6h-20c-5.8,0-10.5-4.7-10.5-10.5s4.7-10.5,10.5-10.5h20      c5.8,0,10.5,4.7,10.5,10.5S474.7,362.6,468.9,362.6z M410.9,362.6h-20c-5.8,0-10.5-4.7-10.5-10.5s4.7-10.5,10.5-10.5h20      c5.8,0,10.5,4.7,10.5,10.5S416.7,362.6,410.9,362.6z M372.6,342.9c-5.8,0-10.5-4.7-10.5-10.5v-20c0-5.8,4.7-10.5,10.5-10.5      s10.5,4.7,10.5,10.5v20C383.1,338.2,378.4,342.9,372.6,342.9z M372.6,284.9c-5.8,0-10.5-4.7-10.5-10.5v-20      c0-5.8,4.7-10.5,10.5-10.5s10.5,4.7,10.5,10.5v20C383.1,280.2,378.4,284.9,372.6,284.9z M372.6,226.9c-5.8,0-10.5-4.7-10.5-10.5      v-20c0-5.8,4.7-10.5,10.5-10.5s10.5,4.7,10.5,10.5v20C383.1,222.2,378.4,226.9,372.6,226.9z M372.6,168.9      c-5.8,0-10.5-4.7-10.5-10.5v-20c0-5.8,4.7-10.5,10.5-10.5s10.5,4.7,10.5,10.5v20C383.1,164.2,378.4,168.9,372.6,168.9z       M372.6,110.9c-5.8,0-10.5-4.7-10.5-10.5v-20c0-5.8,4.7-10.5,10.5-10.5s10.5,4.7,10.5,10.5v20      C383.1,106.2,378.4,110.9,372.6,110.9z"
             fill="#EF4623" /></g></g><g
         id="g211"><g
           id="g213"><circle
             id="circle215"
             r="46"
             cy="597.5"
             cx="762"
             fill="#EF4623" /></g></g><g
         id="g217"><g
           id="g219"><circle
             id="circle221"
             r="32.7"
             cy="16.9"
             cx="372.6"
             fill="#EF4623" /></g></g></g></g></svg>