<?xml version="1.0" encoding="UTF-8" standalone="no"?>
<svg
   xmlns:dc="http://purl.org/dc/elements/1.1/"
   xmlns:cc="http://creativecommons.org/ns#"
   xmlns:rdf="http://www.w3.org/1999/02/22-rdf-syntax-ns#"
   xmlns:svg="http://www.w3.org/2000/svg"
   xmlns="http://www.w3.org/2000/svg"
   id="svg2"
   xml:space="preserve"
   enable-background="new 0 0 1024 1024"
   viewBox="0 0 1024 1024"
   y="0px"
   x="0px"
   version="1.1"><metadata
     id="metadata367"><rdf:RDF><cc:Work
         rdf:about=""><dc:format>image/svg+xml</dc:format><dc:type
           rdf:resource="http://purl.org/dc/dcmitype/StillImage" /><dc:title></dc:title></cc:Work></rdf:RDF></metadata><defs
     id="defs365" /><g
     id="upgrader"><g
       id="g78"><path
         id="path80"
         d="M1010,0H14C6.3,0,0,6.3,0,14v996c0,7.7,6.3,14,14,14h996c7.7,0,14-6.3,14-14V14C1024,6.3,1017.7,0,1010,0z    "
         fill="#F48620" /><radialGradient
         gradientUnits="userSpaceOnUse"
         gradientTransform="matrix(0.8026 0.5965 -0.3986 0.5364 191.16 -14.0406)"
         r="857.0951"
         cy="337.8808"
         cx="286.15"
         id="SVGID_3_"><stop
           id="stop83"
           style="stop-color:#000000"
           offset="0.3551" /><stop
           id="stop85"
           style="stop-color:#050505;stop-opacity:0.8921"
           offset="0.4246" /><stop
           id="stop87"
           style="stop-color:#131313;stop-opacity:0.7684"
           offset="0.5044" /><stop
           id="stop89"
           style="stop-color:#2A2A2A;stop-opacity:0.6368"
           offset="0.5893" /><stop
           id="stop91"
           style="stop-color:#4A4A4A;stop-opacity:0.4995"
           offset="0.6778" /><stop
           id="stop93"
           style="stop-color:#737373;stop-opacity:0.3581"
           offset="0.7691" /><stop
           id="stop95"
           style="stop-color:#A6A6A6;stop-opacity:0.2129"
           offset="0.8627" /><stop
           id="stop97"
           style="stop-color:#E1E1E1;stop-opacity:6.760967e-02"
           offset="0.9564" /><stop
           id="stop99"
           style="stop-color:#FFFFFF;stop-opacity:0"
           offset="1" /></radialGradient><path
         id="path101"
         d="M512,1024h498c7.7,0,14-6.3,14-14V696.8L799.2,512l-558.7,0l-38.9,211.7L512,1024z"
         fill="url(#SVGID_3_)"
         opacity="0.57" /><g
         id="g103"><path
           id="path105"
           d="M370,579.8c-59.9,0-108.5,48.6-108.5,108.5c0,59.9,48.6,108.5,108.5,108.5c59.9,0,108.5-48.6,108.5-108.5     C478.5,628.4,429.9,579.8,370,579.8z"
           fill="#FFFFFF" /><path
           id="path107"
           d="M810.6,512h-11.4H498.3H222.9c-11.7,0-21.3,9.6-21.3,21.3v190.4c0,11.7,9.6,21.3,21.3,21.3h16v-56.7     c0-72.4,58.7-131.1,131.1-131.1c72.4,0,131.1,58.7,131.1,131.1V745h164.3h133.9h11.4c6.5,0.3,11.8-4.9,11.8-11.4V523.8     C822.4,517.3,817.1,512,810.6,512z"
           fill="#FFFFFF" /></g><polygon
         id="polygon109"
         points="569.4,341.8 569.4,111.7 454.6,111.7 454.6,341.8 372.5,341.8 512,481.3 651.5,341.8   "
         fill="#FFFFFF" /></g></g></svg>