<?xml version="1.0" encoding="UTF-8" standalone="no"?>
<!-- Created with Inkscape (http://www.inkscape.org/) -->

<svg
   xmlns:dc="http://purl.org/dc/elements/1.1/"
   xmlns:cc="http://creativecommons.org/ns#"
   xmlns:rdf="http://www.w3.org/1999/02/22-rdf-syntax-ns#"
   xmlns:svg="http://www.w3.org/2000/svg"
   xmlns="http://www.w3.org/2000/svg"
   xmlns:xlink="http://www.w3.org/1999/xlink"
   xmlns:sodipodi="http://sodipodi.sourceforge.net/DTD/sodipodi-0.dtd"
   xmlns:inkscape="http://www.inkscape.org/namespaces/inkscape"
   width="256"
   height="256"
   id="svg2"
   version="1.1"
   inkscape:version="0.47 r22583"
   sodipodi:docname="thymioclap.svg">
  <defs
     id="defs4">
    <linearGradient
       id="linearGradient6161">
      <stop
         style="stop-color:#000000;stop-opacity:1;"
         offset="0"
         id="stop6163" />
      <stop
         style="stop-color:#767373;stop-opacity:1;"
         offset="1"
         id="stop6165" />
    </linearGradient>
    <linearGradient
       id="linearGradient6155">
      <stop
         id="stop6157"
         offset="0"
         style="stop-color:#000000;stop-opacity:1;" />
      <stop
         id="stop6159"
         offset="1"
         style="stop-color:#000000;stop-opacity:0;" />
    </linearGradient>
    <linearGradient
       id="linearGradient5094">
      <stop
         style="stop-color:#000000;stop-opacity:1;"
         offset="0"
         id="stop5096" />
      <stop
         style="stop-color:#000000;stop-opacity:0;"
         offset="1"
         id="stop5098" />
    </linearGradient>
    <inkscape:perspective
       sodipodi:type="inkscape:persp3d"
       inkscape:vp_x="0 : 526.18109 : 1"
       inkscape:vp_y="0 : 1000 : 0"
       inkscape:vp_z="744.09448 : 526.18109 : 1"
       inkscape:persp3d-origin="372.04724 : 350.78739 : 1"
       id="perspective10" />
    <inkscape:perspective
       id="perspective5480"
       inkscape:persp3d-origin="0.5 : 0.33333333 : 1"
       inkscape:vp_z="1 : 0.5 : 1"
       inkscape:vp_y="0 : 1000 : 0"
       inkscape:vp_x="0 : 0.5 : 1"
       sodipodi:type="inkscape:persp3d" />
    <inkscape:perspective
       id="perspective5505"
       inkscape:persp3d-origin="0.5 : 0.33333333 : 1"
       inkscape:vp_z="1 : 0.5 : 1"
       inkscape:vp_y="0 : 1000 : 0"
       inkscape:vp_x="0 : 0.5 : 1"
       sodipodi:type="inkscape:persp3d" />
    <linearGradient
       inkscape:collect="always"
       xlink:href="#linearGradient6161"
       id="linearGradient6167"
       x1="-23.270821"
       y1="969.02026"
       x2="129.90639"
       y2="969.02026"
       gradientUnits="userSpaceOnUse"
       gradientTransform="translate(9.261018,7.3580052)"
       spreadMethod="pad" />
    <inkscape:perspective
       id="perspective3625"
       inkscape:persp3d-origin="0.5 : 0.33333333 : 1"
       inkscape:vp_z="1 : 0.5 : 1"
       inkscape:vp_y="0 : 1000 : 0"
       inkscape:vp_x="0 : 0.5 : 1"
       sodipodi:type="inkscape:persp3d" />
    <inkscape:perspective
       id="perspective3754"
       inkscape:persp3d-origin="0.5 : 0.33333333 : 1"
       inkscape:vp_z="1 : 0.5 : 1"
       inkscape:vp_y="0 : 1000 : 0"
       inkscape:vp_x="0 : 0.5 : 1"
       sodipodi:type="inkscape:persp3d" />
  </defs>
  <sodipodi:namedview
     id="base"
     pagecolor="#ffffff"
     bordercolor="#666666"
     borderopacity="1.0"
     inkscape:pageopacity="0.0"
     inkscape:pageshadow="2"
     inkscape:zoom="2.8284271"
     inkscape:cx="170.06927"
     inkscape:cy="145.64481"
     inkscape:document-units="px"
     inkscape:current-layer="g5576"
     showgrid="true"
     inkscape:window-width="1680"
     inkscape:window-height="975"
     inkscape:window-x="1920"
     inkscape:window-y="24"
     inkscape:window-maximized="1"
     inkscape:snap-grids="false"
     width="256px"
     inkscape:showpageshadow="false"
     inkscape:snap-global="false">
    <inkscape:grid
       type="xygrid"
       id="grid3731" />
  </sodipodi:namedview>
  <metadata
     id="metadata7">
    <rdf:RDF>
      <cc:Work
         rdf:about="">
        <dc:format>image/svg+xml</dc:format>
        <dc:type
           rdf:resource="http://purl.org/dc/dcmitype/StillImage" />
        <dc:title />
      </cc:Work>
    </rdf:RDF>
  </metadata>
  <g
     inkscape:label="Layer 1"
     inkscape:groupmode="layer"
     id="layer1"
     transform="translate(0,-796.362)"
     style="display:inline">
    <g
       id="g5125"
       transform="matrix(1.0797949,0,0,1.0872512,24.276906,-125.26245)">
      <g
         id="g5576"
         transform="matrix(0.4,0,0,0.4,120.88765,512.75955)">
        <rect
           style="fill:#ffffff;fill-opacity:1;stroke:none"
           id="rect3604"
           width="164.48036"
           height="127.48045"
           x="49.009811"
           y="889.32086"
           ry="0" />
        <path
           sodipodi:type="arc"
           style="fill:#ffffff;fill-opacity:1;stroke:none"
           id="path5080"
           sodipodi:cx="130.25"
           sodipodi:cy="119.5"
           sodipodi:rx="83.75"
           sodipodi:ry="32.5"
           d="M 214,119.5 A 83.75,32.5 0 1 1 46.549684,118.3807"
           transform="matrix(0.98146928,0,0,-1.1214786,3.4136259,1027.4787)"
           sodipodi:start="0"
           sodipodi:end="3.1760396"
           sodipodi:open="true" />
      </g>
      <path
         style="fill:#ffccaa;fill-opacity:1;stroke:url(#linearGradient6167);stroke-width:5.5375247;stroke-linecap:round;stroke-linejoin:round;stroke-miterlimit:4;stroke-opacity:1;stroke-dasharray:none"
         d="m -10.087388,1012.3236 c 18.7656742,-10.946 10.7378167,-44.07276 7.4784214,-71.81003 0.2493086,-35.98807 21.5314656,-23.40825 22.8694626,-12.75904 2.541711,9.70644 5.949944,19.21168 5.956633,26.57557 6.56442,-16.80293 10.857657,-25.71962 15.506211,-44.10876 3.629307,-20.65982 29.259856,-17.44039 25.898689,2.97248 -6.803598,28.13128 -5.368415,19.2943 -6.817559,34.54038 l 22.461942,-32.30905 c 14.047275,-16.0452 26.729128,1.69829 19.281178,13.66657 l -20.802506,32.4913 26.143476,-16.63425 c 18.39579,-12.33674 27.53741,6.95625 14.1071,18.35966 -16.40362,17.36748 -14.54505,11.49172 -23.970401,22.64738 l 22.718461,-3.27968 c 20.37132,-0.92554 18.55525,19.38087 -0.90943,23.25517 -22.029269,3.7448 -42.854731,13.1367 -45.942775,15.7432 -30.988471,21.8184 -29.166916,26.8231 -33.083022,34.8639"
         id="path5517"
         sodipodi:nodetypes="ccccccccccccccccc" />
      <path
         sodipodi:nodetypes="ccccccccccccccccc"
         id="path5574"
         d="m 70.590342,1082.2013 c 7.290833,-20.3647 -20.299384,-40.6165 -40.748478,-59.7838 -23.1014988,-27.72776 1.343607,-31.67721 9.261016,-24.37353 8.229329,5.81313 16.992163,10.91883 21.763394,16.55563 -5.846579,-17.06253 -8.328945,-26.63389 -16.669834,-43.68833 -10.5914,-18.14322 11.126446,-32.03901 21.763393,-14.25614 12.995439,25.89309 8.375327,18.20737 17.132884,30.81165 l -3.704407,-39.0894 c 0.375946,-21.25883 21.57489,-15.76237 23.6156,-1.83951 l 5.09356,38.16966 9.26104,-29.43202 c 6.10733,-21.19399 25.59708,-12.25053 22.6895,5.05862 -1.32526,23.77599 -3.7044,18.08844 -3.7044,32.65115 l 15.28066,-17.01539 c 15.00624,-13.71366 26.75782,3.00125 14.3546,18.39505 -14.45163,16.93186 -24.32631,37.42096 -25.00476,41.38906 -9.61726,36.4963 -5.44566,38.7074 -3.24135,47.367"
         style="fill:#ffccaa;fill-opacity:1;stroke:#1c1212;stroke-width:5.53752457;stroke-linecap:round;stroke-linejoin:round;stroke-miterlimit:4;stroke-opacity:1;stroke-dasharray:none;marker-start:none;marker-mid:none;stroke-dashoffset:0" />
      <path
         sodipodi:type="arc"
         style="fill:none;stroke:#000000;stroke-width:3.13441873;stroke-linecap:round;stroke-linejoin:round;stroke-miterlimit:4;stroke-opacity:1;stroke-dasharray:none;stroke-dashoffset:0;display:inline"
         id="path2821"
         sodipodi:cx="41.5"
         sodipodi:cy="54"
         sodipodi:rx="26.5"
         sodipodi:ry="27.5"
         d="m 59.946003,73.744134 c -9.896793,9.957088 -25.4968,10.377872 -35.87869,0.967769"
         transform="matrix(-1.2180931,0.95433883,-0.66999295,-0.37491598,116.4224,881.79104)"
         sodipodi:start="0.80087942"
         sodipodi:end="2.2887399"
         sodipodi:open="true" />
      <path
         sodipodi:type="arc"
         style="fill:none;stroke:#000000;stroke-width:3.13441873;stroke-linecap:round;stroke-linejoin:round;stroke-miterlimit:4;stroke-opacity:1;stroke-dasharray:none;stroke-dashoffset:0;display:inline"
         id="path2821-2"
         sodipodi:cx="41.5"
         sodipodi:cy="54"
         sodipodi:rx="26.5"
         sodipodi:ry="27.5"
         d="M 61.747143,71.742042 C 52.304799,83.3462 35.585311,84.809845 24.403123,75.011186 23.847029,74.523896 23.310517,74.013038 22.794951,73.479912"
         transform="matrix(-1.602223,1.2912876,-0.8885741,-0.51647351,142.7604,873.17233)"
         sodipodi:start="0.70123944"
         sodipodi:end="2.35442"
         sodipodi:open="true" />
      <path
         sodipodi:type="arc"
         style="fill:none;stroke:#000000;stroke-width:3.13441873;stroke-linecap:round;stroke-linejoin:round;stroke-miterlimit:4;stroke-opacity:1;stroke-dasharray:none;stroke-dashoffset:0;display:inline"
         id="path2821-1"
         sodipodi:cx="41.5"
         sodipodi:cy="54"
         sodipodi:rx="26.5"
         sodipodi:ry="27.5"
         d="m 59.946003,73.744134 c -9.896793,9.957088 -25.4968,10.377872 -35.87869,0.967769"
         transform="matrix(0.03930788,-1.5403598,0.71852234,-0.27221177,123.23684,1078.1252)"
         sodipodi:start="0.80087942"
         sodipodi:end="2.2887399"
         sodipodi:open="true" />
      <path
         sodipodi:type="arc"
         style="fill:none;stroke:#000000;stroke-width:3.13441873;stroke-linecap:round;stroke-linejoin:round;stroke-miterlimit:4;stroke-opacity:1;stroke-dasharray:none;stroke-dashoffset:0;display:inline"
         id="path2821-2-5"
         sodipodi:cx="41.5"
         sodipodi:cy="54"
         sodipodi:rx="26.5"
         sodipodi:ry="27.5"
         d="M 61.747143,71.742042 C 52.304799,83.3462 35.585311,84.809845 24.403123,75.011186 23.847029,74.523896 23.310517,74.013038 22.794951,73.479912"
         transform="matrix(0.02382662,-2.0491199,0.96783954,-0.34872169,113.21706,1104.4695)"
         sodipodi:start="0.70123944"
         sodipodi:end="2.35442"
         sodipodi:open="true" />
    </g>
  </g>
</svg>
